M48
;DRILL file {KiCad 4.0.5} date 04/03/17 19:29:14
;FORMAT={-:-/ absolute / metric / decimal}
FMAT,2
METRIC,TZ
T1C0.300
T2C0.400
T3C0.500
T4C0.550
T5C0.600
T6C0.800
T7C1.000
T8C1.500
T9C1.501
T10C3.048
%
G90
G05
M71
T1
X101.866Y-107.45
X101.866Y-108.45
X102.616Y-107.95
X103.366Y-107.45
X103.366Y-108.45
T2
X95.885Y-91.694
X97.79Y-103.632
X100.076Y-81.026
X100.838Y-109.474
X100.965Y-124.46
X101.6Y-81.026
X101.6Y-111.506
X102.616Y-88.9
X103.124Y-81.026
X103.124Y-82.804
X104.394Y-87.884
X104.394Y-88.9
X104.394Y-104.14
X104.394Y-109.982
X105.664Y-87.884
X105.664Y-88.9
X107.95Y-88.138
X108.966Y-110.236
X108.966Y-111.76
X108.966Y-113.284
X109.22Y-124.46
X109.982Y-81.026
X110.744Y-110.236
X110.744Y-111.76
X110.744Y-113.284
X111.506Y-81.026
X111.76Y-125.73
X112.014Y-87.376
X112.268Y-82.55
X112.268Y-83.82
X112.268Y-84.836
X112.522Y-88.392
X114.935Y-92.71
X151.13Y-119.38
X151.13Y-122.555
X153.035Y-113.03
X154.305Y-100.965
X154.94Y-123.825
X155.575Y-115.57
X157.48Y-109.855
X158.115Y-123.825
X167.005Y-130.175
X167.64Y-120.65
X185.42Y-121.92
X187.96Y-119.38
T3
X102.235Y-117.475
X113.03Y-120.65
X113.665Y-98.425
X114.3Y-130.175
X115.57Y-99.695
X118.745Y-121.285
X132.08Y-106.68
X132.715Y-114.935
X140.97Y-86.995
X149.225Y-86.995
T5
X94.107Y-96.139
X94.107Y-98.679
T6
X140.97Y-89.535
X140.97Y-92.075
X140.97Y-94.615
X140.97Y-97.155
X140.97Y-99.695
X140.97Y-102.235
X140.97Y-104.775
X140.97Y-107.315
X140.97Y-109.855
X140.97Y-112.395
X140.97Y-114.935
X140.97Y-117.475
X140.97Y-120.015
X140.97Y-122.555
X148.59Y-89.535
X148.59Y-92.075
X148.59Y-94.615
X148.59Y-97.155
X148.59Y-99.695
X148.59Y-102.235
X148.59Y-104.775
X148.59Y-107.315
X148.59Y-109.855
X148.59Y-112.395
X148.59Y-114.935
X148.59Y-117.475
X148.59Y-120.015
X148.59Y-122.555
T7
X149.86Y-128.905
X152.4Y-128.905
X154.94Y-128.905
X157.48Y-128.905
X160.02Y-128.905
X162.56Y-128.905
T8
X100.584Y-84.074
X100.584Y-87.63
X165.1Y-81.153
X165.1Y-88.265
X167.64Y-81.153
X167.64Y-88.265
X170.18Y-81.153
X170.18Y-88.265
X172.72Y-81.153
X172.72Y-88.265
X175.26Y-81.153
X175.26Y-88.265
X177.8Y-81.153
X177.8Y-88.265
X180.34Y-81.153
X180.34Y-88.265
X182.88Y-81.153
X182.88Y-88.265
X185.42Y-81.153
X185.42Y-88.265
X187.96Y-81.153
X187.96Y-88.265
X190.5Y-88.265
T9
X99.568Y-92.456
X103.632Y-92.456
X119.38Y-81.28
X119.38Y-85.725
X119.38Y-90.17
X122.555Y-111.76
X122.555Y-116.84
X122.555Y-121.285
X122.555Y-125.73
X125.095Y-81.28
X125.095Y-85.725
X125.095Y-90.17
X128.905Y-111.76
X128.905Y-116.84
X128.905Y-121.285
X128.905Y-126.365
X130.81Y-81.28
X130.81Y-85.725
X130.81Y-90.17
X133.35Y-126.365
X137.795Y-126.365
X138.43Y-84.455
X142.875Y-84.455
X147.32Y-84.455
T10
X94.615Y-123.825
X158.115Y-87.63
X193.675Y-123.825
T3
X91.428Y-86.509G85X92.078Y-86.509
G05
X91.428Y-93.509G85X92.078Y-93.509
G05
T4
X94.453Y-87.359G85X94.453Y-87.659
G05
X94.453Y-92.359G85X94.453Y-92.659
G05
T0
M30
