G04 #@! TF.FileFunction,Other,User*
%FSLAX46Y46*%
G04 Gerber Fmt 4.6, Leading zero omitted, Abs format (unit mm)*
G04 Created by KiCad (PCBNEW 4.0.5) date 04/03/17 19:29:13*
%MOMM*%
%LPD*%
G01*
G04 APERTURE LIST*
%ADD10C,0.100000*%
%ADD11C,0.050000*%
G04 APERTURE END LIST*
D10*
D11*
X160715000Y-87630000D02*
G75*
G03X160715000Y-87630000I-2600000J0D01*
G01*
X196275000Y-123825000D02*
G75*
G03X196275000Y-123825000I-2600000J0D01*
G01*
X184326000Y-119526000D02*
X168226000Y-119526000D01*
X184326000Y-131426000D02*
X168226000Y-131426000D01*
X184326000Y-119526000D02*
X184326000Y-131426000D01*
X168226000Y-119526000D02*
X168226000Y-131426000D01*
X157845000Y-96125000D02*
X157845000Y-100725000D01*
X155845000Y-96125000D02*
X155845000Y-100725000D01*
X157845000Y-96125000D02*
X155845000Y-96125000D01*
X157845000Y-100725000D02*
X155845000Y-100725000D01*
X114240000Y-126575000D02*
X114240000Y-121075000D01*
X106740000Y-126575000D02*
X106740000Y-121075000D01*
X114240000Y-126575000D02*
X106740000Y-126575000D01*
X114240000Y-121075000D02*
X106740000Y-121075000D01*
X161170000Y-110680000D02*
X161170000Y-115380000D01*
X161170000Y-115380000D02*
X158870000Y-115380000D01*
X158870000Y-115380000D02*
X158870000Y-110680000D01*
X161170000Y-110680000D02*
X158870000Y-110680000D01*
X168790000Y-110680000D02*
X168790000Y-115380000D01*
X168790000Y-115380000D02*
X166490000Y-115380000D01*
X166490000Y-115380000D02*
X166490000Y-110680000D01*
X168790000Y-110680000D02*
X166490000Y-110680000D01*
X176410000Y-110680000D02*
X176410000Y-115380000D01*
X176410000Y-115380000D02*
X174110000Y-115380000D01*
X174110000Y-115380000D02*
X174110000Y-110680000D01*
X176410000Y-110680000D02*
X174110000Y-110680000D01*
X184030000Y-110680000D02*
X184030000Y-115380000D01*
X184030000Y-115380000D02*
X181730000Y-115380000D01*
X181730000Y-115380000D02*
X181730000Y-110680000D01*
X184030000Y-110680000D02*
X181730000Y-110680000D01*
X191650000Y-110680000D02*
X191650000Y-115380000D01*
X191650000Y-115380000D02*
X189350000Y-115380000D01*
X189350000Y-115380000D02*
X189350000Y-110680000D01*
X191650000Y-110680000D02*
X189350000Y-110680000D01*
X164980000Y-110680000D02*
X164980000Y-115380000D01*
X164980000Y-115380000D02*
X162680000Y-115380000D01*
X162680000Y-115380000D02*
X162680000Y-110680000D01*
X164980000Y-110680000D02*
X162680000Y-110680000D01*
X172600000Y-110680000D02*
X172600000Y-115380000D01*
X172600000Y-115380000D02*
X170300000Y-115380000D01*
X170300000Y-115380000D02*
X170300000Y-110680000D01*
X172600000Y-110680000D02*
X170300000Y-110680000D01*
X180220000Y-110680000D02*
X180220000Y-115380000D01*
X180220000Y-115380000D02*
X177920000Y-115380000D01*
X177920000Y-115380000D02*
X177920000Y-110680000D01*
X180220000Y-110680000D02*
X177920000Y-110680000D01*
X187840000Y-110680000D02*
X187840000Y-115380000D01*
X187840000Y-115380000D02*
X185540000Y-115380000D01*
X185540000Y-115380000D02*
X185540000Y-110680000D01*
X187840000Y-110680000D02*
X185540000Y-110680000D01*
X103060000Y-98164000D02*
X107760000Y-98164000D01*
X107760000Y-98164000D02*
X107760000Y-100464000D01*
X107760000Y-100464000D02*
X103060000Y-100464000D01*
X103060000Y-98164000D02*
X103060000Y-100464000D01*
X150290000Y-124255000D02*
X150290000Y-87855000D01*
X150290000Y-87855000D02*
X139290000Y-87855000D01*
X139290000Y-87855000D02*
X139290000Y-124255000D01*
X139290000Y-124255000D02*
X150290000Y-124255000D01*
X164160000Y-127305000D02*
X148260000Y-127305000D01*
X148260000Y-127305000D02*
X148260000Y-130505000D01*
X148260000Y-130505000D02*
X164160000Y-130505000D01*
X164160000Y-130505000D02*
X164160000Y-127305000D01*
X163294000Y-97503000D02*
X163294000Y-102903000D01*
X163294000Y-102903000D02*
X159794000Y-102903000D01*
X159794000Y-102903000D02*
X159794000Y-97503000D01*
X159794000Y-97503000D02*
X163294000Y-97503000D01*
X166850000Y-103726000D02*
X166850000Y-109126000D01*
X166850000Y-109126000D02*
X163350000Y-109126000D01*
X163350000Y-109126000D02*
X163350000Y-103726000D01*
X163350000Y-103726000D02*
X166850000Y-103726000D01*
X170406000Y-97503000D02*
X170406000Y-102903000D01*
X170406000Y-102903000D02*
X166906000Y-102903000D01*
X166906000Y-102903000D02*
X166906000Y-97503000D01*
X166906000Y-97503000D02*
X170406000Y-97503000D01*
X173962000Y-103726000D02*
X173962000Y-109126000D01*
X173962000Y-109126000D02*
X170462000Y-109126000D01*
X170462000Y-109126000D02*
X170462000Y-103726000D01*
X170462000Y-103726000D02*
X173962000Y-103726000D01*
X177518000Y-97503000D02*
X177518000Y-102903000D01*
X177518000Y-102903000D02*
X174018000Y-102903000D01*
X174018000Y-102903000D02*
X174018000Y-97503000D01*
X174018000Y-97503000D02*
X177518000Y-97503000D01*
X181074000Y-103726000D02*
X181074000Y-109126000D01*
X181074000Y-109126000D02*
X177574000Y-109126000D01*
X177574000Y-109126000D02*
X177574000Y-103726000D01*
X177574000Y-103726000D02*
X181074000Y-103726000D01*
X184630000Y-97503000D02*
X184630000Y-102903000D01*
X184630000Y-102903000D02*
X181130000Y-102903000D01*
X181130000Y-102903000D02*
X181130000Y-97503000D01*
X181130000Y-97503000D02*
X184630000Y-97503000D01*
X188186000Y-103726000D02*
X188186000Y-109126000D01*
X188186000Y-109126000D02*
X184686000Y-109126000D01*
X184686000Y-109126000D02*
X184686000Y-103726000D01*
X184686000Y-103726000D02*
X188186000Y-103726000D01*
X191742000Y-97503000D02*
X191742000Y-102903000D01*
X191742000Y-102903000D02*
X188242000Y-102903000D01*
X188242000Y-102903000D02*
X188242000Y-97503000D01*
X188242000Y-97503000D02*
X191742000Y-97503000D01*
X195298000Y-103726000D02*
X195298000Y-109126000D01*
X195298000Y-109126000D02*
X191798000Y-109126000D01*
X191798000Y-109126000D02*
X191798000Y-103726000D01*
X191798000Y-103726000D02*
X195298000Y-103726000D01*
X152005000Y-108855000D02*
X156605000Y-108855000D01*
X152005000Y-110855000D02*
X156605000Y-110855000D01*
X152005000Y-108855000D02*
X152005000Y-110855000D01*
X156605000Y-108855000D02*
X156605000Y-110855000D01*
X147715000Y-129905000D02*
X143115000Y-129905000D01*
X147715000Y-127905000D02*
X143115000Y-127905000D01*
X147715000Y-129905000D02*
X147715000Y-127905000D01*
X143115000Y-129905000D02*
X143115000Y-127905000D01*
X155845000Y-105805000D02*
X155845000Y-101205000D01*
X157845000Y-105805000D02*
X157845000Y-101205000D01*
X155845000Y-105805000D02*
X157845000Y-105805000D01*
X155845000Y-101205000D02*
X157845000Y-101205000D01*
X101840000Y-123460000D02*
X106440000Y-123460000D01*
X101840000Y-125460000D02*
X106440000Y-125460000D01*
X101840000Y-123460000D02*
X101840000Y-125460000D01*
X106440000Y-123460000D02*
X106440000Y-125460000D01*
X111490000Y-83806000D02*
X111490000Y-88406000D01*
X109490000Y-83806000D02*
X109490000Y-88406000D01*
X111490000Y-83806000D02*
X109490000Y-83806000D01*
X111490000Y-88406000D02*
X109490000Y-88406000D01*
X102124000Y-88152000D02*
X102124000Y-83552000D01*
X104124000Y-88152000D02*
X104124000Y-83552000D01*
X102124000Y-88152000D02*
X104124000Y-88152000D01*
X102124000Y-83552000D02*
X104124000Y-83552000D01*
X114284000Y-90918000D02*
X114284000Y-95518000D01*
X112284000Y-90918000D02*
X112284000Y-95518000D01*
X114284000Y-90918000D02*
X112284000Y-90918000D01*
X114284000Y-95518000D02*
X112284000Y-95518000D01*
X98060000Y-109234000D02*
X98060000Y-104634000D01*
X100060000Y-109234000D02*
X100060000Y-104634000D01*
X98060000Y-109234000D02*
X100060000Y-109234000D01*
X98060000Y-104634000D02*
X100060000Y-104634000D01*
X107172000Y-104888000D02*
X107172000Y-109488000D01*
X105172000Y-104888000D02*
X105172000Y-109488000D01*
X107172000Y-104888000D02*
X105172000Y-104888000D01*
X107172000Y-109488000D02*
X105172000Y-109488000D01*
X109458000Y-104888000D02*
X109458000Y-109488000D01*
X107458000Y-104888000D02*
X107458000Y-109488000D01*
X109458000Y-104888000D02*
X107458000Y-104888000D01*
X109458000Y-109488000D02*
X107458000Y-109488000D01*
X111744000Y-104888000D02*
X111744000Y-109488000D01*
X109744000Y-104888000D02*
X109744000Y-109488000D01*
X111744000Y-104888000D02*
X109744000Y-104888000D01*
X111744000Y-109488000D02*
X109744000Y-109488000D01*
X142605000Y-125235000D02*
X142605000Y-130035000D01*
X140605000Y-125235000D02*
X140605000Y-130035000D01*
X142605000Y-125235000D02*
X140605000Y-125235000D01*
X142605000Y-130035000D02*
X140605000Y-130035000D01*
X133490000Y-111395000D02*
X138290000Y-111395000D01*
X133490000Y-113395000D02*
X138290000Y-113395000D01*
X133490000Y-111395000D02*
X133490000Y-113395000D01*
X138290000Y-111395000D02*
X138290000Y-113395000D01*
X133490000Y-113935000D02*
X138290000Y-113935000D01*
X133490000Y-115935000D02*
X138290000Y-115935000D01*
X133490000Y-113935000D02*
X133490000Y-115935000D01*
X138290000Y-113935000D02*
X138290000Y-115935000D01*
X133490000Y-116475000D02*
X138290000Y-116475000D01*
X133490000Y-118475000D02*
X138290000Y-118475000D01*
X133490000Y-116475000D02*
X133490000Y-118475000D01*
X138290000Y-116475000D02*
X138290000Y-118475000D01*
X152765000Y-85865000D02*
X152765000Y-90665000D01*
X150765000Y-85865000D02*
X150765000Y-90665000D01*
X152765000Y-85865000D02*
X150765000Y-85865000D01*
X152765000Y-90665000D02*
X150765000Y-90665000D01*
X133490000Y-88535000D02*
X138290000Y-88535000D01*
X133490000Y-90535000D02*
X138290000Y-90535000D01*
X133490000Y-88535000D02*
X133490000Y-90535000D01*
X138290000Y-88535000D02*
X138290000Y-90535000D01*
X133490000Y-91075000D02*
X138290000Y-91075000D01*
X133490000Y-93075000D02*
X138290000Y-93075000D01*
X133490000Y-91075000D02*
X133490000Y-93075000D01*
X138290000Y-91075000D02*
X138290000Y-93075000D01*
X133490000Y-93615000D02*
X138290000Y-93615000D01*
X133490000Y-95615000D02*
X138290000Y-95615000D01*
X133490000Y-93615000D02*
X133490000Y-95615000D01*
X138290000Y-93615000D02*
X138290000Y-95615000D01*
X133490000Y-96155000D02*
X138290000Y-96155000D01*
X133490000Y-98155000D02*
X138290000Y-98155000D01*
X133490000Y-96155000D02*
X133490000Y-98155000D01*
X138290000Y-96155000D02*
X138290000Y-98155000D01*
X133490000Y-98695000D02*
X138290000Y-98695000D01*
X133490000Y-100695000D02*
X138290000Y-100695000D01*
X133490000Y-98695000D02*
X133490000Y-100695000D01*
X138290000Y-98695000D02*
X138290000Y-100695000D01*
X119875000Y-124190000D02*
X115075000Y-124190000D01*
X119875000Y-122190000D02*
X115075000Y-122190000D01*
X119875000Y-124190000D02*
X119875000Y-122190000D01*
X115075000Y-124190000D02*
X115075000Y-122190000D01*
X115205000Y-121780000D02*
X115205000Y-116980000D01*
X117205000Y-121780000D02*
X117205000Y-116980000D01*
X115205000Y-121780000D02*
X117205000Y-121780000D01*
X115205000Y-116980000D02*
X117205000Y-116980000D01*
X109360000Y-127270000D02*
X114160000Y-127270000D01*
X109360000Y-129270000D02*
X114160000Y-129270000D01*
X109360000Y-127270000D02*
X109360000Y-129270000D01*
X114160000Y-127270000D02*
X114160000Y-129270000D01*
X116475000Y-129400000D02*
X116475000Y-124600000D01*
X118475000Y-129400000D02*
X118475000Y-124600000D01*
X116475000Y-129400000D02*
X118475000Y-129400000D01*
X116475000Y-124600000D02*
X118475000Y-124600000D01*
X166100000Y-90945000D02*
X166100000Y-95745000D01*
X164100000Y-90945000D02*
X164100000Y-95745000D01*
X166100000Y-90945000D02*
X164100000Y-90945000D01*
X166100000Y-95745000D02*
X164100000Y-95745000D01*
X168640000Y-90945000D02*
X168640000Y-95745000D01*
X166640000Y-90945000D02*
X166640000Y-95745000D01*
X168640000Y-90945000D02*
X166640000Y-90945000D01*
X168640000Y-95745000D02*
X166640000Y-95745000D01*
X171180000Y-90945000D02*
X171180000Y-95745000D01*
X169180000Y-90945000D02*
X169180000Y-95745000D01*
X171180000Y-90945000D02*
X169180000Y-90945000D01*
X171180000Y-95745000D02*
X169180000Y-95745000D01*
X173720000Y-90945000D02*
X173720000Y-95745000D01*
X171720000Y-90945000D02*
X171720000Y-95745000D01*
X173720000Y-90945000D02*
X171720000Y-90945000D01*
X173720000Y-95745000D02*
X171720000Y-95745000D01*
X176260000Y-90945000D02*
X176260000Y-95745000D01*
X174260000Y-90945000D02*
X174260000Y-95745000D01*
X176260000Y-90945000D02*
X174260000Y-90945000D01*
X176260000Y-95745000D02*
X174260000Y-95745000D01*
X178800000Y-90945000D02*
X178800000Y-95745000D01*
X176800000Y-90945000D02*
X176800000Y-95745000D01*
X178800000Y-90945000D02*
X176800000Y-90945000D01*
X178800000Y-95745000D02*
X176800000Y-95745000D01*
X181340000Y-90945000D02*
X181340000Y-95745000D01*
X179340000Y-90945000D02*
X179340000Y-95745000D01*
X181340000Y-90945000D02*
X179340000Y-90945000D01*
X181340000Y-95745000D02*
X179340000Y-95745000D01*
X183880000Y-90945000D02*
X183880000Y-95745000D01*
X181880000Y-90945000D02*
X181880000Y-95745000D01*
X183880000Y-90945000D02*
X181880000Y-90945000D01*
X183880000Y-95745000D02*
X181880000Y-95745000D01*
X186420000Y-90945000D02*
X186420000Y-95745000D01*
X184420000Y-90945000D02*
X184420000Y-95745000D01*
X186420000Y-90945000D02*
X184420000Y-90945000D01*
X186420000Y-95745000D02*
X184420000Y-95745000D01*
X188960000Y-90945000D02*
X188960000Y-95745000D01*
X186960000Y-90945000D02*
X186960000Y-95745000D01*
X188960000Y-90945000D02*
X186960000Y-90945000D01*
X188960000Y-95745000D02*
X186960000Y-95745000D01*
X191500000Y-90945000D02*
X191500000Y-95745000D01*
X189500000Y-90945000D02*
X189500000Y-95745000D01*
X191500000Y-90945000D02*
X189500000Y-90945000D01*
X191500000Y-95745000D02*
X189500000Y-95745000D01*
X104664000Y-83426000D02*
X104664000Y-78626000D01*
X106664000Y-83426000D02*
X106664000Y-78626000D01*
X104664000Y-83426000D02*
X106664000Y-83426000D01*
X104664000Y-78626000D02*
X106664000Y-78626000D01*
X106820000Y-81550000D02*
X111620000Y-81550000D01*
X106820000Y-83550000D02*
X111620000Y-83550000D01*
X106820000Y-81550000D02*
X106820000Y-83550000D01*
X111620000Y-81550000D02*
X111620000Y-83550000D01*
X111366000Y-92440000D02*
X106566000Y-92440000D01*
X111366000Y-90440000D02*
X106566000Y-90440000D01*
X111366000Y-92440000D02*
X111366000Y-90440000D01*
X106566000Y-92440000D02*
X106566000Y-90440000D01*
X97520000Y-104534000D02*
X97520000Y-109334000D01*
X95520000Y-104534000D02*
X95520000Y-109334000D01*
X97520000Y-104534000D02*
X95520000Y-104534000D01*
X97520000Y-109334000D02*
X95520000Y-109334000D01*
X95644000Y-110760000D02*
X100444000Y-110760000D01*
X95644000Y-112760000D02*
X100444000Y-112760000D01*
X95644000Y-110760000D02*
X95644000Y-112760000D01*
X100444000Y-110760000D02*
X100444000Y-112760000D01*
X106918000Y-109614000D02*
X106918000Y-114414000D01*
X104918000Y-109614000D02*
X104918000Y-114414000D01*
X106918000Y-109614000D02*
X104918000Y-109614000D01*
X106918000Y-114414000D02*
X104918000Y-114414000D01*
X104632000Y-111646000D02*
X104632000Y-116446000D01*
X102632000Y-111646000D02*
X102632000Y-116446000D01*
X104632000Y-111646000D02*
X102632000Y-111646000D01*
X104632000Y-116446000D02*
X102632000Y-116446000D01*
X165592000Y-97295000D02*
X165592000Y-102095000D01*
X163592000Y-97295000D02*
X163592000Y-102095000D01*
X165592000Y-97295000D02*
X163592000Y-97295000D01*
X165592000Y-102095000D02*
X163592000Y-102095000D01*
X169148000Y-104026000D02*
X169148000Y-108826000D01*
X167148000Y-104026000D02*
X167148000Y-108826000D01*
X169148000Y-104026000D02*
X167148000Y-104026000D01*
X169148000Y-108826000D02*
X167148000Y-108826000D01*
X172704000Y-97295000D02*
X172704000Y-102095000D01*
X170704000Y-97295000D02*
X170704000Y-102095000D01*
X172704000Y-97295000D02*
X170704000Y-97295000D01*
X172704000Y-102095000D02*
X170704000Y-102095000D01*
X176260000Y-104026000D02*
X176260000Y-108826000D01*
X174260000Y-104026000D02*
X174260000Y-108826000D01*
X176260000Y-104026000D02*
X174260000Y-104026000D01*
X176260000Y-108826000D02*
X174260000Y-108826000D01*
X179816000Y-97295000D02*
X179816000Y-102095000D01*
X177816000Y-97295000D02*
X177816000Y-102095000D01*
X179816000Y-97295000D02*
X177816000Y-97295000D01*
X179816000Y-102095000D02*
X177816000Y-102095000D01*
X183372000Y-104026000D02*
X183372000Y-108826000D01*
X181372000Y-104026000D02*
X181372000Y-108826000D01*
X183372000Y-104026000D02*
X181372000Y-104026000D01*
X183372000Y-108826000D02*
X181372000Y-108826000D01*
X186928000Y-97295000D02*
X186928000Y-102095000D01*
X184928000Y-97295000D02*
X184928000Y-102095000D01*
X186928000Y-97295000D02*
X184928000Y-97295000D01*
X186928000Y-102095000D02*
X184928000Y-102095000D01*
X190484000Y-104026000D02*
X190484000Y-108826000D01*
X188484000Y-104026000D02*
X188484000Y-108826000D01*
X190484000Y-104026000D02*
X188484000Y-104026000D01*
X190484000Y-108826000D02*
X188484000Y-108826000D01*
X194040000Y-97295000D02*
X194040000Y-102095000D01*
X192040000Y-97295000D02*
X192040000Y-102095000D01*
X194040000Y-97295000D02*
X192040000Y-97295000D01*
X194040000Y-102095000D02*
X192040000Y-102095000D01*
X195310000Y-110630000D02*
X195310000Y-115430000D01*
X193310000Y-110630000D02*
X193310000Y-115430000D01*
X195310000Y-110630000D02*
X193310000Y-110630000D01*
X195310000Y-115430000D02*
X193310000Y-115430000D01*
X97215000Y-123825000D02*
G75*
G03X97215000Y-123825000I-2600000J0D01*
G01*
X104780000Y-84052000D02*
X108580000Y-84052000D01*
X108580000Y-84052000D02*
X108580000Y-87652000D01*
X108580000Y-87652000D02*
X104780000Y-87652000D01*
X104780000Y-87652000D02*
X104780000Y-84052000D01*
X95690000Y-85410000D02*
X95690000Y-94610000D01*
X95690000Y-94610000D02*
X88840000Y-94610000D01*
X88840000Y-94610000D02*
X88840000Y-85410000D01*
X88840000Y-85410000D02*
X95690000Y-85410000D01*
M02*
