G04 #@! TF.FileFunction,Soldermask,Bot*
%FSLAX46Y46*%
G04 Gerber Fmt 4.6, Leading zero omitted, Abs format (unit mm)*
G04 Created by KiCad (PCBNEW 4.0.5) date 04/03/17 19:29:13*
%MOMM*%
%LPD*%
G01*
G04 APERTURE LIST*
%ADD10C,0.100000*%
%ADD11C,4.464000*%
%ADD12C,2.900000*%
%ADD13R,2.800000X2.000000*%
%ADD14O,2.800000X2.000000*%
%ADD15R,2.100000X2.100000*%
%ADD16O,2.100000X2.100000*%
%ADD17C,3.400000*%
%ADD18C,0.540000*%
%ADD19O,2.400000X3.400000*%
%ADD20R,1.900000X1.900000*%
%ADD21C,1.900000*%
%ADD22O,1.350000X1.650000*%
%ADD23O,1.950000X1.400000*%
%ADD24C,1.150000*%
%ADD25C,1.000000*%
%ADD26C,1.050000*%
%ADD27C,1.250000*%
%ADD28C,0.254000*%
G04 APERTURE END LIST*
D10*
D11*
X158115000Y-87630000D03*
X193675000Y-123825000D03*
D12*
X100584000Y-87630000D03*
X100584000Y-84074000D03*
D13*
X148590000Y-122555000D03*
D14*
X140970000Y-89535000D03*
X148590000Y-120015000D03*
X140970000Y-92075000D03*
X148590000Y-117475000D03*
X140970000Y-94615000D03*
X148590000Y-114935000D03*
X140970000Y-97155000D03*
X148590000Y-112395000D03*
X140970000Y-99695000D03*
X148590000Y-109855000D03*
X140970000Y-102235000D03*
X148590000Y-107315000D03*
X140970000Y-104775000D03*
X148590000Y-104775000D03*
X140970000Y-107315000D03*
X148590000Y-102235000D03*
X140970000Y-109855000D03*
X148590000Y-99695000D03*
X140970000Y-112395000D03*
X148590000Y-97155000D03*
X140970000Y-114935000D03*
X148590000Y-94615000D03*
X140970000Y-117475000D03*
X148590000Y-92075000D03*
X140970000Y-120015000D03*
X148590000Y-89535000D03*
X140970000Y-122555000D03*
D15*
X162560000Y-128905000D03*
D16*
X160020000Y-128905000D03*
X157480000Y-128905000D03*
X154940000Y-128905000D03*
X152400000Y-128905000D03*
X149860000Y-128905000D03*
D17*
X130810000Y-90170000D03*
X130810000Y-85725000D03*
X130810000Y-81280000D03*
X125095000Y-90170000D03*
X125095000Y-85725000D03*
X125095000Y-81280000D03*
X119380000Y-90170000D03*
X119380000Y-85725000D03*
X119380000Y-81280000D03*
X128905000Y-111760000D03*
X128905000Y-116840000D03*
X128905000Y-121285000D03*
X137795000Y-126365000D03*
X133350000Y-126365000D03*
X128905000Y-126365000D03*
X103632000Y-92456000D03*
X99568000Y-92456000D03*
D18*
X102616000Y-107950000D03*
X101866000Y-108450000D03*
X103366000Y-108450000D03*
X103366000Y-107450000D03*
X101866000Y-107450000D03*
D19*
X165100000Y-88265000D03*
X167640000Y-88265000D03*
X170180000Y-88265000D03*
X172720000Y-88265000D03*
X175260000Y-88265000D03*
X177800000Y-88265000D03*
X180340000Y-88265000D03*
X182880000Y-88265000D03*
X185420000Y-88265000D03*
X187960000Y-88265000D03*
X190500000Y-88265000D03*
X187960000Y-81153000D03*
X185420000Y-81153000D03*
X182880000Y-81153000D03*
X180340000Y-81153000D03*
X177800000Y-81153000D03*
X175260000Y-81153000D03*
X172720000Y-81153000D03*
X170180000Y-81153000D03*
X167640000Y-81153000D03*
X165100000Y-81153000D03*
D11*
X94615000Y-123825000D03*
D17*
X147320000Y-84455000D03*
X138430000Y-84455000D03*
X142875000Y-84455000D03*
X122555000Y-116840000D03*
X122555000Y-111760000D03*
X122555000Y-125730000D03*
X122555000Y-121285000D03*
D20*
X94107000Y-96139000D03*
D21*
X94107000Y-98679000D03*
D22*
X94452540Y-87509100D03*
X94452540Y-92509100D03*
D23*
X91752540Y-86509100D03*
X91752540Y-93509100D03*
D24*
X111760000Y-125730000D03*
X109220000Y-124460000D03*
X104394000Y-104140000D03*
X104394000Y-109982000D03*
X167640000Y-120650000D03*
X114935000Y-92710000D03*
X100965000Y-124460000D03*
X157480000Y-109855000D03*
X95885000Y-91694000D03*
X154305000Y-100965000D03*
D25*
X100076000Y-81026000D03*
X101600000Y-81026000D03*
X103124000Y-81026000D03*
X103124000Y-82804000D03*
X112268000Y-84836000D03*
X112268000Y-83820000D03*
X112268000Y-82550000D03*
X111506000Y-81026000D03*
X109982000Y-81026000D03*
D26*
X108966000Y-110236000D03*
X108966000Y-111760000D03*
X108966000Y-113284000D03*
X110744000Y-113284000D03*
X110744000Y-111760000D03*
X110744000Y-110236000D03*
D24*
X187960000Y-119380000D03*
X185420000Y-121920000D03*
D27*
X115570000Y-99695000D03*
D24*
X151130000Y-122555000D03*
X151130000Y-119380000D03*
D27*
X113665000Y-98425000D03*
X132080000Y-106680000D03*
D24*
X101600000Y-111506000D03*
X100838000Y-109474000D03*
X97790000Y-103632000D03*
D27*
X132715000Y-114935000D03*
D25*
X107950000Y-88138000D03*
X112522000Y-88392000D03*
X112014000Y-87376000D03*
D27*
X149225000Y-86995000D03*
X140970000Y-86995000D03*
D25*
X104394000Y-87884000D03*
X104394000Y-88900000D03*
X105664000Y-88900000D03*
X105664000Y-87884000D03*
X102616000Y-88900000D03*
D24*
X153035000Y-113030000D03*
X155575000Y-115570000D03*
X167005000Y-130175000D03*
X158115000Y-123825000D03*
X154940000Y-123825000D03*
D27*
X113030000Y-120650000D03*
X118745000Y-121285000D03*
X102235000Y-117475000D03*
X114300000Y-130175000D03*
D28*
G36*
X103695500Y-108648500D02*
X101536500Y-108648500D01*
X101536500Y-107251500D01*
X103695500Y-107251500D01*
X103695500Y-108648500D01*
X103695500Y-108648500D01*
G37*
X103695500Y-108648500D02*
X101536500Y-108648500D01*
X101536500Y-107251500D01*
X103695500Y-107251500D01*
X103695500Y-108648500D01*
M02*
