G04 #@! TF.FileFunction,Other,Fab,Top*
%FSLAX46Y46*%
G04 Gerber Fmt 4.6, Leading zero omitted, Abs format (unit mm)*
G04 Created by KiCad (PCBNEW 4.0.5) date 04/03/17 19:29:13*
%MOMM*%
%LPD*%
G01*
G04 APERTURE LIST*
%ADD10C,0.100000*%
%ADD11C,0.150000*%
%ADD12C,0.300000*%
%ADD13C,0.075000*%
G04 APERTURE END LIST*
D10*
X160269066Y-87630000D02*
G75*
G03X160269066Y-87630000I-2154066J0D01*
G01*
X195829066Y-123825000D02*
G75*
G03X195829066Y-123825000I-2154066J0D01*
G01*
D11*
X183976000Y-122726000D02*
X183976000Y-129226000D01*
X183976000Y-129226000D02*
X168576000Y-129226000D01*
X168576000Y-129226000D02*
X168576000Y-121726000D01*
X168576000Y-121726000D02*
X182976000Y-121726000D01*
X182976000Y-121726000D02*
X183976000Y-122726000D01*
D10*
X156220000Y-97425000D02*
X157470000Y-97425000D01*
X156220000Y-99425000D02*
X156220000Y-97425000D01*
X157470000Y-99425000D02*
X156220000Y-99425000D01*
X157470000Y-97425000D02*
X157470000Y-99425000D01*
D11*
X111440000Y-126275000D02*
X108540000Y-126275000D01*
X108540000Y-126275000D02*
X108540000Y-121375000D01*
X108540000Y-121375000D02*
X112440000Y-121375000D01*
X112440000Y-121375000D02*
X112440000Y-125275000D01*
X112440000Y-125275000D02*
X111440000Y-126275000D01*
D10*
X160020000Y-113280000D02*
X160020000Y-113780000D01*
X159620000Y-113280000D02*
X160020000Y-112680000D01*
X160420000Y-113280000D02*
X159620000Y-113280000D01*
X160020000Y-112680000D02*
X160420000Y-113280000D01*
X160020000Y-112680000D02*
X159470000Y-112680000D01*
X160020000Y-112680000D02*
X160570000Y-112680000D01*
X160020000Y-112280000D02*
X160020000Y-112680000D01*
X159120000Y-111630000D02*
X160920000Y-111630000D01*
X159120000Y-114430000D02*
X159120000Y-111630000D01*
X160920000Y-114430000D02*
X159120000Y-114430000D01*
X160920000Y-111630000D02*
X160920000Y-114430000D01*
X167640000Y-113280000D02*
X167640000Y-113780000D01*
X167240000Y-113280000D02*
X167640000Y-112680000D01*
X168040000Y-113280000D02*
X167240000Y-113280000D01*
X167640000Y-112680000D02*
X168040000Y-113280000D01*
X167640000Y-112680000D02*
X167090000Y-112680000D01*
X167640000Y-112680000D02*
X168190000Y-112680000D01*
X167640000Y-112280000D02*
X167640000Y-112680000D01*
X166740000Y-111630000D02*
X168540000Y-111630000D01*
X166740000Y-114430000D02*
X166740000Y-111630000D01*
X168540000Y-114430000D02*
X166740000Y-114430000D01*
X168540000Y-111630000D02*
X168540000Y-114430000D01*
X175260000Y-113280000D02*
X175260000Y-113780000D01*
X174860000Y-113280000D02*
X175260000Y-112680000D01*
X175660000Y-113280000D02*
X174860000Y-113280000D01*
X175260000Y-112680000D02*
X175660000Y-113280000D01*
X175260000Y-112680000D02*
X174710000Y-112680000D01*
X175260000Y-112680000D02*
X175810000Y-112680000D01*
X175260000Y-112280000D02*
X175260000Y-112680000D01*
X174360000Y-111630000D02*
X176160000Y-111630000D01*
X174360000Y-114430000D02*
X174360000Y-111630000D01*
X176160000Y-114430000D02*
X174360000Y-114430000D01*
X176160000Y-111630000D02*
X176160000Y-114430000D01*
X182880000Y-113280000D02*
X182880000Y-113780000D01*
X182480000Y-113280000D02*
X182880000Y-112680000D01*
X183280000Y-113280000D02*
X182480000Y-113280000D01*
X182880000Y-112680000D02*
X183280000Y-113280000D01*
X182880000Y-112680000D02*
X182330000Y-112680000D01*
X182880000Y-112680000D02*
X183430000Y-112680000D01*
X182880000Y-112280000D02*
X182880000Y-112680000D01*
X181980000Y-111630000D02*
X183780000Y-111630000D01*
X181980000Y-114430000D02*
X181980000Y-111630000D01*
X183780000Y-114430000D02*
X181980000Y-114430000D01*
X183780000Y-111630000D02*
X183780000Y-114430000D01*
X190500000Y-113280000D02*
X190500000Y-113780000D01*
X190100000Y-113280000D02*
X190500000Y-112680000D01*
X190900000Y-113280000D02*
X190100000Y-113280000D01*
X190500000Y-112680000D02*
X190900000Y-113280000D01*
X190500000Y-112680000D02*
X189950000Y-112680000D01*
X190500000Y-112680000D02*
X191050000Y-112680000D01*
X190500000Y-112280000D02*
X190500000Y-112680000D01*
X189600000Y-111630000D02*
X191400000Y-111630000D01*
X189600000Y-114430000D02*
X189600000Y-111630000D01*
X191400000Y-114430000D02*
X189600000Y-114430000D01*
X191400000Y-111630000D02*
X191400000Y-114430000D01*
X163830000Y-113280000D02*
X163830000Y-113780000D01*
X163430000Y-113280000D02*
X163830000Y-112680000D01*
X164230000Y-113280000D02*
X163430000Y-113280000D01*
X163830000Y-112680000D02*
X164230000Y-113280000D01*
X163830000Y-112680000D02*
X163280000Y-112680000D01*
X163830000Y-112680000D02*
X164380000Y-112680000D01*
X163830000Y-112280000D02*
X163830000Y-112680000D01*
X162930000Y-111630000D02*
X164730000Y-111630000D01*
X162930000Y-114430000D02*
X162930000Y-111630000D01*
X164730000Y-114430000D02*
X162930000Y-114430000D01*
X164730000Y-111630000D02*
X164730000Y-114430000D01*
X171450000Y-113280000D02*
X171450000Y-113780000D01*
X171050000Y-113280000D02*
X171450000Y-112680000D01*
X171850000Y-113280000D02*
X171050000Y-113280000D01*
X171450000Y-112680000D02*
X171850000Y-113280000D01*
X171450000Y-112680000D02*
X170900000Y-112680000D01*
X171450000Y-112680000D02*
X172000000Y-112680000D01*
X171450000Y-112280000D02*
X171450000Y-112680000D01*
X170550000Y-111630000D02*
X172350000Y-111630000D01*
X170550000Y-114430000D02*
X170550000Y-111630000D01*
X172350000Y-114430000D02*
X170550000Y-114430000D01*
X172350000Y-111630000D02*
X172350000Y-114430000D01*
X179070000Y-113280000D02*
X179070000Y-113780000D01*
X178670000Y-113280000D02*
X179070000Y-112680000D01*
X179470000Y-113280000D02*
X178670000Y-113280000D01*
X179070000Y-112680000D02*
X179470000Y-113280000D01*
X179070000Y-112680000D02*
X178520000Y-112680000D01*
X179070000Y-112680000D02*
X179620000Y-112680000D01*
X179070000Y-112280000D02*
X179070000Y-112680000D01*
X178170000Y-111630000D02*
X179970000Y-111630000D01*
X178170000Y-114430000D02*
X178170000Y-111630000D01*
X179970000Y-114430000D02*
X178170000Y-114430000D01*
X179970000Y-111630000D02*
X179970000Y-114430000D01*
X186690000Y-113280000D02*
X186690000Y-113780000D01*
X186290000Y-113280000D02*
X186690000Y-112680000D01*
X187090000Y-113280000D02*
X186290000Y-113280000D01*
X186690000Y-112680000D02*
X187090000Y-113280000D01*
X186690000Y-112680000D02*
X186140000Y-112680000D01*
X186690000Y-112680000D02*
X187240000Y-112680000D01*
X186690000Y-112280000D02*
X186690000Y-112680000D01*
X185790000Y-111630000D02*
X187590000Y-111630000D01*
X185790000Y-114430000D02*
X185790000Y-111630000D01*
X187590000Y-114430000D02*
X185790000Y-114430000D01*
X187590000Y-111630000D02*
X187590000Y-114430000D01*
X105660000Y-99314000D02*
X106160000Y-99314000D01*
X105660000Y-99714000D02*
X105060000Y-99314000D01*
X105660000Y-98914000D02*
X105660000Y-99714000D01*
X105060000Y-99314000D02*
X105660000Y-98914000D01*
X105060000Y-99314000D02*
X105060000Y-99864000D01*
X105060000Y-99314000D02*
X105060000Y-98764000D01*
X104660000Y-99314000D02*
X105060000Y-99314000D01*
X104010000Y-100214000D02*
X104010000Y-98414000D01*
X106810000Y-100214000D02*
X104010000Y-100214000D01*
X106810000Y-98414000D02*
X106810000Y-100214000D01*
X104010000Y-98414000D02*
X106810000Y-98414000D01*
X146955000Y-123825000D02*
X141605000Y-123825000D01*
X141605000Y-123825000D02*
X141605000Y-88265000D01*
X141605000Y-88265000D02*
X147955000Y-88265000D01*
X147955000Y-88265000D02*
X147955000Y-122825000D01*
X147955000Y-122825000D02*
X146955000Y-123825000D01*
X149860000Y-123825000D02*
X149860000Y-88265000D01*
X149860000Y-88265000D02*
X139700000Y-88265000D01*
X139700000Y-88265000D02*
X139700000Y-123825000D01*
X139700000Y-123825000D02*
X149860000Y-123825000D01*
X163830000Y-127635000D02*
X148590000Y-127635000D01*
X148590000Y-127635000D02*
X148590000Y-130175000D01*
X148590000Y-130175000D02*
X163830000Y-130175000D01*
X163830000Y-130175000D02*
X163830000Y-127635000D01*
D11*
X163064000Y-100903000D02*
X160024000Y-100903000D01*
X160024000Y-99503000D02*
X160024000Y-100903000D01*
X163064000Y-99503000D02*
X163064000Y-100903000D01*
X163064000Y-99503000D02*
X160024000Y-99503000D01*
X166620000Y-107126000D02*
X163580000Y-107126000D01*
X163580000Y-105726000D02*
X163580000Y-107126000D01*
X166620000Y-105726000D02*
X166620000Y-107126000D01*
X166620000Y-105726000D02*
X163580000Y-105726000D01*
X170176000Y-100903000D02*
X167136000Y-100903000D01*
X167136000Y-99503000D02*
X167136000Y-100903000D01*
X170176000Y-99503000D02*
X170176000Y-100903000D01*
X170176000Y-99503000D02*
X167136000Y-99503000D01*
X173732000Y-107126000D02*
X170692000Y-107126000D01*
X170692000Y-105726000D02*
X170692000Y-107126000D01*
X173732000Y-105726000D02*
X173732000Y-107126000D01*
X173732000Y-105726000D02*
X170692000Y-105726000D01*
X177288000Y-100903000D02*
X174248000Y-100903000D01*
X174248000Y-99503000D02*
X174248000Y-100903000D01*
X177288000Y-99503000D02*
X177288000Y-100903000D01*
X177288000Y-99503000D02*
X174248000Y-99503000D01*
X180844000Y-107126000D02*
X177804000Y-107126000D01*
X177804000Y-105726000D02*
X177804000Y-107126000D01*
X180844000Y-105726000D02*
X180844000Y-107126000D01*
X180844000Y-105726000D02*
X177804000Y-105726000D01*
X184400000Y-100903000D02*
X181360000Y-100903000D01*
X181360000Y-99503000D02*
X181360000Y-100903000D01*
X184400000Y-99503000D02*
X184400000Y-100903000D01*
X184400000Y-99503000D02*
X181360000Y-99503000D01*
X187956000Y-107126000D02*
X184916000Y-107126000D01*
X184916000Y-105726000D02*
X184916000Y-107126000D01*
X187956000Y-105726000D02*
X187956000Y-107126000D01*
X187956000Y-105726000D02*
X184916000Y-105726000D01*
X191512000Y-100903000D02*
X188472000Y-100903000D01*
X188472000Y-99503000D02*
X188472000Y-100903000D01*
X191512000Y-99503000D02*
X191512000Y-100903000D01*
X191512000Y-99503000D02*
X188472000Y-99503000D01*
X195068000Y-107126000D02*
X192028000Y-107126000D01*
X192028000Y-105726000D02*
X192028000Y-107126000D01*
X195068000Y-105726000D02*
X195068000Y-107126000D01*
X195068000Y-105726000D02*
X192028000Y-105726000D01*
D10*
X153305000Y-110480000D02*
X153305000Y-109230000D01*
X155305000Y-110480000D02*
X153305000Y-110480000D01*
X155305000Y-109230000D02*
X155305000Y-110480000D01*
X153305000Y-109230000D02*
X155305000Y-109230000D01*
X146415000Y-128280000D02*
X146415000Y-129530000D01*
X144415000Y-128280000D02*
X146415000Y-128280000D01*
X144415000Y-129530000D02*
X144415000Y-128280000D01*
X146415000Y-129530000D02*
X144415000Y-129530000D01*
X157470000Y-104505000D02*
X156220000Y-104505000D01*
X157470000Y-102505000D02*
X157470000Y-104505000D01*
X156220000Y-102505000D02*
X157470000Y-102505000D01*
X156220000Y-104505000D02*
X156220000Y-102505000D01*
X103140000Y-125085000D02*
X103140000Y-123835000D01*
X105140000Y-125085000D02*
X103140000Y-125085000D01*
X105140000Y-123835000D02*
X105140000Y-125085000D01*
X103140000Y-123835000D02*
X105140000Y-123835000D01*
X109865000Y-85106000D02*
X111115000Y-85106000D01*
X109865000Y-87106000D02*
X109865000Y-85106000D01*
X111115000Y-87106000D02*
X109865000Y-87106000D01*
X111115000Y-85106000D02*
X111115000Y-87106000D01*
X103749000Y-86852000D02*
X102499000Y-86852000D01*
X103749000Y-84852000D02*
X103749000Y-86852000D01*
X102499000Y-84852000D02*
X103749000Y-84852000D01*
X102499000Y-86852000D02*
X102499000Y-84852000D01*
X112659000Y-92218000D02*
X113909000Y-92218000D01*
X112659000Y-94218000D02*
X112659000Y-92218000D01*
X113909000Y-94218000D02*
X112659000Y-94218000D01*
X113909000Y-92218000D02*
X113909000Y-94218000D01*
X99685000Y-107934000D02*
X98435000Y-107934000D01*
X99685000Y-105934000D02*
X99685000Y-107934000D01*
X98435000Y-105934000D02*
X99685000Y-105934000D01*
X98435000Y-107934000D02*
X98435000Y-105934000D01*
X105547000Y-106188000D02*
X106797000Y-106188000D01*
X105547000Y-108188000D02*
X105547000Y-106188000D01*
X106797000Y-108188000D02*
X105547000Y-108188000D01*
X106797000Y-106188000D02*
X106797000Y-108188000D01*
X107833000Y-106188000D02*
X109083000Y-106188000D01*
X107833000Y-108188000D02*
X107833000Y-106188000D01*
X109083000Y-108188000D02*
X107833000Y-108188000D01*
X109083000Y-106188000D02*
X109083000Y-108188000D01*
X110119000Y-106188000D02*
X111369000Y-106188000D01*
X110119000Y-108188000D02*
X110119000Y-106188000D01*
X111369000Y-108188000D02*
X110119000Y-108188000D01*
X111369000Y-106188000D02*
X111369000Y-108188000D01*
X140980000Y-126635000D02*
X142230000Y-126635000D01*
X140980000Y-128635000D02*
X140980000Y-126635000D01*
X142230000Y-128635000D02*
X140980000Y-128635000D01*
X142230000Y-126635000D02*
X142230000Y-128635000D01*
X134890000Y-113020000D02*
X134890000Y-111770000D01*
X136890000Y-113020000D02*
X134890000Y-113020000D01*
X136890000Y-111770000D02*
X136890000Y-113020000D01*
X134890000Y-111770000D02*
X136890000Y-111770000D01*
X134890000Y-115560000D02*
X134890000Y-114310000D01*
X136890000Y-115560000D02*
X134890000Y-115560000D01*
X136890000Y-114310000D02*
X136890000Y-115560000D01*
X134890000Y-114310000D02*
X136890000Y-114310000D01*
X134890000Y-118100000D02*
X134890000Y-116850000D01*
X136890000Y-118100000D02*
X134890000Y-118100000D01*
X136890000Y-116850000D02*
X136890000Y-118100000D01*
X134890000Y-116850000D02*
X136890000Y-116850000D01*
X151140000Y-87265000D02*
X152390000Y-87265000D01*
X151140000Y-89265000D02*
X151140000Y-87265000D01*
X152390000Y-89265000D02*
X151140000Y-89265000D01*
X152390000Y-87265000D02*
X152390000Y-89265000D01*
X134890000Y-90160000D02*
X134890000Y-88910000D01*
X136890000Y-90160000D02*
X134890000Y-90160000D01*
X136890000Y-88910000D02*
X136890000Y-90160000D01*
X134890000Y-88910000D02*
X136890000Y-88910000D01*
X134890000Y-92700000D02*
X134890000Y-91450000D01*
X136890000Y-92700000D02*
X134890000Y-92700000D01*
X136890000Y-91450000D02*
X136890000Y-92700000D01*
X134890000Y-91450000D02*
X136890000Y-91450000D01*
X134890000Y-95240000D02*
X134890000Y-93990000D01*
X136890000Y-95240000D02*
X134890000Y-95240000D01*
X136890000Y-93990000D02*
X136890000Y-95240000D01*
X134890000Y-93990000D02*
X136890000Y-93990000D01*
X134890000Y-97780000D02*
X134890000Y-96530000D01*
X136890000Y-97780000D02*
X134890000Y-97780000D01*
X136890000Y-96530000D02*
X136890000Y-97780000D01*
X134890000Y-96530000D02*
X136890000Y-96530000D01*
X134890000Y-100320000D02*
X134890000Y-99070000D01*
X136890000Y-100320000D02*
X134890000Y-100320000D01*
X136890000Y-99070000D02*
X136890000Y-100320000D01*
X134890000Y-99070000D02*
X136890000Y-99070000D01*
X118475000Y-122565000D02*
X118475000Y-123815000D01*
X116475000Y-122565000D02*
X118475000Y-122565000D01*
X116475000Y-123815000D02*
X116475000Y-122565000D01*
X118475000Y-123815000D02*
X116475000Y-123815000D01*
X116830000Y-120380000D02*
X115580000Y-120380000D01*
X116830000Y-118380000D02*
X116830000Y-120380000D01*
X115580000Y-118380000D02*
X116830000Y-118380000D01*
X115580000Y-120380000D02*
X115580000Y-118380000D01*
X110760000Y-128895000D02*
X110760000Y-127645000D01*
X112760000Y-128895000D02*
X110760000Y-128895000D01*
X112760000Y-127645000D02*
X112760000Y-128895000D01*
X110760000Y-127645000D02*
X112760000Y-127645000D01*
X118100000Y-128000000D02*
X116850000Y-128000000D01*
X118100000Y-126000000D02*
X118100000Y-128000000D01*
X116850000Y-126000000D02*
X118100000Y-126000000D01*
X116850000Y-128000000D02*
X116850000Y-126000000D01*
X164475000Y-92345000D02*
X165725000Y-92345000D01*
X164475000Y-94345000D02*
X164475000Y-92345000D01*
X165725000Y-94345000D02*
X164475000Y-94345000D01*
X165725000Y-92345000D02*
X165725000Y-94345000D01*
X167015000Y-92345000D02*
X168265000Y-92345000D01*
X167015000Y-94345000D02*
X167015000Y-92345000D01*
X168265000Y-94345000D02*
X167015000Y-94345000D01*
X168265000Y-92345000D02*
X168265000Y-94345000D01*
X169555000Y-92345000D02*
X170805000Y-92345000D01*
X169555000Y-94345000D02*
X169555000Y-92345000D01*
X170805000Y-94345000D02*
X169555000Y-94345000D01*
X170805000Y-92345000D02*
X170805000Y-94345000D01*
X172095000Y-92345000D02*
X173345000Y-92345000D01*
X172095000Y-94345000D02*
X172095000Y-92345000D01*
X173345000Y-94345000D02*
X172095000Y-94345000D01*
X173345000Y-92345000D02*
X173345000Y-94345000D01*
X174635000Y-92345000D02*
X175885000Y-92345000D01*
X174635000Y-94345000D02*
X174635000Y-92345000D01*
X175885000Y-94345000D02*
X174635000Y-94345000D01*
X175885000Y-92345000D02*
X175885000Y-94345000D01*
X177175000Y-92345000D02*
X178425000Y-92345000D01*
X177175000Y-94345000D02*
X177175000Y-92345000D01*
X178425000Y-94345000D02*
X177175000Y-94345000D01*
X178425000Y-92345000D02*
X178425000Y-94345000D01*
X179715000Y-92345000D02*
X180965000Y-92345000D01*
X179715000Y-94345000D02*
X179715000Y-92345000D01*
X180965000Y-94345000D02*
X179715000Y-94345000D01*
X180965000Y-92345000D02*
X180965000Y-94345000D01*
X182255000Y-92345000D02*
X183505000Y-92345000D01*
X182255000Y-94345000D02*
X182255000Y-92345000D01*
X183505000Y-94345000D02*
X182255000Y-94345000D01*
X183505000Y-92345000D02*
X183505000Y-94345000D01*
X184795000Y-92345000D02*
X186045000Y-92345000D01*
X184795000Y-94345000D02*
X184795000Y-92345000D01*
X186045000Y-94345000D02*
X184795000Y-94345000D01*
X186045000Y-92345000D02*
X186045000Y-94345000D01*
X187335000Y-92345000D02*
X188585000Y-92345000D01*
X187335000Y-94345000D02*
X187335000Y-92345000D01*
X188585000Y-94345000D02*
X187335000Y-94345000D01*
X188585000Y-92345000D02*
X188585000Y-94345000D01*
X189875000Y-92345000D02*
X191125000Y-92345000D01*
X189875000Y-94345000D02*
X189875000Y-92345000D01*
X191125000Y-94345000D02*
X189875000Y-94345000D01*
X191125000Y-92345000D02*
X191125000Y-94345000D01*
X106289000Y-82026000D02*
X105039000Y-82026000D01*
X106289000Y-80026000D02*
X106289000Y-82026000D01*
X105039000Y-80026000D02*
X106289000Y-80026000D01*
X105039000Y-82026000D02*
X105039000Y-80026000D01*
X108220000Y-83175000D02*
X108220000Y-81925000D01*
X110220000Y-83175000D02*
X108220000Y-83175000D01*
X110220000Y-81925000D02*
X110220000Y-83175000D01*
X108220000Y-81925000D02*
X110220000Y-81925000D01*
X109966000Y-90815000D02*
X109966000Y-92065000D01*
X107966000Y-90815000D02*
X109966000Y-90815000D01*
X107966000Y-92065000D02*
X107966000Y-90815000D01*
X109966000Y-92065000D02*
X107966000Y-92065000D01*
X95895000Y-105934000D02*
X97145000Y-105934000D01*
X95895000Y-107934000D02*
X95895000Y-105934000D01*
X97145000Y-107934000D02*
X95895000Y-107934000D01*
X97145000Y-105934000D02*
X97145000Y-107934000D01*
X97044000Y-112385000D02*
X97044000Y-111135000D01*
X99044000Y-112385000D02*
X97044000Y-112385000D01*
X99044000Y-111135000D02*
X99044000Y-112385000D01*
X97044000Y-111135000D02*
X99044000Y-111135000D01*
X105293000Y-111014000D02*
X106543000Y-111014000D01*
X105293000Y-113014000D02*
X105293000Y-111014000D01*
X106543000Y-113014000D02*
X105293000Y-113014000D01*
X106543000Y-111014000D02*
X106543000Y-113014000D01*
X103007000Y-113046000D02*
X104257000Y-113046000D01*
X103007000Y-115046000D02*
X103007000Y-113046000D01*
X104257000Y-115046000D02*
X103007000Y-115046000D01*
X104257000Y-113046000D02*
X104257000Y-115046000D01*
D12*
X103367000Y-107450000D02*
G75*
G03X103367000Y-107450000I-1000J0D01*
G01*
X103367000Y-108450000D02*
G75*
G03X103367000Y-108450000I-1000J0D01*
G01*
X101867000Y-108450000D02*
G75*
G03X101867000Y-108450000I-1000J0D01*
G01*
D10*
X163967000Y-98695000D02*
X165217000Y-98695000D01*
X163967000Y-100695000D02*
X163967000Y-98695000D01*
X165217000Y-100695000D02*
X163967000Y-100695000D01*
X165217000Y-98695000D02*
X165217000Y-100695000D01*
X167523000Y-105426000D02*
X168773000Y-105426000D01*
X167523000Y-107426000D02*
X167523000Y-105426000D01*
X168773000Y-107426000D02*
X167523000Y-107426000D01*
X168773000Y-105426000D02*
X168773000Y-107426000D01*
X171079000Y-98695000D02*
X172329000Y-98695000D01*
X171079000Y-100695000D02*
X171079000Y-98695000D01*
X172329000Y-100695000D02*
X171079000Y-100695000D01*
X172329000Y-98695000D02*
X172329000Y-100695000D01*
X174635000Y-105426000D02*
X175885000Y-105426000D01*
X174635000Y-107426000D02*
X174635000Y-105426000D01*
X175885000Y-107426000D02*
X174635000Y-107426000D01*
X175885000Y-105426000D02*
X175885000Y-107426000D01*
X178191000Y-98695000D02*
X179441000Y-98695000D01*
X178191000Y-100695000D02*
X178191000Y-98695000D01*
X179441000Y-100695000D02*
X178191000Y-100695000D01*
X179441000Y-98695000D02*
X179441000Y-100695000D01*
X181747000Y-105426000D02*
X182997000Y-105426000D01*
X181747000Y-107426000D02*
X181747000Y-105426000D01*
X182997000Y-107426000D02*
X181747000Y-107426000D01*
X182997000Y-105426000D02*
X182997000Y-107426000D01*
X185303000Y-98695000D02*
X186553000Y-98695000D01*
X185303000Y-100695000D02*
X185303000Y-98695000D01*
X186553000Y-100695000D02*
X185303000Y-100695000D01*
X186553000Y-98695000D02*
X186553000Y-100695000D01*
X188859000Y-105426000D02*
X190109000Y-105426000D01*
X188859000Y-107426000D02*
X188859000Y-105426000D01*
X190109000Y-107426000D02*
X188859000Y-107426000D01*
X190109000Y-105426000D02*
X190109000Y-107426000D01*
X192415000Y-98695000D02*
X193665000Y-98695000D01*
X192415000Y-100695000D02*
X192415000Y-98695000D01*
X193665000Y-100695000D02*
X192415000Y-100695000D01*
X193665000Y-98695000D02*
X193665000Y-100695000D01*
X193685000Y-112030000D02*
X194935000Y-112030000D01*
X193685000Y-114030000D02*
X193685000Y-112030000D01*
X194935000Y-114030000D02*
X193685000Y-114030000D01*
X194935000Y-112030000D02*
X194935000Y-114030000D01*
X96769066Y-123825000D02*
G75*
G03X96769066Y-123825000I-2154066J0D01*
G01*
D11*
X109054000Y-93546000D02*
X107354000Y-93546000D01*
X107354000Y-96446000D02*
X109054000Y-96446000D01*
X109054000Y-96446000D02*
X109054000Y-93546000D01*
X107354000Y-93546000D02*
X107354000Y-96446000D01*
D10*
X105780000Y-84952000D02*
X106430000Y-84302000D01*
X107580000Y-84302000D02*
X106430000Y-84302000D01*
X105780000Y-84952000D02*
X105780000Y-87402000D01*
X107580000Y-87402000D02*
X105780000Y-87402000D01*
X107580000Y-84302000D02*
X107580000Y-87402000D01*
X89107000Y-99409000D02*
X90703400Y-99409000D01*
X90703400Y-95409000D02*
X89107000Y-95409000D01*
X88107000Y-97409000D02*
X88107000Y-95909000D01*
X88107000Y-97409000D02*
X88107000Y-98909000D01*
X88107000Y-98909000D02*
X89107000Y-98909000D01*
X88107000Y-95909000D02*
X89107000Y-95909000D01*
X86607000Y-97409000D02*
G75*
G03X88107000Y-98909000I1500000J0D01*
G01*
X88107000Y-95909000D02*
G75*
G03X86607000Y-97409000I0J-1500000D01*
G01*
X89107000Y-95409000D02*
X89107000Y-99409000D01*
D11*
X157257858Y-91082381D02*
X156686429Y-91082381D01*
X156972143Y-91082381D02*
X156972143Y-90082381D01*
X156876905Y-90225238D01*
X156781667Y-90320476D01*
X156686429Y-90368095D01*
X157686429Y-90415714D02*
X157686429Y-91415714D01*
X157686429Y-90463333D02*
X157781667Y-90415714D01*
X157972144Y-90415714D01*
X158067382Y-90463333D01*
X158115001Y-90510952D01*
X158162620Y-90606190D01*
X158162620Y-90891905D01*
X158115001Y-90987143D01*
X158067382Y-91034762D01*
X157972144Y-91082381D01*
X157781667Y-91082381D01*
X157686429Y-91034762D01*
X158591191Y-91082381D02*
X158591191Y-90415714D01*
X158591191Y-90082381D02*
X158543572Y-90130000D01*
X158591191Y-90177619D01*
X158638810Y-90130000D01*
X158591191Y-90082381D01*
X158591191Y-90177619D01*
X159067381Y-90415714D02*
X159067381Y-91082381D01*
X159067381Y-90510952D02*
X159115000Y-90463333D01*
X159210238Y-90415714D01*
X159353096Y-90415714D01*
X159448334Y-90463333D01*
X159495953Y-90558571D01*
X159495953Y-91082381D01*
X192817858Y-127277381D02*
X192246429Y-127277381D01*
X192532143Y-127277381D02*
X192532143Y-126277381D01*
X192436905Y-126420238D01*
X192341667Y-126515476D01*
X192246429Y-126563095D01*
X193246429Y-126610714D02*
X193246429Y-127610714D01*
X193246429Y-126658333D02*
X193341667Y-126610714D01*
X193532144Y-126610714D01*
X193627382Y-126658333D01*
X193675001Y-126705952D01*
X193722620Y-126801190D01*
X193722620Y-127086905D01*
X193675001Y-127182143D01*
X193627382Y-127229762D01*
X193532144Y-127277381D01*
X193341667Y-127277381D01*
X193246429Y-127229762D01*
X194151191Y-127277381D02*
X194151191Y-126610714D01*
X194151191Y-126277381D02*
X194103572Y-126325000D01*
X194151191Y-126372619D01*
X194198810Y-126325000D01*
X194151191Y-126277381D01*
X194151191Y-126372619D01*
X194627381Y-126610714D02*
X194627381Y-127277381D01*
X194627381Y-126705952D02*
X194675000Y-126658333D01*
X194770238Y-126610714D01*
X194913096Y-126610714D01*
X195008334Y-126658333D01*
X195055953Y-126753571D01*
X195055953Y-127277381D01*
X167833143Y-129547428D02*
X167880762Y-129595047D01*
X167928381Y-129737904D01*
X167928381Y-129833142D01*
X167880762Y-129976000D01*
X167785524Y-130071238D01*
X167690286Y-130118857D01*
X167499810Y-130166476D01*
X167356952Y-130166476D01*
X167166476Y-130118857D01*
X167071238Y-130071238D01*
X166976000Y-129976000D01*
X166928381Y-129833142D01*
X166928381Y-129737904D01*
X166976000Y-129595047D01*
X167023619Y-129547428D01*
X167928381Y-129118857D02*
X166928381Y-129118857D01*
X166928381Y-128880762D01*
X166976000Y-128737904D01*
X167071238Y-128642666D01*
X167166476Y-128595047D01*
X167356952Y-128547428D01*
X167499810Y-128547428D01*
X167690286Y-128595047D01*
X167785524Y-128642666D01*
X167880762Y-128737904D01*
X167928381Y-128880762D01*
X167928381Y-129118857D01*
X166928381Y-128214095D02*
X166928381Y-127547428D01*
X167928381Y-127976000D01*
X167261714Y-126737904D02*
X167928381Y-126737904D01*
X166880762Y-126976000D02*
X167595048Y-127214095D01*
X167595048Y-126595047D01*
X167928381Y-126214095D02*
X166928381Y-126214095D01*
X167404571Y-126214095D02*
X167404571Y-125642666D01*
X167928381Y-125642666D02*
X166928381Y-125642666D01*
X167833143Y-124595047D02*
X167880762Y-124642666D01*
X167928381Y-124785523D01*
X167928381Y-124880761D01*
X167880762Y-125023619D01*
X167785524Y-125118857D01*
X167690286Y-125166476D01*
X167499810Y-125214095D01*
X167356952Y-125214095D01*
X167166476Y-125166476D01*
X167071238Y-125118857D01*
X166976000Y-125023619D01*
X166928381Y-124880761D01*
X166928381Y-124785523D01*
X166976000Y-124642666D01*
X167023619Y-124595047D01*
X167261714Y-123737904D02*
X167928381Y-123737904D01*
X166880762Y-123976000D02*
X167595048Y-124214095D01*
X167595048Y-123595047D01*
X166928381Y-123023619D02*
X166928381Y-122928380D01*
X166976000Y-122833142D01*
X167023619Y-122785523D01*
X167118857Y-122737904D01*
X167309333Y-122690285D01*
X167547429Y-122690285D01*
X167737905Y-122737904D01*
X167833143Y-122785523D01*
X167880762Y-122833142D01*
X167928381Y-122928380D01*
X167928381Y-123023619D01*
X167880762Y-123118857D01*
X167833143Y-123166476D01*
X167737905Y-123214095D01*
X167547429Y-123261714D01*
X167309333Y-123261714D01*
X167118857Y-123214095D01*
X167023619Y-123166476D01*
X166976000Y-123118857D01*
X166928381Y-123023619D01*
X166928381Y-121833142D02*
X166928381Y-122023619D01*
X166976000Y-122118857D01*
X167023619Y-122166476D01*
X167166476Y-122261714D01*
X167356952Y-122309333D01*
X167737905Y-122309333D01*
X167833143Y-122261714D01*
X167880762Y-122214095D01*
X167928381Y-122118857D01*
X167928381Y-121928380D01*
X167880762Y-121833142D01*
X167833143Y-121785523D01*
X167737905Y-121737904D01*
X167499810Y-121737904D01*
X167404571Y-121785523D01*
X167356952Y-121833142D01*
X167309333Y-121928380D01*
X167309333Y-122118857D01*
X167356952Y-122214095D01*
X167404571Y-122261714D01*
X167499810Y-122309333D01*
X166928381Y-121404571D02*
X166928381Y-120737904D01*
X167928381Y-121166476D01*
X154292619Y-100448810D02*
X154245000Y-100401191D01*
X154197381Y-100305953D01*
X154197381Y-100067857D01*
X154245000Y-99972619D01*
X154292619Y-99925000D01*
X154387857Y-99877381D01*
X154483095Y-99877381D01*
X154625952Y-99925000D01*
X155197381Y-100496429D01*
X155197381Y-99877381D01*
X154292619Y-99496429D02*
X154245000Y-99448810D01*
X154197381Y-99353572D01*
X154197381Y-99115476D01*
X154245000Y-99020238D01*
X154292619Y-98972619D01*
X154387857Y-98925000D01*
X154483095Y-98925000D01*
X154625952Y-98972619D01*
X155197381Y-99544048D01*
X155197381Y-98925000D01*
X154530714Y-97734524D02*
X155530714Y-97734524D01*
X154578333Y-97734524D02*
X154530714Y-97639286D01*
X154530714Y-97448809D01*
X154578333Y-97353571D01*
X154625952Y-97305952D01*
X154721190Y-97258333D01*
X155006905Y-97258333D01*
X155102143Y-97305952D01*
X155149762Y-97353571D01*
X155197381Y-97448809D01*
X155197381Y-97639286D01*
X155149762Y-97734524D01*
X154673571Y-96496428D02*
X154673571Y-96829762D01*
X155197381Y-96829762D02*
X154197381Y-96829762D01*
X154197381Y-96353571D01*
X98607571Y-89756763D02*
X98655190Y-89613906D01*
X98702810Y-89566287D01*
X98798048Y-89518668D01*
X98940905Y-89518668D01*
X99036143Y-89566287D01*
X99083762Y-89613906D01*
X99131381Y-89709144D01*
X99131381Y-90090097D01*
X98131381Y-90090097D01*
X98131381Y-89756763D01*
X98179000Y-89661525D01*
X98226619Y-89613906D01*
X98321857Y-89566287D01*
X98417095Y-89566287D01*
X98512333Y-89613906D01*
X98559952Y-89661525D01*
X98607571Y-89756763D01*
X98607571Y-90090097D01*
X99131381Y-88661525D02*
X98607571Y-88661525D01*
X98512333Y-88709144D01*
X98464714Y-88804382D01*
X98464714Y-88994859D01*
X98512333Y-89090097D01*
X99083762Y-88661525D02*
X99131381Y-88756763D01*
X99131381Y-88994859D01*
X99083762Y-89090097D01*
X98988524Y-89137716D01*
X98893286Y-89137716D01*
X98798048Y-89090097D01*
X98750429Y-88994859D01*
X98750429Y-88756763D01*
X98702810Y-88661525D01*
X98464714Y-88328192D02*
X98464714Y-87947240D01*
X98131381Y-88185335D02*
X98988524Y-88185335D01*
X99083762Y-88137716D01*
X99131381Y-88042478D01*
X99131381Y-87947240D01*
X98464714Y-87756763D02*
X98464714Y-87375811D01*
X98131381Y-87613906D02*
X98988524Y-87613906D01*
X99083762Y-87566287D01*
X99131381Y-87471049D01*
X99131381Y-87375811D01*
X99083762Y-86661524D02*
X99131381Y-86756762D01*
X99131381Y-86947239D01*
X99083762Y-87042477D01*
X98988524Y-87090096D01*
X98607571Y-87090096D01*
X98512333Y-87042477D01*
X98464714Y-86947239D01*
X98464714Y-86756762D01*
X98512333Y-86661524D01*
X98607571Y-86613905D01*
X98702810Y-86613905D01*
X98798048Y-87090096D01*
X99131381Y-86185334D02*
X98464714Y-86185334D01*
X98655190Y-86185334D02*
X98559952Y-86137715D01*
X98512333Y-86090096D01*
X98464714Y-85994858D01*
X98464714Y-85899619D01*
X98464714Y-85661524D02*
X99131381Y-85423429D01*
X98464714Y-85185333D02*
X99131381Y-85423429D01*
X99369476Y-85518667D01*
X99417095Y-85566286D01*
X99464714Y-85661524D01*
X99226619Y-85042476D02*
X99226619Y-84280571D01*
X99036143Y-83471047D02*
X99083762Y-83518666D01*
X99131381Y-83661523D01*
X99131381Y-83756761D01*
X99083762Y-83899619D01*
X98988524Y-83994857D01*
X98893286Y-84042476D01*
X98702810Y-84090095D01*
X98559952Y-84090095D01*
X98369476Y-84042476D01*
X98274238Y-83994857D01*
X98179000Y-83899619D01*
X98131381Y-83756761D01*
X98131381Y-83661523D01*
X98179000Y-83518666D01*
X98226619Y-83471047D01*
X99083762Y-82661523D02*
X99131381Y-82756761D01*
X99131381Y-82947238D01*
X99083762Y-83042476D01*
X98988524Y-83090095D01*
X98607571Y-83090095D01*
X98512333Y-83042476D01*
X98464714Y-82947238D01*
X98464714Y-82756761D01*
X98512333Y-82661523D01*
X98607571Y-82613904D01*
X98702810Y-82613904D01*
X98798048Y-83090095D01*
X99131381Y-82042476D02*
X99083762Y-82137714D01*
X98988524Y-82185333D01*
X98131381Y-82185333D01*
X99131381Y-81518666D02*
X99083762Y-81613904D01*
X98988524Y-81661523D01*
X98131381Y-81661523D01*
X107601143Y-122880381D02*
X107601143Y-121880381D01*
X107934477Y-122594667D01*
X108267810Y-121880381D01*
X108267810Y-122880381D01*
X108696381Y-122594667D02*
X109172572Y-122594667D01*
X108601143Y-122880381D02*
X108934476Y-121880381D01*
X109267810Y-122880381D01*
X109505905Y-121880381D02*
X110172572Y-122880381D01*
X110172572Y-121880381D02*
X109505905Y-122880381D01*
X110982096Y-122213714D02*
X110982096Y-122880381D01*
X110744000Y-121832762D02*
X110505905Y-122547048D01*
X111124953Y-122547048D01*
X111458286Y-121975619D02*
X111505905Y-121928000D01*
X111601143Y-121880381D01*
X111839239Y-121880381D01*
X111934477Y-121928000D01*
X111982096Y-121975619D01*
X112029715Y-122070857D01*
X112029715Y-122166095D01*
X111982096Y-122308952D01*
X111410667Y-122880381D01*
X112029715Y-122880381D01*
X112363048Y-121880381D02*
X112982096Y-121880381D01*
X112648762Y-122261333D01*
X112791620Y-122261333D01*
X112886858Y-122308952D01*
X112934477Y-122356571D01*
X112982096Y-122451810D01*
X112982096Y-122689905D01*
X112934477Y-122785143D01*
X112886858Y-122832762D01*
X112791620Y-122880381D01*
X112505905Y-122880381D01*
X112410667Y-122832762D01*
X112363048Y-122785143D01*
X113553524Y-122308952D02*
X113458286Y-122261333D01*
X113410667Y-122213714D01*
X113363048Y-122118476D01*
X113363048Y-122070857D01*
X113410667Y-121975619D01*
X113458286Y-121928000D01*
X113553524Y-121880381D01*
X113744001Y-121880381D01*
X113839239Y-121928000D01*
X113886858Y-121975619D01*
X113934477Y-122070857D01*
X113934477Y-122118476D01*
X113886858Y-122213714D01*
X113839239Y-122261333D01*
X113744001Y-122308952D01*
X113553524Y-122308952D01*
X113458286Y-122356571D01*
X113410667Y-122404190D01*
X113363048Y-122499429D01*
X113363048Y-122689905D01*
X113410667Y-122785143D01*
X113458286Y-122832762D01*
X113553524Y-122880381D01*
X113744001Y-122880381D01*
X113839239Y-122832762D01*
X113886858Y-122785143D01*
X113934477Y-122689905D01*
X113934477Y-122499429D01*
X113886858Y-122404190D01*
X113839239Y-122356571D01*
X113744001Y-122308952D01*
X158372381Y-116839525D02*
X157372381Y-116839525D01*
X157372381Y-116601430D01*
X157420000Y-116458572D01*
X157515238Y-116363334D01*
X157610476Y-116315715D01*
X157800952Y-116268096D01*
X157943810Y-116268096D01*
X158134286Y-116315715D01*
X158229524Y-116363334D01*
X158324762Y-116458572D01*
X158372381Y-116601430D01*
X158372381Y-116839525D01*
X158467619Y-116077620D02*
X158467619Y-115315715D01*
X158324762Y-115125239D02*
X158372381Y-114982382D01*
X158372381Y-114744286D01*
X158324762Y-114649048D01*
X158277143Y-114601429D01*
X158181905Y-114553810D01*
X158086667Y-114553810D01*
X157991429Y-114601429D01*
X157943810Y-114649048D01*
X157896190Y-114744286D01*
X157848571Y-114934763D01*
X157800952Y-115030001D01*
X157753333Y-115077620D01*
X157658095Y-115125239D01*
X157562857Y-115125239D01*
X157467619Y-115077620D01*
X157420000Y-115030001D01*
X157372381Y-114934763D01*
X157372381Y-114696667D01*
X157420000Y-114553810D01*
X158324762Y-113696667D02*
X158372381Y-113791905D01*
X158372381Y-113982382D01*
X158324762Y-114077620D01*
X158277143Y-114125239D01*
X158181905Y-114172858D01*
X157896190Y-114172858D01*
X157800952Y-114125239D01*
X157753333Y-114077620D01*
X157705714Y-113982382D01*
X157705714Y-113791905D01*
X157753333Y-113696667D01*
X158372381Y-113268096D02*
X157372381Y-113268096D01*
X158372381Y-112839524D02*
X157848571Y-112839524D01*
X157753333Y-112887143D01*
X157705714Y-112982381D01*
X157705714Y-113125239D01*
X157753333Y-113220477D01*
X157800952Y-113268096D01*
X158372381Y-112220477D02*
X158324762Y-112315715D01*
X158277143Y-112363334D01*
X158181905Y-112410953D01*
X157896190Y-112410953D01*
X157800952Y-112363334D01*
X157753333Y-112315715D01*
X157705714Y-112220477D01*
X157705714Y-112077619D01*
X157753333Y-111982381D01*
X157800952Y-111934762D01*
X157896190Y-111887143D01*
X158181905Y-111887143D01*
X158277143Y-111934762D01*
X158324762Y-111982381D01*
X158372381Y-112077619D01*
X158372381Y-112220477D01*
X157705714Y-111601429D02*
X157705714Y-111220477D01*
X157372381Y-111458572D02*
X158229524Y-111458572D01*
X158324762Y-111410953D01*
X158372381Y-111315715D01*
X158372381Y-111220477D01*
X157705714Y-111030000D02*
X157705714Y-110649048D01*
X157372381Y-110887143D02*
X158229524Y-110887143D01*
X158324762Y-110839524D01*
X158372381Y-110744286D01*
X158372381Y-110649048D01*
X158372381Y-110315714D02*
X157372381Y-110315714D01*
X157991429Y-110220476D02*
X158372381Y-109934761D01*
X157705714Y-109934761D02*
X158086667Y-110315714D01*
X157705714Y-109601428D02*
X158372381Y-109363333D01*
X157705714Y-109125237D02*
X158372381Y-109363333D01*
X158610476Y-109458571D01*
X158658095Y-109506190D01*
X158705714Y-109601428D01*
X165992381Y-116839525D02*
X164992381Y-116839525D01*
X164992381Y-116601430D01*
X165040000Y-116458572D01*
X165135238Y-116363334D01*
X165230476Y-116315715D01*
X165420952Y-116268096D01*
X165563810Y-116268096D01*
X165754286Y-116315715D01*
X165849524Y-116363334D01*
X165944762Y-116458572D01*
X165992381Y-116601430D01*
X165992381Y-116839525D01*
X166087619Y-116077620D02*
X166087619Y-115315715D01*
X165944762Y-115125239D02*
X165992381Y-114982382D01*
X165992381Y-114744286D01*
X165944762Y-114649048D01*
X165897143Y-114601429D01*
X165801905Y-114553810D01*
X165706667Y-114553810D01*
X165611429Y-114601429D01*
X165563810Y-114649048D01*
X165516190Y-114744286D01*
X165468571Y-114934763D01*
X165420952Y-115030001D01*
X165373333Y-115077620D01*
X165278095Y-115125239D01*
X165182857Y-115125239D01*
X165087619Y-115077620D01*
X165040000Y-115030001D01*
X164992381Y-114934763D01*
X164992381Y-114696667D01*
X165040000Y-114553810D01*
X165944762Y-113696667D02*
X165992381Y-113791905D01*
X165992381Y-113982382D01*
X165944762Y-114077620D01*
X165897143Y-114125239D01*
X165801905Y-114172858D01*
X165516190Y-114172858D01*
X165420952Y-114125239D01*
X165373333Y-114077620D01*
X165325714Y-113982382D01*
X165325714Y-113791905D01*
X165373333Y-113696667D01*
X165992381Y-113268096D02*
X164992381Y-113268096D01*
X165992381Y-112839524D02*
X165468571Y-112839524D01*
X165373333Y-112887143D01*
X165325714Y-112982381D01*
X165325714Y-113125239D01*
X165373333Y-113220477D01*
X165420952Y-113268096D01*
X165992381Y-112220477D02*
X165944762Y-112315715D01*
X165897143Y-112363334D01*
X165801905Y-112410953D01*
X165516190Y-112410953D01*
X165420952Y-112363334D01*
X165373333Y-112315715D01*
X165325714Y-112220477D01*
X165325714Y-112077619D01*
X165373333Y-111982381D01*
X165420952Y-111934762D01*
X165516190Y-111887143D01*
X165801905Y-111887143D01*
X165897143Y-111934762D01*
X165944762Y-111982381D01*
X165992381Y-112077619D01*
X165992381Y-112220477D01*
X165325714Y-111601429D02*
X165325714Y-111220477D01*
X164992381Y-111458572D02*
X165849524Y-111458572D01*
X165944762Y-111410953D01*
X165992381Y-111315715D01*
X165992381Y-111220477D01*
X165325714Y-111030000D02*
X165325714Y-110649048D01*
X164992381Y-110887143D02*
X165849524Y-110887143D01*
X165944762Y-110839524D01*
X165992381Y-110744286D01*
X165992381Y-110649048D01*
X165992381Y-110315714D02*
X164992381Y-110315714D01*
X165611429Y-110220476D02*
X165992381Y-109934761D01*
X165325714Y-109934761D02*
X165706667Y-110315714D01*
X165325714Y-109601428D02*
X165992381Y-109363333D01*
X165325714Y-109125237D02*
X165992381Y-109363333D01*
X166230476Y-109458571D01*
X166278095Y-109506190D01*
X166325714Y-109601428D01*
X173612381Y-116839525D02*
X172612381Y-116839525D01*
X172612381Y-116601430D01*
X172660000Y-116458572D01*
X172755238Y-116363334D01*
X172850476Y-116315715D01*
X173040952Y-116268096D01*
X173183810Y-116268096D01*
X173374286Y-116315715D01*
X173469524Y-116363334D01*
X173564762Y-116458572D01*
X173612381Y-116601430D01*
X173612381Y-116839525D01*
X173707619Y-116077620D02*
X173707619Y-115315715D01*
X173564762Y-115125239D02*
X173612381Y-114982382D01*
X173612381Y-114744286D01*
X173564762Y-114649048D01*
X173517143Y-114601429D01*
X173421905Y-114553810D01*
X173326667Y-114553810D01*
X173231429Y-114601429D01*
X173183810Y-114649048D01*
X173136190Y-114744286D01*
X173088571Y-114934763D01*
X173040952Y-115030001D01*
X172993333Y-115077620D01*
X172898095Y-115125239D01*
X172802857Y-115125239D01*
X172707619Y-115077620D01*
X172660000Y-115030001D01*
X172612381Y-114934763D01*
X172612381Y-114696667D01*
X172660000Y-114553810D01*
X173564762Y-113696667D02*
X173612381Y-113791905D01*
X173612381Y-113982382D01*
X173564762Y-114077620D01*
X173517143Y-114125239D01*
X173421905Y-114172858D01*
X173136190Y-114172858D01*
X173040952Y-114125239D01*
X172993333Y-114077620D01*
X172945714Y-113982382D01*
X172945714Y-113791905D01*
X172993333Y-113696667D01*
X173612381Y-113268096D02*
X172612381Y-113268096D01*
X173612381Y-112839524D02*
X173088571Y-112839524D01*
X172993333Y-112887143D01*
X172945714Y-112982381D01*
X172945714Y-113125239D01*
X172993333Y-113220477D01*
X173040952Y-113268096D01*
X173612381Y-112220477D02*
X173564762Y-112315715D01*
X173517143Y-112363334D01*
X173421905Y-112410953D01*
X173136190Y-112410953D01*
X173040952Y-112363334D01*
X172993333Y-112315715D01*
X172945714Y-112220477D01*
X172945714Y-112077619D01*
X172993333Y-111982381D01*
X173040952Y-111934762D01*
X173136190Y-111887143D01*
X173421905Y-111887143D01*
X173517143Y-111934762D01*
X173564762Y-111982381D01*
X173612381Y-112077619D01*
X173612381Y-112220477D01*
X172945714Y-111601429D02*
X172945714Y-111220477D01*
X172612381Y-111458572D02*
X173469524Y-111458572D01*
X173564762Y-111410953D01*
X173612381Y-111315715D01*
X173612381Y-111220477D01*
X172945714Y-111030000D02*
X172945714Y-110649048D01*
X172612381Y-110887143D02*
X173469524Y-110887143D01*
X173564762Y-110839524D01*
X173612381Y-110744286D01*
X173612381Y-110649048D01*
X173612381Y-110315714D02*
X172612381Y-110315714D01*
X173231429Y-110220476D02*
X173612381Y-109934761D01*
X172945714Y-109934761D02*
X173326667Y-110315714D01*
X172945714Y-109601428D02*
X173612381Y-109363333D01*
X172945714Y-109125237D02*
X173612381Y-109363333D01*
X173850476Y-109458571D01*
X173898095Y-109506190D01*
X173945714Y-109601428D01*
X181232381Y-116839525D02*
X180232381Y-116839525D01*
X180232381Y-116601430D01*
X180280000Y-116458572D01*
X180375238Y-116363334D01*
X180470476Y-116315715D01*
X180660952Y-116268096D01*
X180803810Y-116268096D01*
X180994286Y-116315715D01*
X181089524Y-116363334D01*
X181184762Y-116458572D01*
X181232381Y-116601430D01*
X181232381Y-116839525D01*
X181327619Y-116077620D02*
X181327619Y-115315715D01*
X181184762Y-115125239D02*
X181232381Y-114982382D01*
X181232381Y-114744286D01*
X181184762Y-114649048D01*
X181137143Y-114601429D01*
X181041905Y-114553810D01*
X180946667Y-114553810D01*
X180851429Y-114601429D01*
X180803810Y-114649048D01*
X180756190Y-114744286D01*
X180708571Y-114934763D01*
X180660952Y-115030001D01*
X180613333Y-115077620D01*
X180518095Y-115125239D01*
X180422857Y-115125239D01*
X180327619Y-115077620D01*
X180280000Y-115030001D01*
X180232381Y-114934763D01*
X180232381Y-114696667D01*
X180280000Y-114553810D01*
X181184762Y-113696667D02*
X181232381Y-113791905D01*
X181232381Y-113982382D01*
X181184762Y-114077620D01*
X181137143Y-114125239D01*
X181041905Y-114172858D01*
X180756190Y-114172858D01*
X180660952Y-114125239D01*
X180613333Y-114077620D01*
X180565714Y-113982382D01*
X180565714Y-113791905D01*
X180613333Y-113696667D01*
X181232381Y-113268096D02*
X180232381Y-113268096D01*
X181232381Y-112839524D02*
X180708571Y-112839524D01*
X180613333Y-112887143D01*
X180565714Y-112982381D01*
X180565714Y-113125239D01*
X180613333Y-113220477D01*
X180660952Y-113268096D01*
X181232381Y-112220477D02*
X181184762Y-112315715D01*
X181137143Y-112363334D01*
X181041905Y-112410953D01*
X180756190Y-112410953D01*
X180660952Y-112363334D01*
X180613333Y-112315715D01*
X180565714Y-112220477D01*
X180565714Y-112077619D01*
X180613333Y-111982381D01*
X180660952Y-111934762D01*
X180756190Y-111887143D01*
X181041905Y-111887143D01*
X181137143Y-111934762D01*
X181184762Y-111982381D01*
X181232381Y-112077619D01*
X181232381Y-112220477D01*
X180565714Y-111601429D02*
X180565714Y-111220477D01*
X180232381Y-111458572D02*
X181089524Y-111458572D01*
X181184762Y-111410953D01*
X181232381Y-111315715D01*
X181232381Y-111220477D01*
X180565714Y-111030000D02*
X180565714Y-110649048D01*
X180232381Y-110887143D02*
X181089524Y-110887143D01*
X181184762Y-110839524D01*
X181232381Y-110744286D01*
X181232381Y-110649048D01*
X181232381Y-110315714D02*
X180232381Y-110315714D01*
X180851429Y-110220476D02*
X181232381Y-109934761D01*
X180565714Y-109934761D02*
X180946667Y-110315714D01*
X180565714Y-109601428D02*
X181232381Y-109363333D01*
X180565714Y-109125237D02*
X181232381Y-109363333D01*
X181470476Y-109458571D01*
X181518095Y-109506190D01*
X181565714Y-109601428D01*
X188852381Y-116839525D02*
X187852381Y-116839525D01*
X187852381Y-116601430D01*
X187900000Y-116458572D01*
X187995238Y-116363334D01*
X188090476Y-116315715D01*
X188280952Y-116268096D01*
X188423810Y-116268096D01*
X188614286Y-116315715D01*
X188709524Y-116363334D01*
X188804762Y-116458572D01*
X188852381Y-116601430D01*
X188852381Y-116839525D01*
X188947619Y-116077620D02*
X188947619Y-115315715D01*
X188804762Y-115125239D02*
X188852381Y-114982382D01*
X188852381Y-114744286D01*
X188804762Y-114649048D01*
X188757143Y-114601429D01*
X188661905Y-114553810D01*
X188566667Y-114553810D01*
X188471429Y-114601429D01*
X188423810Y-114649048D01*
X188376190Y-114744286D01*
X188328571Y-114934763D01*
X188280952Y-115030001D01*
X188233333Y-115077620D01*
X188138095Y-115125239D01*
X188042857Y-115125239D01*
X187947619Y-115077620D01*
X187900000Y-115030001D01*
X187852381Y-114934763D01*
X187852381Y-114696667D01*
X187900000Y-114553810D01*
X188804762Y-113696667D02*
X188852381Y-113791905D01*
X188852381Y-113982382D01*
X188804762Y-114077620D01*
X188757143Y-114125239D01*
X188661905Y-114172858D01*
X188376190Y-114172858D01*
X188280952Y-114125239D01*
X188233333Y-114077620D01*
X188185714Y-113982382D01*
X188185714Y-113791905D01*
X188233333Y-113696667D01*
X188852381Y-113268096D02*
X187852381Y-113268096D01*
X188852381Y-112839524D02*
X188328571Y-112839524D01*
X188233333Y-112887143D01*
X188185714Y-112982381D01*
X188185714Y-113125239D01*
X188233333Y-113220477D01*
X188280952Y-113268096D01*
X188852381Y-112220477D02*
X188804762Y-112315715D01*
X188757143Y-112363334D01*
X188661905Y-112410953D01*
X188376190Y-112410953D01*
X188280952Y-112363334D01*
X188233333Y-112315715D01*
X188185714Y-112220477D01*
X188185714Y-112077619D01*
X188233333Y-111982381D01*
X188280952Y-111934762D01*
X188376190Y-111887143D01*
X188661905Y-111887143D01*
X188757143Y-111934762D01*
X188804762Y-111982381D01*
X188852381Y-112077619D01*
X188852381Y-112220477D01*
X188185714Y-111601429D02*
X188185714Y-111220477D01*
X187852381Y-111458572D02*
X188709524Y-111458572D01*
X188804762Y-111410953D01*
X188852381Y-111315715D01*
X188852381Y-111220477D01*
X188185714Y-111030000D02*
X188185714Y-110649048D01*
X187852381Y-110887143D02*
X188709524Y-110887143D01*
X188804762Y-110839524D01*
X188852381Y-110744286D01*
X188852381Y-110649048D01*
X188852381Y-110315714D02*
X187852381Y-110315714D01*
X188471429Y-110220476D02*
X188852381Y-109934761D01*
X188185714Y-109934761D02*
X188566667Y-110315714D01*
X188185714Y-109601428D02*
X188852381Y-109363333D01*
X188185714Y-109125237D02*
X188852381Y-109363333D01*
X189090476Y-109458571D01*
X189138095Y-109506190D01*
X189185714Y-109601428D01*
X162182381Y-116839525D02*
X161182381Y-116839525D01*
X161182381Y-116601430D01*
X161230000Y-116458572D01*
X161325238Y-116363334D01*
X161420476Y-116315715D01*
X161610952Y-116268096D01*
X161753810Y-116268096D01*
X161944286Y-116315715D01*
X162039524Y-116363334D01*
X162134762Y-116458572D01*
X162182381Y-116601430D01*
X162182381Y-116839525D01*
X162277619Y-116077620D02*
X162277619Y-115315715D01*
X162134762Y-115125239D02*
X162182381Y-114982382D01*
X162182381Y-114744286D01*
X162134762Y-114649048D01*
X162087143Y-114601429D01*
X161991905Y-114553810D01*
X161896667Y-114553810D01*
X161801429Y-114601429D01*
X161753810Y-114649048D01*
X161706190Y-114744286D01*
X161658571Y-114934763D01*
X161610952Y-115030001D01*
X161563333Y-115077620D01*
X161468095Y-115125239D01*
X161372857Y-115125239D01*
X161277619Y-115077620D01*
X161230000Y-115030001D01*
X161182381Y-114934763D01*
X161182381Y-114696667D01*
X161230000Y-114553810D01*
X162134762Y-113696667D02*
X162182381Y-113791905D01*
X162182381Y-113982382D01*
X162134762Y-114077620D01*
X162087143Y-114125239D01*
X161991905Y-114172858D01*
X161706190Y-114172858D01*
X161610952Y-114125239D01*
X161563333Y-114077620D01*
X161515714Y-113982382D01*
X161515714Y-113791905D01*
X161563333Y-113696667D01*
X162182381Y-113268096D02*
X161182381Y-113268096D01*
X162182381Y-112839524D02*
X161658571Y-112839524D01*
X161563333Y-112887143D01*
X161515714Y-112982381D01*
X161515714Y-113125239D01*
X161563333Y-113220477D01*
X161610952Y-113268096D01*
X162182381Y-112220477D02*
X162134762Y-112315715D01*
X162087143Y-112363334D01*
X161991905Y-112410953D01*
X161706190Y-112410953D01*
X161610952Y-112363334D01*
X161563333Y-112315715D01*
X161515714Y-112220477D01*
X161515714Y-112077619D01*
X161563333Y-111982381D01*
X161610952Y-111934762D01*
X161706190Y-111887143D01*
X161991905Y-111887143D01*
X162087143Y-111934762D01*
X162134762Y-111982381D01*
X162182381Y-112077619D01*
X162182381Y-112220477D01*
X161515714Y-111601429D02*
X161515714Y-111220477D01*
X161182381Y-111458572D02*
X162039524Y-111458572D01*
X162134762Y-111410953D01*
X162182381Y-111315715D01*
X162182381Y-111220477D01*
X161515714Y-111030000D02*
X161515714Y-110649048D01*
X161182381Y-110887143D02*
X162039524Y-110887143D01*
X162134762Y-110839524D01*
X162182381Y-110744286D01*
X162182381Y-110649048D01*
X162182381Y-110315714D02*
X161182381Y-110315714D01*
X161801429Y-110220476D02*
X162182381Y-109934761D01*
X161515714Y-109934761D02*
X161896667Y-110315714D01*
X161515714Y-109601428D02*
X162182381Y-109363333D01*
X161515714Y-109125237D02*
X162182381Y-109363333D01*
X162420476Y-109458571D01*
X162468095Y-109506190D01*
X162515714Y-109601428D01*
X169802381Y-116839525D02*
X168802381Y-116839525D01*
X168802381Y-116601430D01*
X168850000Y-116458572D01*
X168945238Y-116363334D01*
X169040476Y-116315715D01*
X169230952Y-116268096D01*
X169373810Y-116268096D01*
X169564286Y-116315715D01*
X169659524Y-116363334D01*
X169754762Y-116458572D01*
X169802381Y-116601430D01*
X169802381Y-116839525D01*
X169897619Y-116077620D02*
X169897619Y-115315715D01*
X169754762Y-115125239D02*
X169802381Y-114982382D01*
X169802381Y-114744286D01*
X169754762Y-114649048D01*
X169707143Y-114601429D01*
X169611905Y-114553810D01*
X169516667Y-114553810D01*
X169421429Y-114601429D01*
X169373810Y-114649048D01*
X169326190Y-114744286D01*
X169278571Y-114934763D01*
X169230952Y-115030001D01*
X169183333Y-115077620D01*
X169088095Y-115125239D01*
X168992857Y-115125239D01*
X168897619Y-115077620D01*
X168850000Y-115030001D01*
X168802381Y-114934763D01*
X168802381Y-114696667D01*
X168850000Y-114553810D01*
X169754762Y-113696667D02*
X169802381Y-113791905D01*
X169802381Y-113982382D01*
X169754762Y-114077620D01*
X169707143Y-114125239D01*
X169611905Y-114172858D01*
X169326190Y-114172858D01*
X169230952Y-114125239D01*
X169183333Y-114077620D01*
X169135714Y-113982382D01*
X169135714Y-113791905D01*
X169183333Y-113696667D01*
X169802381Y-113268096D02*
X168802381Y-113268096D01*
X169802381Y-112839524D02*
X169278571Y-112839524D01*
X169183333Y-112887143D01*
X169135714Y-112982381D01*
X169135714Y-113125239D01*
X169183333Y-113220477D01*
X169230952Y-113268096D01*
X169802381Y-112220477D02*
X169754762Y-112315715D01*
X169707143Y-112363334D01*
X169611905Y-112410953D01*
X169326190Y-112410953D01*
X169230952Y-112363334D01*
X169183333Y-112315715D01*
X169135714Y-112220477D01*
X169135714Y-112077619D01*
X169183333Y-111982381D01*
X169230952Y-111934762D01*
X169326190Y-111887143D01*
X169611905Y-111887143D01*
X169707143Y-111934762D01*
X169754762Y-111982381D01*
X169802381Y-112077619D01*
X169802381Y-112220477D01*
X169135714Y-111601429D02*
X169135714Y-111220477D01*
X168802381Y-111458572D02*
X169659524Y-111458572D01*
X169754762Y-111410953D01*
X169802381Y-111315715D01*
X169802381Y-111220477D01*
X169135714Y-111030000D02*
X169135714Y-110649048D01*
X168802381Y-110887143D02*
X169659524Y-110887143D01*
X169754762Y-110839524D01*
X169802381Y-110744286D01*
X169802381Y-110649048D01*
X169802381Y-110315714D02*
X168802381Y-110315714D01*
X169421429Y-110220476D02*
X169802381Y-109934761D01*
X169135714Y-109934761D02*
X169516667Y-110315714D01*
X169135714Y-109601428D02*
X169802381Y-109363333D01*
X169135714Y-109125237D02*
X169802381Y-109363333D01*
X170040476Y-109458571D01*
X170088095Y-109506190D01*
X170135714Y-109601428D01*
X177422381Y-116839525D02*
X176422381Y-116839525D01*
X176422381Y-116601430D01*
X176470000Y-116458572D01*
X176565238Y-116363334D01*
X176660476Y-116315715D01*
X176850952Y-116268096D01*
X176993810Y-116268096D01*
X177184286Y-116315715D01*
X177279524Y-116363334D01*
X177374762Y-116458572D01*
X177422381Y-116601430D01*
X177422381Y-116839525D01*
X177517619Y-116077620D02*
X177517619Y-115315715D01*
X177374762Y-115125239D02*
X177422381Y-114982382D01*
X177422381Y-114744286D01*
X177374762Y-114649048D01*
X177327143Y-114601429D01*
X177231905Y-114553810D01*
X177136667Y-114553810D01*
X177041429Y-114601429D01*
X176993810Y-114649048D01*
X176946190Y-114744286D01*
X176898571Y-114934763D01*
X176850952Y-115030001D01*
X176803333Y-115077620D01*
X176708095Y-115125239D01*
X176612857Y-115125239D01*
X176517619Y-115077620D01*
X176470000Y-115030001D01*
X176422381Y-114934763D01*
X176422381Y-114696667D01*
X176470000Y-114553810D01*
X177374762Y-113696667D02*
X177422381Y-113791905D01*
X177422381Y-113982382D01*
X177374762Y-114077620D01*
X177327143Y-114125239D01*
X177231905Y-114172858D01*
X176946190Y-114172858D01*
X176850952Y-114125239D01*
X176803333Y-114077620D01*
X176755714Y-113982382D01*
X176755714Y-113791905D01*
X176803333Y-113696667D01*
X177422381Y-113268096D02*
X176422381Y-113268096D01*
X177422381Y-112839524D02*
X176898571Y-112839524D01*
X176803333Y-112887143D01*
X176755714Y-112982381D01*
X176755714Y-113125239D01*
X176803333Y-113220477D01*
X176850952Y-113268096D01*
X177422381Y-112220477D02*
X177374762Y-112315715D01*
X177327143Y-112363334D01*
X177231905Y-112410953D01*
X176946190Y-112410953D01*
X176850952Y-112363334D01*
X176803333Y-112315715D01*
X176755714Y-112220477D01*
X176755714Y-112077619D01*
X176803333Y-111982381D01*
X176850952Y-111934762D01*
X176946190Y-111887143D01*
X177231905Y-111887143D01*
X177327143Y-111934762D01*
X177374762Y-111982381D01*
X177422381Y-112077619D01*
X177422381Y-112220477D01*
X176755714Y-111601429D02*
X176755714Y-111220477D01*
X176422381Y-111458572D02*
X177279524Y-111458572D01*
X177374762Y-111410953D01*
X177422381Y-111315715D01*
X177422381Y-111220477D01*
X176755714Y-111030000D02*
X176755714Y-110649048D01*
X176422381Y-110887143D02*
X177279524Y-110887143D01*
X177374762Y-110839524D01*
X177422381Y-110744286D01*
X177422381Y-110649048D01*
X177422381Y-110315714D02*
X176422381Y-110315714D01*
X177041429Y-110220476D02*
X177422381Y-109934761D01*
X176755714Y-109934761D02*
X177136667Y-110315714D01*
X176755714Y-109601428D02*
X177422381Y-109363333D01*
X176755714Y-109125237D02*
X177422381Y-109363333D01*
X177660476Y-109458571D01*
X177708095Y-109506190D01*
X177755714Y-109601428D01*
X185042381Y-116839525D02*
X184042381Y-116839525D01*
X184042381Y-116601430D01*
X184090000Y-116458572D01*
X184185238Y-116363334D01*
X184280476Y-116315715D01*
X184470952Y-116268096D01*
X184613810Y-116268096D01*
X184804286Y-116315715D01*
X184899524Y-116363334D01*
X184994762Y-116458572D01*
X185042381Y-116601430D01*
X185042381Y-116839525D01*
X185137619Y-116077620D02*
X185137619Y-115315715D01*
X184994762Y-115125239D02*
X185042381Y-114982382D01*
X185042381Y-114744286D01*
X184994762Y-114649048D01*
X184947143Y-114601429D01*
X184851905Y-114553810D01*
X184756667Y-114553810D01*
X184661429Y-114601429D01*
X184613810Y-114649048D01*
X184566190Y-114744286D01*
X184518571Y-114934763D01*
X184470952Y-115030001D01*
X184423333Y-115077620D01*
X184328095Y-115125239D01*
X184232857Y-115125239D01*
X184137619Y-115077620D01*
X184090000Y-115030001D01*
X184042381Y-114934763D01*
X184042381Y-114696667D01*
X184090000Y-114553810D01*
X184994762Y-113696667D02*
X185042381Y-113791905D01*
X185042381Y-113982382D01*
X184994762Y-114077620D01*
X184947143Y-114125239D01*
X184851905Y-114172858D01*
X184566190Y-114172858D01*
X184470952Y-114125239D01*
X184423333Y-114077620D01*
X184375714Y-113982382D01*
X184375714Y-113791905D01*
X184423333Y-113696667D01*
X185042381Y-113268096D02*
X184042381Y-113268096D01*
X185042381Y-112839524D02*
X184518571Y-112839524D01*
X184423333Y-112887143D01*
X184375714Y-112982381D01*
X184375714Y-113125239D01*
X184423333Y-113220477D01*
X184470952Y-113268096D01*
X185042381Y-112220477D02*
X184994762Y-112315715D01*
X184947143Y-112363334D01*
X184851905Y-112410953D01*
X184566190Y-112410953D01*
X184470952Y-112363334D01*
X184423333Y-112315715D01*
X184375714Y-112220477D01*
X184375714Y-112077619D01*
X184423333Y-111982381D01*
X184470952Y-111934762D01*
X184566190Y-111887143D01*
X184851905Y-111887143D01*
X184947143Y-111934762D01*
X184994762Y-111982381D01*
X185042381Y-112077619D01*
X185042381Y-112220477D01*
X184375714Y-111601429D02*
X184375714Y-111220477D01*
X184042381Y-111458572D02*
X184899524Y-111458572D01*
X184994762Y-111410953D01*
X185042381Y-111315715D01*
X185042381Y-111220477D01*
X184375714Y-111030000D02*
X184375714Y-110649048D01*
X184042381Y-110887143D02*
X184899524Y-110887143D01*
X184994762Y-110839524D01*
X185042381Y-110744286D01*
X185042381Y-110649048D01*
X185042381Y-110315714D02*
X184042381Y-110315714D01*
X184661429Y-110220476D02*
X185042381Y-109934761D01*
X184375714Y-109934761D02*
X184756667Y-110315714D01*
X184375714Y-109601428D02*
X185042381Y-109363333D01*
X184375714Y-109125237D02*
X185042381Y-109363333D01*
X185280476Y-109458571D01*
X185328095Y-109506190D01*
X185375714Y-109601428D01*
X102362475Y-100020381D02*
X102362475Y-99020381D01*
X102600570Y-99020381D01*
X102743428Y-99068000D01*
X102838666Y-99163238D01*
X102886285Y-99258476D01*
X102933904Y-99448952D01*
X102933904Y-99591810D01*
X102886285Y-99782286D01*
X102838666Y-99877524D01*
X102743428Y-99972762D01*
X102600570Y-100020381D01*
X102362475Y-100020381D01*
X103124380Y-100115619D02*
X103886285Y-100115619D01*
X104076761Y-99972762D02*
X104219618Y-100020381D01*
X104457714Y-100020381D01*
X104552952Y-99972762D01*
X104600571Y-99925143D01*
X104648190Y-99829905D01*
X104648190Y-99734667D01*
X104600571Y-99639429D01*
X104552952Y-99591810D01*
X104457714Y-99544190D01*
X104267237Y-99496571D01*
X104171999Y-99448952D01*
X104124380Y-99401333D01*
X104076761Y-99306095D01*
X104076761Y-99210857D01*
X104124380Y-99115619D01*
X104171999Y-99068000D01*
X104267237Y-99020381D01*
X104505333Y-99020381D01*
X104648190Y-99068000D01*
X105505333Y-99972762D02*
X105410095Y-100020381D01*
X105219618Y-100020381D01*
X105124380Y-99972762D01*
X105076761Y-99925143D01*
X105029142Y-99829905D01*
X105029142Y-99544190D01*
X105076761Y-99448952D01*
X105124380Y-99401333D01*
X105219618Y-99353714D01*
X105410095Y-99353714D01*
X105505333Y-99401333D01*
X105933904Y-100020381D02*
X105933904Y-99020381D01*
X106362476Y-100020381D02*
X106362476Y-99496571D01*
X106314857Y-99401333D01*
X106219619Y-99353714D01*
X106076761Y-99353714D01*
X105981523Y-99401333D01*
X105933904Y-99448952D01*
X106981523Y-100020381D02*
X106886285Y-99972762D01*
X106838666Y-99925143D01*
X106791047Y-99829905D01*
X106791047Y-99544190D01*
X106838666Y-99448952D01*
X106886285Y-99401333D01*
X106981523Y-99353714D01*
X107124381Y-99353714D01*
X107219619Y-99401333D01*
X107267238Y-99448952D01*
X107314857Y-99544190D01*
X107314857Y-99829905D01*
X107267238Y-99925143D01*
X107219619Y-99972762D01*
X107124381Y-100020381D01*
X106981523Y-100020381D01*
X107600571Y-99353714D02*
X107981523Y-99353714D01*
X107743428Y-99020381D02*
X107743428Y-99877524D01*
X107791047Y-99972762D01*
X107886285Y-100020381D01*
X107981523Y-100020381D01*
X108172000Y-99353714D02*
X108552952Y-99353714D01*
X108314857Y-99020381D02*
X108314857Y-99877524D01*
X108362476Y-99972762D01*
X108457714Y-100020381D01*
X108552952Y-100020381D01*
X108886286Y-100020381D02*
X108886286Y-99020381D01*
X108981524Y-99639429D02*
X109267239Y-100020381D01*
X109267239Y-99353714D02*
X108886286Y-99734667D01*
X109600572Y-99353714D02*
X109838667Y-100020381D01*
X110076763Y-99353714D02*
X109838667Y-100020381D01*
X109743429Y-100258476D01*
X109695810Y-100306095D01*
X109600572Y-100353714D01*
X144946667Y-111664048D02*
X144946667Y-111187857D01*
X145232381Y-111759286D02*
X144232381Y-111425953D01*
X145232381Y-111092619D01*
X144232381Y-110902143D02*
X144232381Y-110330714D01*
X145232381Y-110616429D02*
X144232381Y-110616429D01*
X145232381Y-109997381D02*
X144232381Y-109997381D01*
X144946667Y-109664047D01*
X144232381Y-109330714D01*
X145232381Y-109330714D01*
X144708571Y-108854524D02*
X144708571Y-108521190D01*
X145232381Y-108378333D02*
X145232381Y-108854524D01*
X144232381Y-108854524D01*
X144232381Y-108378333D01*
X144280000Y-107425952D02*
X144232381Y-107521190D01*
X144232381Y-107664047D01*
X144280000Y-107806905D01*
X144375238Y-107902143D01*
X144470476Y-107949762D01*
X144660952Y-107997381D01*
X144803810Y-107997381D01*
X144994286Y-107949762D01*
X145089524Y-107902143D01*
X145184762Y-107806905D01*
X145232381Y-107664047D01*
X145232381Y-107568809D01*
X145184762Y-107425952D01*
X145137143Y-107378333D01*
X144803810Y-107378333D01*
X144803810Y-107568809D01*
X144946667Y-106997381D02*
X144946667Y-106521190D01*
X145232381Y-107092619D02*
X144232381Y-106759286D01*
X145232381Y-106425952D01*
X144232381Y-106187857D02*
X144232381Y-105568809D01*
X144613333Y-105902143D01*
X144613333Y-105759285D01*
X144660952Y-105664047D01*
X144708571Y-105616428D01*
X144803810Y-105568809D01*
X145041905Y-105568809D01*
X145137143Y-105616428D01*
X145184762Y-105664047D01*
X145232381Y-105759285D01*
X145232381Y-106045000D01*
X145184762Y-106140238D01*
X145137143Y-106187857D01*
X144327619Y-105187857D02*
X144280000Y-105140238D01*
X144232381Y-105045000D01*
X144232381Y-104806904D01*
X144280000Y-104711666D01*
X144327619Y-104664047D01*
X144422857Y-104616428D01*
X144518095Y-104616428D01*
X144660952Y-104664047D01*
X145232381Y-105235476D01*
X145232381Y-104616428D01*
X144660952Y-104045000D02*
X144613333Y-104140238D01*
X144565714Y-104187857D01*
X144470476Y-104235476D01*
X144422857Y-104235476D01*
X144327619Y-104187857D01*
X144280000Y-104140238D01*
X144232381Y-104045000D01*
X144232381Y-103854523D01*
X144280000Y-103759285D01*
X144327619Y-103711666D01*
X144422857Y-103664047D01*
X144470476Y-103664047D01*
X144565714Y-103711666D01*
X144613333Y-103759285D01*
X144660952Y-103854523D01*
X144660952Y-104045000D01*
X144708571Y-104140238D01*
X144756190Y-104187857D01*
X144851429Y-104235476D01*
X145041905Y-104235476D01*
X145137143Y-104187857D01*
X145184762Y-104140238D01*
X145232381Y-104045000D01*
X145232381Y-103854523D01*
X145184762Y-103759285D01*
X145137143Y-103711666D01*
X145041905Y-103664047D01*
X144851429Y-103664047D01*
X144756190Y-103711666D01*
X144708571Y-103759285D01*
X144660952Y-103854523D01*
X145232381Y-103235476D02*
X144232381Y-103235476D01*
X144232381Y-102854523D01*
X144280000Y-102759285D01*
X144327619Y-102711666D01*
X144422857Y-102664047D01*
X144565714Y-102664047D01*
X144660952Y-102711666D01*
X144708571Y-102759285D01*
X144756190Y-102854523D01*
X144756190Y-103235476D01*
X144851429Y-102235476D02*
X144851429Y-101473571D01*
X145232381Y-100997381D02*
X144232381Y-100997381D01*
X144232381Y-100616428D01*
X144280000Y-100521190D01*
X144327619Y-100473571D01*
X144422857Y-100425952D01*
X144565714Y-100425952D01*
X144660952Y-100473571D01*
X144708571Y-100521190D01*
X144756190Y-100616428D01*
X144756190Y-100997381D01*
X99552381Y-102671619D02*
X99600000Y-102624000D01*
X99695238Y-102576381D01*
X99933334Y-102576381D01*
X100028572Y-102624000D01*
X100076191Y-102671619D01*
X100123810Y-102766857D01*
X100123810Y-102862095D01*
X100076191Y-103004952D01*
X99504762Y-103576381D01*
X100123810Y-103576381D01*
X100552381Y-103481143D02*
X100600000Y-103528762D01*
X100552381Y-103576381D01*
X100504762Y-103528762D01*
X100552381Y-103481143D01*
X100552381Y-103576381D01*
X100980952Y-102671619D02*
X101028571Y-102624000D01*
X101123809Y-102576381D01*
X101361905Y-102576381D01*
X101457143Y-102624000D01*
X101504762Y-102671619D01*
X101552381Y-102766857D01*
X101552381Y-102862095D01*
X101504762Y-103004952D01*
X100933333Y-103576381D01*
X101552381Y-103576381D01*
X101980952Y-102909714D02*
X101980952Y-103909714D01*
X102457143Y-103433524D02*
X102504762Y-103528762D01*
X102600000Y-103576381D01*
X101980952Y-103433524D02*
X102028571Y-103528762D01*
X102123809Y-103576381D01*
X102314286Y-103576381D01*
X102409524Y-103528762D01*
X102457143Y-103433524D01*
X102457143Y-102909714D01*
X103028571Y-103576381D02*
X103028571Y-102576381D01*
X103028571Y-103052571D02*
X103600000Y-103052571D01*
X103600000Y-103576381D02*
X103600000Y-102576381D01*
X152249476Y-131722762D02*
X152392333Y-131770381D01*
X152630429Y-131770381D01*
X152725667Y-131722762D01*
X152773286Y-131675143D01*
X152820905Y-131579905D01*
X152820905Y-131484667D01*
X152773286Y-131389429D01*
X152725667Y-131341810D01*
X152630429Y-131294190D01*
X152439952Y-131246571D01*
X152344714Y-131198952D01*
X152297095Y-131151333D01*
X152249476Y-131056095D01*
X152249476Y-130960857D01*
X152297095Y-130865619D01*
X152344714Y-130818000D01*
X152439952Y-130770381D01*
X152678048Y-130770381D01*
X152820905Y-130818000D01*
X153249476Y-131246571D02*
X153582810Y-131246571D01*
X153725667Y-131770381D02*
X153249476Y-131770381D01*
X153249476Y-130770381D01*
X153725667Y-130770381D01*
X154725667Y-131770381D02*
X154392333Y-131294190D01*
X154154238Y-131770381D02*
X154154238Y-130770381D01*
X154535191Y-130770381D01*
X154630429Y-130818000D01*
X154678048Y-130865619D01*
X154725667Y-130960857D01*
X154725667Y-131103714D01*
X154678048Y-131198952D01*
X154630429Y-131246571D01*
X154535191Y-131294190D01*
X154154238Y-131294190D01*
X155154238Y-131770381D02*
X155154238Y-130770381D01*
X155582809Y-131484667D02*
X156059000Y-131484667D01*
X155487571Y-131770381D02*
X155820904Y-130770381D01*
X156154238Y-131770381D01*
X156963762Y-131770381D02*
X156487571Y-131770381D01*
X156487571Y-130770381D01*
X97750477Y-99496571D02*
X97417143Y-99496571D01*
X97417143Y-100020381D02*
X97417143Y-99020381D01*
X97893334Y-99020381D01*
X98274286Y-99020381D02*
X98274286Y-99829905D01*
X98321905Y-99925143D01*
X98369524Y-99972762D01*
X98464762Y-100020381D01*
X98655239Y-100020381D01*
X98750477Y-99972762D01*
X98798096Y-99925143D01*
X98845715Y-99829905D01*
X98845715Y-99020381D01*
X99274286Y-99972762D02*
X99417143Y-100020381D01*
X99655239Y-100020381D01*
X99750477Y-99972762D01*
X99798096Y-99925143D01*
X99845715Y-99829905D01*
X99845715Y-99734667D01*
X99798096Y-99639429D01*
X99750477Y-99591810D01*
X99655239Y-99544190D01*
X99464762Y-99496571D01*
X99369524Y-99448952D01*
X99321905Y-99401333D01*
X99274286Y-99306095D01*
X99274286Y-99210857D01*
X99321905Y-99115619D01*
X99369524Y-99068000D01*
X99464762Y-99020381D01*
X99702858Y-99020381D01*
X99845715Y-99068000D01*
X100274286Y-99496571D02*
X100607620Y-99496571D01*
X100750477Y-100020381D02*
X100274286Y-100020381D01*
X100274286Y-99020381D01*
X100750477Y-99020381D01*
X128722381Y-87558333D02*
X128722381Y-88034524D01*
X127722381Y-88034524D01*
X128674762Y-86844047D02*
X128722381Y-86939285D01*
X128722381Y-87129762D01*
X128674762Y-87225000D01*
X128579524Y-87272619D01*
X128198571Y-87272619D01*
X128103333Y-87225000D01*
X128055714Y-87129762D01*
X128055714Y-86939285D01*
X128103333Y-86844047D01*
X128198571Y-86796428D01*
X128293810Y-86796428D01*
X128389048Y-87272619D01*
X128722381Y-85939285D02*
X127722381Y-85939285D01*
X128674762Y-85939285D02*
X128722381Y-86034523D01*
X128722381Y-86225000D01*
X128674762Y-86320238D01*
X128627143Y-86367857D01*
X128531905Y-86415476D01*
X128246190Y-86415476D01*
X128150952Y-86367857D01*
X128103333Y-86320238D01*
X128055714Y-86225000D01*
X128055714Y-86034523D01*
X128103333Y-85939285D01*
X128817619Y-85701190D02*
X128817619Y-84939285D01*
X128722381Y-84796428D02*
X128055714Y-84272618D01*
X128055714Y-84796428D02*
X128722381Y-84272618D01*
X127817619Y-83939285D02*
X127770000Y-83891666D01*
X127722381Y-83796428D01*
X127722381Y-83558332D01*
X127770000Y-83463094D01*
X127817619Y-83415475D01*
X127912857Y-83367856D01*
X128008095Y-83367856D01*
X128150952Y-83415475D01*
X128722381Y-83986904D01*
X128722381Y-83367856D01*
X123007381Y-87558333D02*
X123007381Y-88034524D01*
X122007381Y-88034524D01*
X122959762Y-86844047D02*
X123007381Y-86939285D01*
X123007381Y-87129762D01*
X122959762Y-87225000D01*
X122864524Y-87272619D01*
X122483571Y-87272619D01*
X122388333Y-87225000D01*
X122340714Y-87129762D01*
X122340714Y-86939285D01*
X122388333Y-86844047D01*
X122483571Y-86796428D01*
X122578810Y-86796428D01*
X122674048Y-87272619D01*
X123007381Y-85939285D02*
X122007381Y-85939285D01*
X122959762Y-85939285D02*
X123007381Y-86034523D01*
X123007381Y-86225000D01*
X122959762Y-86320238D01*
X122912143Y-86367857D01*
X122816905Y-86415476D01*
X122531190Y-86415476D01*
X122435952Y-86367857D01*
X122388333Y-86320238D01*
X122340714Y-86225000D01*
X122340714Y-86034523D01*
X122388333Y-85939285D01*
X123102619Y-85701190D02*
X123102619Y-84939285D01*
X123007381Y-84796428D02*
X122340714Y-84272618D01*
X122340714Y-84796428D02*
X123007381Y-84272618D01*
X122102619Y-83939285D02*
X122055000Y-83891666D01*
X122007381Y-83796428D01*
X122007381Y-83558332D01*
X122055000Y-83463094D01*
X122102619Y-83415475D01*
X122197857Y-83367856D01*
X122293095Y-83367856D01*
X122435952Y-83415475D01*
X123007381Y-83986904D01*
X123007381Y-83367856D01*
X117292381Y-87558333D02*
X117292381Y-88034524D01*
X116292381Y-88034524D01*
X117244762Y-86844047D02*
X117292381Y-86939285D01*
X117292381Y-87129762D01*
X117244762Y-87225000D01*
X117149524Y-87272619D01*
X116768571Y-87272619D01*
X116673333Y-87225000D01*
X116625714Y-87129762D01*
X116625714Y-86939285D01*
X116673333Y-86844047D01*
X116768571Y-86796428D01*
X116863810Y-86796428D01*
X116959048Y-87272619D01*
X117292381Y-85939285D02*
X116292381Y-85939285D01*
X117244762Y-85939285D02*
X117292381Y-86034523D01*
X117292381Y-86225000D01*
X117244762Y-86320238D01*
X117197143Y-86367857D01*
X117101905Y-86415476D01*
X116816190Y-86415476D01*
X116720952Y-86367857D01*
X116673333Y-86320238D01*
X116625714Y-86225000D01*
X116625714Y-86034523D01*
X116673333Y-85939285D01*
X117387619Y-85701190D02*
X117387619Y-84939285D01*
X117292381Y-84796428D02*
X116625714Y-84272618D01*
X116625714Y-84796428D02*
X117292381Y-84272618D01*
X116387619Y-83939285D02*
X116340000Y-83891666D01*
X116292381Y-83796428D01*
X116292381Y-83558332D01*
X116340000Y-83463094D01*
X116387619Y-83415475D01*
X116482857Y-83367856D01*
X116578095Y-83367856D01*
X116720952Y-83415475D01*
X117292381Y-83986904D01*
X117292381Y-83367856D01*
X126722143Y-121498809D02*
X126769762Y-121546428D01*
X126817381Y-121689285D01*
X126817381Y-121784523D01*
X126769762Y-121927381D01*
X126674524Y-122022619D01*
X126579286Y-122070238D01*
X126388810Y-122117857D01*
X126245952Y-122117857D01*
X126055476Y-122070238D01*
X125960238Y-122022619D01*
X125865000Y-121927381D01*
X125817381Y-121784523D01*
X125817381Y-121689285D01*
X125865000Y-121546428D01*
X125912619Y-121498809D01*
X125817381Y-120879762D02*
X125817381Y-120689285D01*
X125865000Y-120594047D01*
X125960238Y-120498809D01*
X126150714Y-120451190D01*
X126484048Y-120451190D01*
X126674524Y-120498809D01*
X126769762Y-120594047D01*
X126817381Y-120689285D01*
X126817381Y-120879762D01*
X126769762Y-120975000D01*
X126674524Y-121070238D01*
X126484048Y-121117857D01*
X126150714Y-121117857D01*
X125960238Y-121070238D01*
X125865000Y-120975000D01*
X125817381Y-120879762D01*
X126817381Y-120022619D02*
X125817381Y-120022619D01*
X126817381Y-119451190D01*
X125817381Y-119451190D01*
X126817381Y-118975000D02*
X125817381Y-118975000D01*
X126817381Y-118403571D01*
X125817381Y-118403571D01*
X126912619Y-118165476D02*
X126912619Y-117403571D01*
X125817381Y-116975000D02*
X125817381Y-116879761D01*
X125865000Y-116784523D01*
X125912619Y-116736904D01*
X126007857Y-116689285D01*
X126198333Y-116641666D01*
X126436429Y-116641666D01*
X126626905Y-116689285D01*
X126722143Y-116736904D01*
X126769762Y-116784523D01*
X126817381Y-116879761D01*
X126817381Y-116975000D01*
X126769762Y-117070238D01*
X126722143Y-117117857D01*
X126626905Y-117165476D01*
X126436429Y-117213095D01*
X126198333Y-117213095D01*
X126007857Y-117165476D01*
X125912619Y-117117857D01*
X125865000Y-117070238D01*
X125817381Y-116975000D01*
X126817381Y-115689285D02*
X126817381Y-116260714D01*
X126817381Y-115975000D02*
X125817381Y-115975000D01*
X125960238Y-116070238D01*
X126055476Y-116165476D01*
X126103095Y-116260714D01*
X125817381Y-115355952D02*
X126817381Y-114689285D01*
X125817381Y-114689285D02*
X126817381Y-115355952D01*
X125817381Y-114117857D02*
X125817381Y-114022618D01*
X125865000Y-113927380D01*
X125912619Y-113879761D01*
X126007857Y-113832142D01*
X126198333Y-113784523D01*
X126436429Y-113784523D01*
X126626905Y-113832142D01*
X126722143Y-113879761D01*
X126769762Y-113927380D01*
X126817381Y-114022618D01*
X126817381Y-114117857D01*
X126769762Y-114213095D01*
X126722143Y-114260714D01*
X126626905Y-114308333D01*
X126436429Y-114355952D01*
X126198333Y-114355952D01*
X126007857Y-114308333D01*
X125912619Y-114260714D01*
X125865000Y-114213095D01*
X125817381Y-114117857D01*
X125817381Y-113451190D02*
X125817381Y-112832142D01*
X126198333Y-113165476D01*
X126198333Y-113022618D01*
X126245952Y-112927380D01*
X126293571Y-112879761D01*
X126388810Y-112832142D01*
X126626905Y-112832142D01*
X126722143Y-112879761D01*
X126769762Y-112927380D01*
X126817381Y-113022618D01*
X126817381Y-113308333D01*
X126769762Y-113403571D01*
X126722143Y-113451190D01*
X128691191Y-129262143D02*
X128643572Y-129309762D01*
X128500715Y-129357381D01*
X128405477Y-129357381D01*
X128262619Y-129309762D01*
X128167381Y-129214524D01*
X128119762Y-129119286D01*
X128072143Y-128928810D01*
X128072143Y-128785952D01*
X128119762Y-128595476D01*
X128167381Y-128500238D01*
X128262619Y-128405000D01*
X128405477Y-128357381D01*
X128500715Y-128357381D01*
X128643572Y-128405000D01*
X128691191Y-128452619D01*
X129310238Y-128357381D02*
X129500715Y-128357381D01*
X129595953Y-128405000D01*
X129691191Y-128500238D01*
X129738810Y-128690714D01*
X129738810Y-129024048D01*
X129691191Y-129214524D01*
X129595953Y-129309762D01*
X129500715Y-129357381D01*
X129310238Y-129357381D01*
X129215000Y-129309762D01*
X129119762Y-129214524D01*
X129072143Y-129024048D01*
X129072143Y-128690714D01*
X129119762Y-128500238D01*
X129215000Y-128405000D01*
X129310238Y-128357381D01*
X130167381Y-129357381D02*
X130167381Y-128357381D01*
X130738810Y-129357381D01*
X130738810Y-128357381D01*
X131215000Y-129357381D02*
X131215000Y-128357381D01*
X131786429Y-129357381D01*
X131786429Y-128357381D01*
X132024524Y-129452619D02*
X132786429Y-129452619D01*
X133215000Y-128357381D02*
X133310239Y-128357381D01*
X133405477Y-128405000D01*
X133453096Y-128452619D01*
X133500715Y-128547857D01*
X133548334Y-128738333D01*
X133548334Y-128976429D01*
X133500715Y-129166905D01*
X133453096Y-129262143D01*
X133405477Y-129309762D01*
X133310239Y-129357381D01*
X133215000Y-129357381D01*
X133119762Y-129309762D01*
X133072143Y-129262143D01*
X133024524Y-129166905D01*
X132976905Y-128976429D01*
X132976905Y-128738333D01*
X133024524Y-128547857D01*
X133072143Y-128452619D01*
X133119762Y-128405000D01*
X133215000Y-128357381D01*
X134500715Y-129357381D02*
X133929286Y-129357381D01*
X134215000Y-129357381D02*
X134215000Y-128357381D01*
X134119762Y-128500238D01*
X134024524Y-128595476D01*
X133929286Y-128643095D01*
X134834048Y-128357381D02*
X135500715Y-129357381D01*
X135500715Y-128357381D02*
X134834048Y-129357381D01*
X136072143Y-128357381D02*
X136167382Y-128357381D01*
X136262620Y-128405000D01*
X136310239Y-128452619D01*
X136357858Y-128547857D01*
X136405477Y-128738333D01*
X136405477Y-128976429D01*
X136357858Y-129166905D01*
X136310239Y-129262143D01*
X136262620Y-129309762D01*
X136167382Y-129357381D01*
X136072143Y-129357381D01*
X135976905Y-129309762D01*
X135929286Y-129262143D01*
X135881667Y-129166905D01*
X135834048Y-128976429D01*
X135834048Y-128738333D01*
X135881667Y-128547857D01*
X135929286Y-128452619D01*
X135976905Y-128405000D01*
X136072143Y-128357381D01*
X136738810Y-128357381D02*
X137357858Y-128357381D01*
X137024524Y-128738333D01*
X137167382Y-128738333D01*
X137262620Y-128785952D01*
X137310239Y-128833571D01*
X137357858Y-128928810D01*
X137357858Y-129166905D01*
X137310239Y-129262143D01*
X137262620Y-129309762D01*
X137167382Y-129357381D01*
X136881667Y-129357381D01*
X136786429Y-129309762D01*
X136738810Y-129262143D01*
X159591619Y-103583952D02*
X159544000Y-103679190D01*
X159448762Y-103774428D01*
X159305905Y-103917285D01*
X159258286Y-104012524D01*
X159258286Y-104107762D01*
X159496381Y-104060143D02*
X159448762Y-104155381D01*
X159353524Y-104250619D01*
X159163048Y-104298238D01*
X158829714Y-104298238D01*
X158639238Y-104250619D01*
X158544000Y-104155381D01*
X158496381Y-104060143D01*
X158496381Y-103869666D01*
X158544000Y-103774428D01*
X158639238Y-103679190D01*
X158829714Y-103631571D01*
X159163048Y-103631571D01*
X159353524Y-103679190D01*
X159448762Y-103774428D01*
X159496381Y-103869666D01*
X159496381Y-104060143D01*
X159591619Y-103441095D02*
X159591619Y-102679190D01*
X159496381Y-102441095D02*
X158496381Y-102441095D01*
X159496381Y-101869666D01*
X158496381Y-101869666D01*
X159496381Y-101393476D02*
X158496381Y-101393476D01*
X158496381Y-101012523D01*
X158544000Y-100917285D01*
X158591619Y-100869666D01*
X158686857Y-100822047D01*
X158829714Y-100822047D01*
X158924952Y-100869666D01*
X158972571Y-100917285D01*
X159020190Y-101012523D01*
X159020190Y-101393476D01*
X159496381Y-100393476D02*
X158496381Y-100393476D01*
X159496381Y-99822047D01*
X158496381Y-99822047D01*
X159591619Y-99583952D02*
X159591619Y-98822047D01*
X158972571Y-98250618D02*
X159020190Y-98107761D01*
X159067810Y-98060142D01*
X159163048Y-98012523D01*
X159305905Y-98012523D01*
X159401143Y-98060142D01*
X159448762Y-98107761D01*
X159496381Y-98202999D01*
X159496381Y-98583952D01*
X158496381Y-98583952D01*
X158496381Y-98250618D01*
X158544000Y-98155380D01*
X158591619Y-98107761D01*
X158686857Y-98060142D01*
X158782095Y-98060142D01*
X158877333Y-98107761D01*
X158924952Y-98155380D01*
X158972571Y-98250618D01*
X158972571Y-98583952D01*
X158972571Y-97583952D02*
X158972571Y-97250618D01*
X159496381Y-97107761D02*
X159496381Y-97583952D01*
X158496381Y-97583952D01*
X158496381Y-97107761D01*
X159401143Y-96107761D02*
X159448762Y-96155380D01*
X159496381Y-96298237D01*
X159496381Y-96393475D01*
X159448762Y-96536333D01*
X159353524Y-96631571D01*
X159258286Y-96679190D01*
X159067810Y-96726809D01*
X158924952Y-96726809D01*
X158734476Y-96679190D01*
X158639238Y-96631571D01*
X158544000Y-96536333D01*
X158496381Y-96393475D01*
X158496381Y-96298237D01*
X158544000Y-96155380D01*
X158591619Y-96107761D01*
X163147619Y-109806952D02*
X163100000Y-109902190D01*
X163004762Y-109997428D01*
X162861905Y-110140285D01*
X162814286Y-110235524D01*
X162814286Y-110330762D01*
X163052381Y-110283143D02*
X163004762Y-110378381D01*
X162909524Y-110473619D01*
X162719048Y-110521238D01*
X162385714Y-110521238D01*
X162195238Y-110473619D01*
X162100000Y-110378381D01*
X162052381Y-110283143D01*
X162052381Y-110092666D01*
X162100000Y-109997428D01*
X162195238Y-109902190D01*
X162385714Y-109854571D01*
X162719048Y-109854571D01*
X162909524Y-109902190D01*
X163004762Y-109997428D01*
X163052381Y-110092666D01*
X163052381Y-110283143D01*
X163147619Y-109664095D02*
X163147619Y-108902190D01*
X163052381Y-108664095D02*
X162052381Y-108664095D01*
X163052381Y-108092666D01*
X162052381Y-108092666D01*
X163052381Y-107616476D02*
X162052381Y-107616476D01*
X162052381Y-107235523D01*
X162100000Y-107140285D01*
X162147619Y-107092666D01*
X162242857Y-107045047D01*
X162385714Y-107045047D01*
X162480952Y-107092666D01*
X162528571Y-107140285D01*
X162576190Y-107235523D01*
X162576190Y-107616476D01*
X163052381Y-106616476D02*
X162052381Y-106616476D01*
X163052381Y-106045047D01*
X162052381Y-106045047D01*
X163147619Y-105806952D02*
X163147619Y-105045047D01*
X162528571Y-104473618D02*
X162576190Y-104330761D01*
X162623810Y-104283142D01*
X162719048Y-104235523D01*
X162861905Y-104235523D01*
X162957143Y-104283142D01*
X163004762Y-104330761D01*
X163052381Y-104425999D01*
X163052381Y-104806952D01*
X162052381Y-104806952D01*
X162052381Y-104473618D01*
X162100000Y-104378380D01*
X162147619Y-104330761D01*
X162242857Y-104283142D01*
X162338095Y-104283142D01*
X162433333Y-104330761D01*
X162480952Y-104378380D01*
X162528571Y-104473618D01*
X162528571Y-104806952D01*
X162528571Y-103806952D02*
X162528571Y-103473618D01*
X163052381Y-103330761D02*
X163052381Y-103806952D01*
X162052381Y-103806952D01*
X162052381Y-103330761D01*
X162957143Y-102330761D02*
X163004762Y-102378380D01*
X163052381Y-102521237D01*
X163052381Y-102616475D01*
X163004762Y-102759333D01*
X162909524Y-102854571D01*
X162814286Y-102902190D01*
X162623810Y-102949809D01*
X162480952Y-102949809D01*
X162290476Y-102902190D01*
X162195238Y-102854571D01*
X162100000Y-102759333D01*
X162052381Y-102616475D01*
X162052381Y-102521237D01*
X162100000Y-102378380D01*
X162147619Y-102330761D01*
X166703619Y-103583952D02*
X166656000Y-103679190D01*
X166560762Y-103774428D01*
X166417905Y-103917285D01*
X166370286Y-104012524D01*
X166370286Y-104107762D01*
X166608381Y-104060143D02*
X166560762Y-104155381D01*
X166465524Y-104250619D01*
X166275048Y-104298238D01*
X165941714Y-104298238D01*
X165751238Y-104250619D01*
X165656000Y-104155381D01*
X165608381Y-104060143D01*
X165608381Y-103869666D01*
X165656000Y-103774428D01*
X165751238Y-103679190D01*
X165941714Y-103631571D01*
X166275048Y-103631571D01*
X166465524Y-103679190D01*
X166560762Y-103774428D01*
X166608381Y-103869666D01*
X166608381Y-104060143D01*
X166703619Y-103441095D02*
X166703619Y-102679190D01*
X166608381Y-102441095D02*
X165608381Y-102441095D01*
X166608381Y-101869666D01*
X165608381Y-101869666D01*
X166608381Y-101393476D02*
X165608381Y-101393476D01*
X165608381Y-101012523D01*
X165656000Y-100917285D01*
X165703619Y-100869666D01*
X165798857Y-100822047D01*
X165941714Y-100822047D01*
X166036952Y-100869666D01*
X166084571Y-100917285D01*
X166132190Y-101012523D01*
X166132190Y-101393476D01*
X166608381Y-100393476D02*
X165608381Y-100393476D01*
X166608381Y-99822047D01*
X165608381Y-99822047D01*
X166703619Y-99583952D02*
X166703619Y-98822047D01*
X166084571Y-98250618D02*
X166132190Y-98107761D01*
X166179810Y-98060142D01*
X166275048Y-98012523D01*
X166417905Y-98012523D01*
X166513143Y-98060142D01*
X166560762Y-98107761D01*
X166608381Y-98202999D01*
X166608381Y-98583952D01*
X165608381Y-98583952D01*
X165608381Y-98250618D01*
X165656000Y-98155380D01*
X165703619Y-98107761D01*
X165798857Y-98060142D01*
X165894095Y-98060142D01*
X165989333Y-98107761D01*
X166036952Y-98155380D01*
X166084571Y-98250618D01*
X166084571Y-98583952D01*
X166084571Y-97583952D02*
X166084571Y-97250618D01*
X166608381Y-97107761D02*
X166608381Y-97583952D01*
X165608381Y-97583952D01*
X165608381Y-97107761D01*
X166513143Y-96107761D02*
X166560762Y-96155380D01*
X166608381Y-96298237D01*
X166608381Y-96393475D01*
X166560762Y-96536333D01*
X166465524Y-96631571D01*
X166370286Y-96679190D01*
X166179810Y-96726809D01*
X166036952Y-96726809D01*
X165846476Y-96679190D01*
X165751238Y-96631571D01*
X165656000Y-96536333D01*
X165608381Y-96393475D01*
X165608381Y-96298237D01*
X165656000Y-96155380D01*
X165703619Y-96107761D01*
X170259619Y-109806952D02*
X170212000Y-109902190D01*
X170116762Y-109997428D01*
X169973905Y-110140285D01*
X169926286Y-110235524D01*
X169926286Y-110330762D01*
X170164381Y-110283143D02*
X170116762Y-110378381D01*
X170021524Y-110473619D01*
X169831048Y-110521238D01*
X169497714Y-110521238D01*
X169307238Y-110473619D01*
X169212000Y-110378381D01*
X169164381Y-110283143D01*
X169164381Y-110092666D01*
X169212000Y-109997428D01*
X169307238Y-109902190D01*
X169497714Y-109854571D01*
X169831048Y-109854571D01*
X170021524Y-109902190D01*
X170116762Y-109997428D01*
X170164381Y-110092666D01*
X170164381Y-110283143D01*
X170259619Y-109664095D02*
X170259619Y-108902190D01*
X170164381Y-108664095D02*
X169164381Y-108664095D01*
X170164381Y-108092666D01*
X169164381Y-108092666D01*
X170164381Y-107616476D02*
X169164381Y-107616476D01*
X169164381Y-107235523D01*
X169212000Y-107140285D01*
X169259619Y-107092666D01*
X169354857Y-107045047D01*
X169497714Y-107045047D01*
X169592952Y-107092666D01*
X169640571Y-107140285D01*
X169688190Y-107235523D01*
X169688190Y-107616476D01*
X170164381Y-106616476D02*
X169164381Y-106616476D01*
X170164381Y-106045047D01*
X169164381Y-106045047D01*
X170259619Y-105806952D02*
X170259619Y-105045047D01*
X169640571Y-104473618D02*
X169688190Y-104330761D01*
X169735810Y-104283142D01*
X169831048Y-104235523D01*
X169973905Y-104235523D01*
X170069143Y-104283142D01*
X170116762Y-104330761D01*
X170164381Y-104425999D01*
X170164381Y-104806952D01*
X169164381Y-104806952D01*
X169164381Y-104473618D01*
X169212000Y-104378380D01*
X169259619Y-104330761D01*
X169354857Y-104283142D01*
X169450095Y-104283142D01*
X169545333Y-104330761D01*
X169592952Y-104378380D01*
X169640571Y-104473618D01*
X169640571Y-104806952D01*
X169640571Y-103806952D02*
X169640571Y-103473618D01*
X170164381Y-103330761D02*
X170164381Y-103806952D01*
X169164381Y-103806952D01*
X169164381Y-103330761D01*
X170069143Y-102330761D02*
X170116762Y-102378380D01*
X170164381Y-102521237D01*
X170164381Y-102616475D01*
X170116762Y-102759333D01*
X170021524Y-102854571D01*
X169926286Y-102902190D01*
X169735810Y-102949809D01*
X169592952Y-102949809D01*
X169402476Y-102902190D01*
X169307238Y-102854571D01*
X169212000Y-102759333D01*
X169164381Y-102616475D01*
X169164381Y-102521237D01*
X169212000Y-102378380D01*
X169259619Y-102330761D01*
X173815619Y-103583952D02*
X173768000Y-103679190D01*
X173672762Y-103774428D01*
X173529905Y-103917285D01*
X173482286Y-104012524D01*
X173482286Y-104107762D01*
X173720381Y-104060143D02*
X173672762Y-104155381D01*
X173577524Y-104250619D01*
X173387048Y-104298238D01*
X173053714Y-104298238D01*
X172863238Y-104250619D01*
X172768000Y-104155381D01*
X172720381Y-104060143D01*
X172720381Y-103869666D01*
X172768000Y-103774428D01*
X172863238Y-103679190D01*
X173053714Y-103631571D01*
X173387048Y-103631571D01*
X173577524Y-103679190D01*
X173672762Y-103774428D01*
X173720381Y-103869666D01*
X173720381Y-104060143D01*
X173815619Y-103441095D02*
X173815619Y-102679190D01*
X173720381Y-102441095D02*
X172720381Y-102441095D01*
X173720381Y-101869666D01*
X172720381Y-101869666D01*
X173720381Y-101393476D02*
X172720381Y-101393476D01*
X172720381Y-101012523D01*
X172768000Y-100917285D01*
X172815619Y-100869666D01*
X172910857Y-100822047D01*
X173053714Y-100822047D01*
X173148952Y-100869666D01*
X173196571Y-100917285D01*
X173244190Y-101012523D01*
X173244190Y-101393476D01*
X173720381Y-100393476D02*
X172720381Y-100393476D01*
X173720381Y-99822047D01*
X172720381Y-99822047D01*
X173815619Y-99583952D02*
X173815619Y-98822047D01*
X173196571Y-98250618D02*
X173244190Y-98107761D01*
X173291810Y-98060142D01*
X173387048Y-98012523D01*
X173529905Y-98012523D01*
X173625143Y-98060142D01*
X173672762Y-98107761D01*
X173720381Y-98202999D01*
X173720381Y-98583952D01*
X172720381Y-98583952D01*
X172720381Y-98250618D01*
X172768000Y-98155380D01*
X172815619Y-98107761D01*
X172910857Y-98060142D01*
X173006095Y-98060142D01*
X173101333Y-98107761D01*
X173148952Y-98155380D01*
X173196571Y-98250618D01*
X173196571Y-98583952D01*
X173196571Y-97583952D02*
X173196571Y-97250618D01*
X173720381Y-97107761D02*
X173720381Y-97583952D01*
X172720381Y-97583952D01*
X172720381Y-97107761D01*
X173625143Y-96107761D02*
X173672762Y-96155380D01*
X173720381Y-96298237D01*
X173720381Y-96393475D01*
X173672762Y-96536333D01*
X173577524Y-96631571D01*
X173482286Y-96679190D01*
X173291810Y-96726809D01*
X173148952Y-96726809D01*
X172958476Y-96679190D01*
X172863238Y-96631571D01*
X172768000Y-96536333D01*
X172720381Y-96393475D01*
X172720381Y-96298237D01*
X172768000Y-96155380D01*
X172815619Y-96107761D01*
X177371619Y-109806952D02*
X177324000Y-109902190D01*
X177228762Y-109997428D01*
X177085905Y-110140285D01*
X177038286Y-110235524D01*
X177038286Y-110330762D01*
X177276381Y-110283143D02*
X177228762Y-110378381D01*
X177133524Y-110473619D01*
X176943048Y-110521238D01*
X176609714Y-110521238D01*
X176419238Y-110473619D01*
X176324000Y-110378381D01*
X176276381Y-110283143D01*
X176276381Y-110092666D01*
X176324000Y-109997428D01*
X176419238Y-109902190D01*
X176609714Y-109854571D01*
X176943048Y-109854571D01*
X177133524Y-109902190D01*
X177228762Y-109997428D01*
X177276381Y-110092666D01*
X177276381Y-110283143D01*
X177371619Y-109664095D02*
X177371619Y-108902190D01*
X177276381Y-108664095D02*
X176276381Y-108664095D01*
X177276381Y-108092666D01*
X176276381Y-108092666D01*
X177276381Y-107616476D02*
X176276381Y-107616476D01*
X176276381Y-107235523D01*
X176324000Y-107140285D01*
X176371619Y-107092666D01*
X176466857Y-107045047D01*
X176609714Y-107045047D01*
X176704952Y-107092666D01*
X176752571Y-107140285D01*
X176800190Y-107235523D01*
X176800190Y-107616476D01*
X177276381Y-106616476D02*
X176276381Y-106616476D01*
X177276381Y-106045047D01*
X176276381Y-106045047D01*
X177371619Y-105806952D02*
X177371619Y-105045047D01*
X176752571Y-104473618D02*
X176800190Y-104330761D01*
X176847810Y-104283142D01*
X176943048Y-104235523D01*
X177085905Y-104235523D01*
X177181143Y-104283142D01*
X177228762Y-104330761D01*
X177276381Y-104425999D01*
X177276381Y-104806952D01*
X176276381Y-104806952D01*
X176276381Y-104473618D01*
X176324000Y-104378380D01*
X176371619Y-104330761D01*
X176466857Y-104283142D01*
X176562095Y-104283142D01*
X176657333Y-104330761D01*
X176704952Y-104378380D01*
X176752571Y-104473618D01*
X176752571Y-104806952D01*
X176752571Y-103806952D02*
X176752571Y-103473618D01*
X177276381Y-103330761D02*
X177276381Y-103806952D01*
X176276381Y-103806952D01*
X176276381Y-103330761D01*
X177181143Y-102330761D02*
X177228762Y-102378380D01*
X177276381Y-102521237D01*
X177276381Y-102616475D01*
X177228762Y-102759333D01*
X177133524Y-102854571D01*
X177038286Y-102902190D01*
X176847810Y-102949809D01*
X176704952Y-102949809D01*
X176514476Y-102902190D01*
X176419238Y-102854571D01*
X176324000Y-102759333D01*
X176276381Y-102616475D01*
X176276381Y-102521237D01*
X176324000Y-102378380D01*
X176371619Y-102330761D01*
X180927619Y-103583952D02*
X180880000Y-103679190D01*
X180784762Y-103774428D01*
X180641905Y-103917285D01*
X180594286Y-104012524D01*
X180594286Y-104107762D01*
X180832381Y-104060143D02*
X180784762Y-104155381D01*
X180689524Y-104250619D01*
X180499048Y-104298238D01*
X180165714Y-104298238D01*
X179975238Y-104250619D01*
X179880000Y-104155381D01*
X179832381Y-104060143D01*
X179832381Y-103869666D01*
X179880000Y-103774428D01*
X179975238Y-103679190D01*
X180165714Y-103631571D01*
X180499048Y-103631571D01*
X180689524Y-103679190D01*
X180784762Y-103774428D01*
X180832381Y-103869666D01*
X180832381Y-104060143D01*
X180927619Y-103441095D02*
X180927619Y-102679190D01*
X180832381Y-102441095D02*
X179832381Y-102441095D01*
X180832381Y-101869666D01*
X179832381Y-101869666D01*
X180832381Y-101393476D02*
X179832381Y-101393476D01*
X179832381Y-101012523D01*
X179880000Y-100917285D01*
X179927619Y-100869666D01*
X180022857Y-100822047D01*
X180165714Y-100822047D01*
X180260952Y-100869666D01*
X180308571Y-100917285D01*
X180356190Y-101012523D01*
X180356190Y-101393476D01*
X180832381Y-100393476D02*
X179832381Y-100393476D01*
X180832381Y-99822047D01*
X179832381Y-99822047D01*
X180927619Y-99583952D02*
X180927619Y-98822047D01*
X180308571Y-98250618D02*
X180356190Y-98107761D01*
X180403810Y-98060142D01*
X180499048Y-98012523D01*
X180641905Y-98012523D01*
X180737143Y-98060142D01*
X180784762Y-98107761D01*
X180832381Y-98202999D01*
X180832381Y-98583952D01*
X179832381Y-98583952D01*
X179832381Y-98250618D01*
X179880000Y-98155380D01*
X179927619Y-98107761D01*
X180022857Y-98060142D01*
X180118095Y-98060142D01*
X180213333Y-98107761D01*
X180260952Y-98155380D01*
X180308571Y-98250618D01*
X180308571Y-98583952D01*
X180308571Y-97583952D02*
X180308571Y-97250618D01*
X180832381Y-97107761D02*
X180832381Y-97583952D01*
X179832381Y-97583952D01*
X179832381Y-97107761D01*
X180737143Y-96107761D02*
X180784762Y-96155380D01*
X180832381Y-96298237D01*
X180832381Y-96393475D01*
X180784762Y-96536333D01*
X180689524Y-96631571D01*
X180594286Y-96679190D01*
X180403810Y-96726809D01*
X180260952Y-96726809D01*
X180070476Y-96679190D01*
X179975238Y-96631571D01*
X179880000Y-96536333D01*
X179832381Y-96393475D01*
X179832381Y-96298237D01*
X179880000Y-96155380D01*
X179927619Y-96107761D01*
X184483619Y-109806952D02*
X184436000Y-109902190D01*
X184340762Y-109997428D01*
X184197905Y-110140285D01*
X184150286Y-110235524D01*
X184150286Y-110330762D01*
X184388381Y-110283143D02*
X184340762Y-110378381D01*
X184245524Y-110473619D01*
X184055048Y-110521238D01*
X183721714Y-110521238D01*
X183531238Y-110473619D01*
X183436000Y-110378381D01*
X183388381Y-110283143D01*
X183388381Y-110092666D01*
X183436000Y-109997428D01*
X183531238Y-109902190D01*
X183721714Y-109854571D01*
X184055048Y-109854571D01*
X184245524Y-109902190D01*
X184340762Y-109997428D01*
X184388381Y-110092666D01*
X184388381Y-110283143D01*
X184483619Y-109664095D02*
X184483619Y-108902190D01*
X184388381Y-108664095D02*
X183388381Y-108664095D01*
X184388381Y-108092666D01*
X183388381Y-108092666D01*
X184388381Y-107616476D02*
X183388381Y-107616476D01*
X183388381Y-107235523D01*
X183436000Y-107140285D01*
X183483619Y-107092666D01*
X183578857Y-107045047D01*
X183721714Y-107045047D01*
X183816952Y-107092666D01*
X183864571Y-107140285D01*
X183912190Y-107235523D01*
X183912190Y-107616476D01*
X184388381Y-106616476D02*
X183388381Y-106616476D01*
X184388381Y-106045047D01*
X183388381Y-106045047D01*
X184483619Y-105806952D02*
X184483619Y-105045047D01*
X183864571Y-104473618D02*
X183912190Y-104330761D01*
X183959810Y-104283142D01*
X184055048Y-104235523D01*
X184197905Y-104235523D01*
X184293143Y-104283142D01*
X184340762Y-104330761D01*
X184388381Y-104425999D01*
X184388381Y-104806952D01*
X183388381Y-104806952D01*
X183388381Y-104473618D01*
X183436000Y-104378380D01*
X183483619Y-104330761D01*
X183578857Y-104283142D01*
X183674095Y-104283142D01*
X183769333Y-104330761D01*
X183816952Y-104378380D01*
X183864571Y-104473618D01*
X183864571Y-104806952D01*
X183864571Y-103806952D02*
X183864571Y-103473618D01*
X184388381Y-103330761D02*
X184388381Y-103806952D01*
X183388381Y-103806952D01*
X183388381Y-103330761D01*
X184293143Y-102330761D02*
X184340762Y-102378380D01*
X184388381Y-102521237D01*
X184388381Y-102616475D01*
X184340762Y-102759333D01*
X184245524Y-102854571D01*
X184150286Y-102902190D01*
X183959810Y-102949809D01*
X183816952Y-102949809D01*
X183626476Y-102902190D01*
X183531238Y-102854571D01*
X183436000Y-102759333D01*
X183388381Y-102616475D01*
X183388381Y-102521237D01*
X183436000Y-102378380D01*
X183483619Y-102330761D01*
X188039619Y-103583952D02*
X187992000Y-103679190D01*
X187896762Y-103774428D01*
X187753905Y-103917285D01*
X187706286Y-104012524D01*
X187706286Y-104107762D01*
X187944381Y-104060143D02*
X187896762Y-104155381D01*
X187801524Y-104250619D01*
X187611048Y-104298238D01*
X187277714Y-104298238D01*
X187087238Y-104250619D01*
X186992000Y-104155381D01*
X186944381Y-104060143D01*
X186944381Y-103869666D01*
X186992000Y-103774428D01*
X187087238Y-103679190D01*
X187277714Y-103631571D01*
X187611048Y-103631571D01*
X187801524Y-103679190D01*
X187896762Y-103774428D01*
X187944381Y-103869666D01*
X187944381Y-104060143D01*
X188039619Y-103441095D02*
X188039619Y-102679190D01*
X187944381Y-102441095D02*
X186944381Y-102441095D01*
X187944381Y-101869666D01*
X186944381Y-101869666D01*
X187944381Y-101393476D02*
X186944381Y-101393476D01*
X186944381Y-101012523D01*
X186992000Y-100917285D01*
X187039619Y-100869666D01*
X187134857Y-100822047D01*
X187277714Y-100822047D01*
X187372952Y-100869666D01*
X187420571Y-100917285D01*
X187468190Y-101012523D01*
X187468190Y-101393476D01*
X187944381Y-100393476D02*
X186944381Y-100393476D01*
X187944381Y-99822047D01*
X186944381Y-99822047D01*
X188039619Y-99583952D02*
X188039619Y-98822047D01*
X187420571Y-98250618D02*
X187468190Y-98107761D01*
X187515810Y-98060142D01*
X187611048Y-98012523D01*
X187753905Y-98012523D01*
X187849143Y-98060142D01*
X187896762Y-98107761D01*
X187944381Y-98202999D01*
X187944381Y-98583952D01*
X186944381Y-98583952D01*
X186944381Y-98250618D01*
X186992000Y-98155380D01*
X187039619Y-98107761D01*
X187134857Y-98060142D01*
X187230095Y-98060142D01*
X187325333Y-98107761D01*
X187372952Y-98155380D01*
X187420571Y-98250618D01*
X187420571Y-98583952D01*
X187420571Y-97583952D02*
X187420571Y-97250618D01*
X187944381Y-97107761D02*
X187944381Y-97583952D01*
X186944381Y-97583952D01*
X186944381Y-97107761D01*
X187849143Y-96107761D02*
X187896762Y-96155380D01*
X187944381Y-96298237D01*
X187944381Y-96393475D01*
X187896762Y-96536333D01*
X187801524Y-96631571D01*
X187706286Y-96679190D01*
X187515810Y-96726809D01*
X187372952Y-96726809D01*
X187182476Y-96679190D01*
X187087238Y-96631571D01*
X186992000Y-96536333D01*
X186944381Y-96393475D01*
X186944381Y-96298237D01*
X186992000Y-96155380D01*
X187039619Y-96107761D01*
X191595619Y-109806952D02*
X191548000Y-109902190D01*
X191452762Y-109997428D01*
X191309905Y-110140285D01*
X191262286Y-110235524D01*
X191262286Y-110330762D01*
X191500381Y-110283143D02*
X191452762Y-110378381D01*
X191357524Y-110473619D01*
X191167048Y-110521238D01*
X190833714Y-110521238D01*
X190643238Y-110473619D01*
X190548000Y-110378381D01*
X190500381Y-110283143D01*
X190500381Y-110092666D01*
X190548000Y-109997428D01*
X190643238Y-109902190D01*
X190833714Y-109854571D01*
X191167048Y-109854571D01*
X191357524Y-109902190D01*
X191452762Y-109997428D01*
X191500381Y-110092666D01*
X191500381Y-110283143D01*
X191595619Y-109664095D02*
X191595619Y-108902190D01*
X191500381Y-108664095D02*
X190500381Y-108664095D01*
X191500381Y-108092666D01*
X190500381Y-108092666D01*
X191500381Y-107616476D02*
X190500381Y-107616476D01*
X190500381Y-107235523D01*
X190548000Y-107140285D01*
X190595619Y-107092666D01*
X190690857Y-107045047D01*
X190833714Y-107045047D01*
X190928952Y-107092666D01*
X190976571Y-107140285D01*
X191024190Y-107235523D01*
X191024190Y-107616476D01*
X191500381Y-106616476D02*
X190500381Y-106616476D01*
X191500381Y-106045047D01*
X190500381Y-106045047D01*
X191595619Y-105806952D02*
X191595619Y-105045047D01*
X190976571Y-104473618D02*
X191024190Y-104330761D01*
X191071810Y-104283142D01*
X191167048Y-104235523D01*
X191309905Y-104235523D01*
X191405143Y-104283142D01*
X191452762Y-104330761D01*
X191500381Y-104425999D01*
X191500381Y-104806952D01*
X190500381Y-104806952D01*
X190500381Y-104473618D01*
X190548000Y-104378380D01*
X190595619Y-104330761D01*
X190690857Y-104283142D01*
X190786095Y-104283142D01*
X190881333Y-104330761D01*
X190928952Y-104378380D01*
X190976571Y-104473618D01*
X190976571Y-104806952D01*
X190976571Y-103806952D02*
X190976571Y-103473618D01*
X191500381Y-103330761D02*
X191500381Y-103806952D01*
X190500381Y-103806952D01*
X190500381Y-103330761D01*
X191405143Y-102330761D02*
X191452762Y-102378380D01*
X191500381Y-102521237D01*
X191500381Y-102616475D01*
X191452762Y-102759333D01*
X191357524Y-102854571D01*
X191262286Y-102902190D01*
X191071810Y-102949809D01*
X190928952Y-102949809D01*
X190738476Y-102902190D01*
X190643238Y-102854571D01*
X190548000Y-102759333D01*
X190500381Y-102616475D01*
X190500381Y-102521237D01*
X190548000Y-102378380D01*
X190595619Y-102330761D01*
X100105619Y-99302571D02*
X100058000Y-99397809D01*
X99962762Y-99493047D01*
X99819905Y-99635904D01*
X99772286Y-99731143D01*
X99772286Y-99826381D01*
X100010381Y-99778762D02*
X99962762Y-99874000D01*
X99867524Y-99969238D01*
X99677048Y-100016857D01*
X99343714Y-100016857D01*
X99153238Y-99969238D01*
X99058000Y-99874000D01*
X99010381Y-99778762D01*
X99010381Y-99588285D01*
X99058000Y-99493047D01*
X99153238Y-99397809D01*
X99343714Y-99350190D01*
X99677048Y-99350190D01*
X99867524Y-99397809D01*
X99962762Y-99493047D01*
X100010381Y-99588285D01*
X100010381Y-99778762D01*
X100105619Y-99159714D02*
X100105619Y-98397809D01*
X100010381Y-98159714D02*
X99010381Y-98159714D01*
X99010381Y-97778761D01*
X99058000Y-97683523D01*
X99105619Y-97635904D01*
X99200857Y-97588285D01*
X99343714Y-97588285D01*
X99438952Y-97635904D01*
X99486571Y-97683523D01*
X99534190Y-97778761D01*
X99534190Y-98159714D01*
X100010381Y-97159714D02*
X99010381Y-97159714D01*
X99724667Y-96826380D01*
X99010381Y-96493047D01*
X100010381Y-96493047D01*
X99010381Y-95826381D02*
X99010381Y-95635904D01*
X99058000Y-95540666D01*
X99153238Y-95445428D01*
X99343714Y-95397809D01*
X99677048Y-95397809D01*
X99867524Y-95445428D01*
X99962762Y-95540666D01*
X100010381Y-95635904D01*
X100010381Y-95826381D01*
X99962762Y-95921619D01*
X99867524Y-96016857D01*
X99677048Y-96064476D01*
X99343714Y-96064476D01*
X99153238Y-96016857D01*
X99058000Y-95921619D01*
X99010381Y-95826381D01*
X99962762Y-95016857D02*
X100010381Y-94874000D01*
X100010381Y-94635904D01*
X99962762Y-94540666D01*
X99915143Y-94493047D01*
X99819905Y-94445428D01*
X99724667Y-94445428D01*
X99629429Y-94493047D01*
X99581810Y-94540666D01*
X99534190Y-94635904D01*
X99486571Y-94826381D01*
X99438952Y-94921619D01*
X99391333Y-94969238D01*
X99296095Y-95016857D01*
X99200857Y-95016857D01*
X99105619Y-94969238D01*
X99058000Y-94921619D01*
X99010381Y-94826381D01*
X99010381Y-94588285D01*
X99058000Y-94445428D01*
X100105619Y-94254952D02*
X100105619Y-93493047D01*
X100010381Y-93254952D02*
X99010381Y-93254952D01*
X99010381Y-93016857D01*
X99058000Y-92873999D01*
X99153238Y-92778761D01*
X99248476Y-92731142D01*
X99438952Y-92683523D01*
X99581810Y-92683523D01*
X99772286Y-92731142D01*
X99867524Y-92778761D01*
X99962762Y-92873999D01*
X100010381Y-93016857D01*
X100010381Y-93254952D01*
X99058000Y-91731142D02*
X99010381Y-91826380D01*
X99010381Y-91969237D01*
X99058000Y-92112095D01*
X99153238Y-92207333D01*
X99248476Y-92254952D01*
X99438952Y-92302571D01*
X99581810Y-92302571D01*
X99772286Y-92254952D01*
X99867524Y-92207333D01*
X99962762Y-92112095D01*
X100010381Y-91969237D01*
X100010381Y-91873999D01*
X99962762Y-91731142D01*
X99915143Y-91683523D01*
X99581810Y-91683523D01*
X99581810Y-91873999D01*
X99962762Y-91302571D02*
X100010381Y-91159714D01*
X100010381Y-90921618D01*
X99962762Y-90826380D01*
X99915143Y-90778761D01*
X99819905Y-90731142D01*
X99724667Y-90731142D01*
X99629429Y-90778761D01*
X99581810Y-90826380D01*
X99534190Y-90921618D01*
X99486571Y-91112095D01*
X99438952Y-91207333D01*
X99391333Y-91254952D01*
X99296095Y-91302571D01*
X99200857Y-91302571D01*
X99105619Y-91254952D01*
X99058000Y-91207333D01*
X99010381Y-91112095D01*
X99010381Y-90873999D01*
X99058000Y-90731142D01*
X96909143Y-90828762D02*
X97052000Y-90876381D01*
X97290096Y-90876381D01*
X97385334Y-90828762D01*
X97432953Y-90781143D01*
X97480572Y-90685905D01*
X97480572Y-90590667D01*
X97432953Y-90495429D01*
X97385334Y-90447810D01*
X97290096Y-90400190D01*
X97099619Y-90352571D01*
X97004381Y-90304952D01*
X96956762Y-90257333D01*
X96909143Y-90162095D01*
X96909143Y-90066857D01*
X96956762Y-89971619D01*
X97004381Y-89924000D01*
X97099619Y-89876381D01*
X97337715Y-89876381D01*
X97480572Y-89924000D01*
X97909143Y-90876381D02*
X97909143Y-89876381D01*
X98290096Y-89876381D01*
X98385334Y-89924000D01*
X98432953Y-89971619D01*
X98480572Y-90066857D01*
X98480572Y-90209714D01*
X98432953Y-90304952D01*
X98385334Y-90352571D01*
X98290096Y-90400190D01*
X97909143Y-90400190D01*
X98861524Y-90828762D02*
X99004381Y-90876381D01*
X99242477Y-90876381D01*
X99337715Y-90828762D01*
X99385334Y-90781143D01*
X99432953Y-90685905D01*
X99432953Y-90590667D01*
X99385334Y-90495429D01*
X99337715Y-90447810D01*
X99242477Y-90400190D01*
X99052000Y-90352571D01*
X98956762Y-90304952D01*
X98909143Y-90257333D01*
X98861524Y-90162095D01*
X98861524Y-90066857D01*
X98909143Y-89971619D01*
X98956762Y-89924000D01*
X99052000Y-89876381D01*
X99290096Y-89876381D01*
X99432953Y-89924000D01*
X99718667Y-89876381D02*
X100290096Y-89876381D01*
X100004381Y-90876381D02*
X100004381Y-89876381D01*
X152757381Y-112407381D02*
X152185952Y-112407381D01*
X152471666Y-112407381D02*
X152471666Y-111407381D01*
X152376428Y-111550238D01*
X152281190Y-111645476D01*
X152185952Y-111693095D01*
X153376428Y-111407381D02*
X153471667Y-111407381D01*
X153566905Y-111455000D01*
X153614524Y-111502619D01*
X153662143Y-111597857D01*
X153709762Y-111788333D01*
X153709762Y-112026429D01*
X153662143Y-112216905D01*
X153614524Y-112312143D01*
X153566905Y-112359762D01*
X153471667Y-112407381D01*
X153376428Y-112407381D01*
X153281190Y-112359762D01*
X153233571Y-112312143D01*
X153185952Y-112216905D01*
X153138333Y-112026429D01*
X153138333Y-111788333D01*
X153185952Y-111597857D01*
X153233571Y-111502619D01*
X153281190Y-111455000D01*
X153376428Y-111407381D01*
X154328809Y-111407381D02*
X154424048Y-111407381D01*
X154519286Y-111455000D01*
X154566905Y-111502619D01*
X154614524Y-111597857D01*
X154662143Y-111788333D01*
X154662143Y-112026429D01*
X154614524Y-112216905D01*
X154566905Y-112312143D01*
X154519286Y-112359762D01*
X154424048Y-112407381D01*
X154328809Y-112407381D01*
X154233571Y-112359762D01*
X154185952Y-112312143D01*
X154138333Y-112216905D01*
X154090714Y-112026429D01*
X154090714Y-111788333D01*
X154138333Y-111597857D01*
X154185952Y-111502619D01*
X154233571Y-111455000D01*
X154328809Y-111407381D01*
X155090714Y-111740714D02*
X155090714Y-112407381D01*
X155090714Y-111835952D02*
X155138333Y-111788333D01*
X155233571Y-111740714D01*
X155376429Y-111740714D01*
X155471667Y-111788333D01*
X155519286Y-111883571D01*
X155519286Y-112407381D01*
X156328810Y-111883571D02*
X155995476Y-111883571D01*
X155995476Y-112407381D02*
X155995476Y-111407381D01*
X156471667Y-111407381D01*
X143867381Y-129230381D02*
X143295952Y-129230381D01*
X143581666Y-129230381D02*
X143581666Y-128230381D01*
X143486428Y-128373238D01*
X143391190Y-128468476D01*
X143295952Y-128516095D01*
X144486428Y-128230381D02*
X144581667Y-128230381D01*
X144676905Y-128278000D01*
X144724524Y-128325619D01*
X144772143Y-128420857D01*
X144819762Y-128611333D01*
X144819762Y-128849429D01*
X144772143Y-129039905D01*
X144724524Y-129135143D01*
X144676905Y-129182762D01*
X144581667Y-129230381D01*
X144486428Y-129230381D01*
X144391190Y-129182762D01*
X144343571Y-129135143D01*
X144295952Y-129039905D01*
X144248333Y-128849429D01*
X144248333Y-128611333D01*
X144295952Y-128420857D01*
X144343571Y-128325619D01*
X144391190Y-128278000D01*
X144486428Y-128230381D01*
X145438809Y-128230381D02*
X145534048Y-128230381D01*
X145629286Y-128278000D01*
X145676905Y-128325619D01*
X145724524Y-128420857D01*
X145772143Y-128611333D01*
X145772143Y-128849429D01*
X145724524Y-129039905D01*
X145676905Y-129135143D01*
X145629286Y-129182762D01*
X145534048Y-129230381D01*
X145438809Y-129230381D01*
X145343571Y-129182762D01*
X145295952Y-129135143D01*
X145248333Y-129039905D01*
X145200714Y-128849429D01*
X145200714Y-128611333D01*
X145248333Y-128420857D01*
X145295952Y-128325619D01*
X145343571Y-128278000D01*
X145438809Y-128230381D01*
X146200714Y-128563714D02*
X146200714Y-129230381D01*
X146200714Y-128658952D02*
X146248333Y-128611333D01*
X146343571Y-128563714D01*
X146486429Y-128563714D01*
X146581667Y-128611333D01*
X146629286Y-128706571D01*
X146629286Y-129230381D01*
X147438810Y-128706571D02*
X147105476Y-128706571D01*
X147105476Y-129230381D02*
X147105476Y-128230381D01*
X147581667Y-128230381D01*
X158492619Y-105528810D02*
X158445000Y-105481191D01*
X158397381Y-105385953D01*
X158397381Y-105147857D01*
X158445000Y-105052619D01*
X158492619Y-105005000D01*
X158587857Y-104957381D01*
X158683095Y-104957381D01*
X158825952Y-105005000D01*
X159397381Y-105576429D01*
X159397381Y-104957381D01*
X158492619Y-104576429D02*
X158445000Y-104528810D01*
X158397381Y-104433572D01*
X158397381Y-104195476D01*
X158445000Y-104100238D01*
X158492619Y-104052619D01*
X158587857Y-104005000D01*
X158683095Y-104005000D01*
X158825952Y-104052619D01*
X159397381Y-104624048D01*
X159397381Y-104005000D01*
X158730714Y-102814524D02*
X159730714Y-102814524D01*
X158778333Y-102814524D02*
X158730714Y-102719286D01*
X158730714Y-102528809D01*
X158778333Y-102433571D01*
X158825952Y-102385952D01*
X158921190Y-102338333D01*
X159206905Y-102338333D01*
X159302143Y-102385952D01*
X159349762Y-102433571D01*
X159397381Y-102528809D01*
X159397381Y-102719286D01*
X159349762Y-102814524D01*
X158873571Y-101576428D02*
X158873571Y-101909762D01*
X159397381Y-101909762D02*
X158397381Y-101909762D01*
X158397381Y-101433571D01*
X102592381Y-124912381D02*
X102020952Y-124912381D01*
X102306666Y-124912381D02*
X102306666Y-123912381D01*
X102211428Y-124055238D01*
X102116190Y-124150476D01*
X102020952Y-124198095D01*
X103211428Y-123912381D02*
X103306667Y-123912381D01*
X103401905Y-123960000D01*
X103449524Y-124007619D01*
X103497143Y-124102857D01*
X103544762Y-124293333D01*
X103544762Y-124531429D01*
X103497143Y-124721905D01*
X103449524Y-124817143D01*
X103401905Y-124864762D01*
X103306667Y-124912381D01*
X103211428Y-124912381D01*
X103116190Y-124864762D01*
X103068571Y-124817143D01*
X103020952Y-124721905D01*
X102973333Y-124531429D01*
X102973333Y-124293333D01*
X103020952Y-124102857D01*
X103068571Y-124007619D01*
X103116190Y-123960000D01*
X103211428Y-123912381D01*
X104163809Y-123912381D02*
X104259048Y-123912381D01*
X104354286Y-123960000D01*
X104401905Y-124007619D01*
X104449524Y-124102857D01*
X104497143Y-124293333D01*
X104497143Y-124531429D01*
X104449524Y-124721905D01*
X104401905Y-124817143D01*
X104354286Y-124864762D01*
X104259048Y-124912381D01*
X104163809Y-124912381D01*
X104068571Y-124864762D01*
X104020952Y-124817143D01*
X103973333Y-124721905D01*
X103925714Y-124531429D01*
X103925714Y-124293333D01*
X103973333Y-124102857D01*
X104020952Y-124007619D01*
X104068571Y-123960000D01*
X104163809Y-123912381D01*
X104925714Y-124245714D02*
X104925714Y-124912381D01*
X104925714Y-124340952D02*
X104973333Y-124293333D01*
X105068571Y-124245714D01*
X105211429Y-124245714D01*
X105306667Y-124293333D01*
X105354286Y-124388571D01*
X105354286Y-124912381D01*
X106163810Y-124388571D02*
X105830476Y-124388571D01*
X105830476Y-124912381D02*
X105830476Y-123912381D01*
X106306667Y-123912381D01*
X110529714Y-87836190D02*
X111196381Y-87836190D01*
X110148762Y-88074286D02*
X110863048Y-88312381D01*
X110863048Y-87693333D01*
X111101143Y-87312381D02*
X111148762Y-87264762D01*
X111196381Y-87312381D01*
X111148762Y-87360000D01*
X111101143Y-87312381D01*
X111196381Y-87312381D01*
X110196381Y-86931429D02*
X110196381Y-86264762D01*
X111196381Y-86693334D01*
X110529714Y-85883810D02*
X111529714Y-85883810D01*
X111053524Y-85407619D02*
X111148762Y-85360000D01*
X111196381Y-85264762D01*
X111053524Y-85883810D02*
X111148762Y-85836191D01*
X111196381Y-85740953D01*
X111196381Y-85550476D01*
X111148762Y-85455238D01*
X111053524Y-85407619D01*
X110529714Y-85407619D01*
X110672571Y-84502857D02*
X110672571Y-84836191D01*
X111196381Y-84836191D02*
X110196381Y-84836191D01*
X110196381Y-84360000D01*
X102909714Y-87328190D02*
X103576381Y-87328190D01*
X102528762Y-87566286D02*
X103243048Y-87804381D01*
X103243048Y-87185333D01*
X103481143Y-86804381D02*
X103528762Y-86756762D01*
X103576381Y-86804381D01*
X103528762Y-86852000D01*
X103481143Y-86804381D01*
X103576381Y-86804381D01*
X102576381Y-86423429D02*
X102576381Y-85756762D01*
X103576381Y-86185334D01*
X102909714Y-85375810D02*
X103909714Y-85375810D01*
X103433524Y-84899619D02*
X103528762Y-84852000D01*
X103576381Y-84756762D01*
X103433524Y-85375810D02*
X103528762Y-85328191D01*
X103576381Y-85232953D01*
X103576381Y-85042476D01*
X103528762Y-84947238D01*
X103433524Y-84899619D01*
X102909714Y-84899619D01*
X103052571Y-83994857D02*
X103052571Y-84328191D01*
X103576381Y-84328191D02*
X102576381Y-84328191D01*
X102576381Y-83852000D01*
X113736381Y-94614857D02*
X113736381Y-95186286D01*
X113736381Y-94900572D02*
X112736381Y-94900572D01*
X112879238Y-94995810D01*
X112974476Y-95091048D01*
X113022095Y-95186286D01*
X112736381Y-93995810D02*
X112736381Y-93900571D01*
X112784000Y-93805333D01*
X112831619Y-93757714D01*
X112926857Y-93710095D01*
X113117333Y-93662476D01*
X113355429Y-93662476D01*
X113545905Y-93710095D01*
X113641143Y-93757714D01*
X113688762Y-93805333D01*
X113736381Y-93900571D01*
X113736381Y-93995810D01*
X113688762Y-94091048D01*
X113641143Y-94138667D01*
X113545905Y-94186286D01*
X113355429Y-94233905D01*
X113117333Y-94233905D01*
X112926857Y-94186286D01*
X112831619Y-94138667D01*
X112784000Y-94091048D01*
X112736381Y-93995810D01*
X113069714Y-93233905D02*
X114069714Y-93233905D01*
X113593524Y-92757714D02*
X113688762Y-92710095D01*
X113736381Y-92614857D01*
X113593524Y-93233905D02*
X113688762Y-93186286D01*
X113736381Y-93091048D01*
X113736381Y-92900571D01*
X113688762Y-92805333D01*
X113593524Y-92757714D01*
X113069714Y-92757714D01*
X113212571Y-91852952D02*
X113212571Y-92186286D01*
X113736381Y-92186286D02*
X112736381Y-92186286D01*
X112736381Y-91710095D01*
X99512381Y-107822857D02*
X99512381Y-108394286D01*
X99512381Y-108108572D02*
X98512381Y-108108572D01*
X98655238Y-108203810D01*
X98750476Y-108299048D01*
X98798095Y-108394286D01*
X98512381Y-107203810D02*
X98512381Y-107108571D01*
X98560000Y-107013333D01*
X98607619Y-106965714D01*
X98702857Y-106918095D01*
X98893333Y-106870476D01*
X99131429Y-106870476D01*
X99321905Y-106918095D01*
X99417143Y-106965714D01*
X99464762Y-107013333D01*
X99512381Y-107108571D01*
X99512381Y-107203810D01*
X99464762Y-107299048D01*
X99417143Y-107346667D01*
X99321905Y-107394286D01*
X99131429Y-107441905D01*
X98893333Y-107441905D01*
X98702857Y-107394286D01*
X98607619Y-107346667D01*
X98560000Y-107299048D01*
X98512381Y-107203810D01*
X98845714Y-106441905D02*
X99845714Y-106441905D01*
X99369524Y-105965714D02*
X99464762Y-105918095D01*
X99512381Y-105822857D01*
X99369524Y-106441905D02*
X99464762Y-106394286D01*
X99512381Y-106299048D01*
X99512381Y-106108571D01*
X99464762Y-106013333D01*
X99369524Y-105965714D01*
X98845714Y-105965714D01*
X98988571Y-105060952D02*
X98988571Y-105394286D01*
X99512381Y-105394286D02*
X98512381Y-105394286D01*
X98512381Y-104918095D01*
X106624381Y-108735619D02*
X106624381Y-109307048D01*
X106624381Y-109021334D02*
X105624381Y-109021334D01*
X105767238Y-109116572D01*
X105862476Y-109211810D01*
X105910095Y-109307048D01*
X105624381Y-108116572D02*
X105624381Y-108021333D01*
X105672000Y-107926095D01*
X105719619Y-107878476D01*
X105814857Y-107830857D01*
X106005333Y-107783238D01*
X106243429Y-107783238D01*
X106433905Y-107830857D01*
X106529143Y-107878476D01*
X106576762Y-107926095D01*
X106624381Y-108021333D01*
X106624381Y-108116572D01*
X106576762Y-108211810D01*
X106529143Y-108259429D01*
X106433905Y-108307048D01*
X106243429Y-108354667D01*
X106005333Y-108354667D01*
X105814857Y-108307048D01*
X105719619Y-108259429D01*
X105672000Y-108211810D01*
X105624381Y-108116572D01*
X105624381Y-107164191D02*
X105624381Y-107068952D01*
X105672000Y-106973714D01*
X105719619Y-106926095D01*
X105814857Y-106878476D01*
X106005333Y-106830857D01*
X106243429Y-106830857D01*
X106433905Y-106878476D01*
X106529143Y-106926095D01*
X106576762Y-106973714D01*
X106624381Y-107068952D01*
X106624381Y-107164191D01*
X106576762Y-107259429D01*
X106529143Y-107307048D01*
X106433905Y-107354667D01*
X106243429Y-107402286D01*
X106005333Y-107402286D01*
X105814857Y-107354667D01*
X105719619Y-107307048D01*
X105672000Y-107259429D01*
X105624381Y-107164191D01*
X105957714Y-106402286D02*
X106624381Y-106402286D01*
X106052952Y-106402286D02*
X106005333Y-106354667D01*
X105957714Y-106259429D01*
X105957714Y-106116571D01*
X106005333Y-106021333D01*
X106100571Y-105973714D01*
X106624381Y-105973714D01*
X106100571Y-105164190D02*
X106100571Y-105497524D01*
X106624381Y-105497524D02*
X105624381Y-105497524D01*
X105624381Y-105021333D01*
X108656381Y-108330857D02*
X108656381Y-108902286D01*
X108656381Y-108616572D02*
X107656381Y-108616572D01*
X107799238Y-108711810D01*
X107894476Y-108807048D01*
X107942095Y-108902286D01*
X107656381Y-107711810D02*
X107656381Y-107616571D01*
X107704000Y-107521333D01*
X107751619Y-107473714D01*
X107846857Y-107426095D01*
X108037333Y-107378476D01*
X108275429Y-107378476D01*
X108465905Y-107426095D01*
X108561143Y-107473714D01*
X108608762Y-107521333D01*
X108656381Y-107616571D01*
X108656381Y-107711810D01*
X108608762Y-107807048D01*
X108561143Y-107854667D01*
X108465905Y-107902286D01*
X108275429Y-107949905D01*
X108037333Y-107949905D01*
X107846857Y-107902286D01*
X107751619Y-107854667D01*
X107704000Y-107807048D01*
X107656381Y-107711810D01*
X107989714Y-106949905D02*
X108989714Y-106949905D01*
X108513524Y-106473714D02*
X108608762Y-106426095D01*
X108656381Y-106330857D01*
X108513524Y-106949905D02*
X108608762Y-106902286D01*
X108656381Y-106807048D01*
X108656381Y-106616571D01*
X108608762Y-106521333D01*
X108513524Y-106473714D01*
X107989714Y-106473714D01*
X108132571Y-105568952D02*
X108132571Y-105902286D01*
X108656381Y-105902286D02*
X107656381Y-105902286D01*
X107656381Y-105426095D01*
X111196381Y-108330857D02*
X111196381Y-108902286D01*
X111196381Y-108616572D02*
X110196381Y-108616572D01*
X110339238Y-108711810D01*
X110434476Y-108807048D01*
X110482095Y-108902286D01*
X110196381Y-107711810D02*
X110196381Y-107616571D01*
X110244000Y-107521333D01*
X110291619Y-107473714D01*
X110386857Y-107426095D01*
X110577333Y-107378476D01*
X110815429Y-107378476D01*
X111005905Y-107426095D01*
X111101143Y-107473714D01*
X111148762Y-107521333D01*
X111196381Y-107616571D01*
X111196381Y-107711810D01*
X111148762Y-107807048D01*
X111101143Y-107854667D01*
X111005905Y-107902286D01*
X110815429Y-107949905D01*
X110577333Y-107949905D01*
X110386857Y-107902286D01*
X110291619Y-107854667D01*
X110244000Y-107807048D01*
X110196381Y-107711810D01*
X110529714Y-106949905D02*
X111529714Y-106949905D01*
X111053524Y-106473714D02*
X111148762Y-106426095D01*
X111196381Y-106330857D01*
X111053524Y-106949905D02*
X111148762Y-106902286D01*
X111196381Y-106807048D01*
X111196381Y-106616571D01*
X111148762Y-106521333D01*
X111053524Y-106473714D01*
X110529714Y-106473714D01*
X110672571Y-105568952D02*
X110672571Y-105902286D01*
X111196381Y-105902286D02*
X110196381Y-105902286D01*
X110196381Y-105426095D01*
X142184381Y-128230238D02*
X142184381Y-128801667D01*
X142184381Y-128515953D02*
X141184381Y-128515953D01*
X141327238Y-128611191D01*
X141422476Y-128706429D01*
X141470095Y-128801667D01*
X141184381Y-127611191D02*
X141184381Y-127515952D01*
X141232000Y-127420714D01*
X141279619Y-127373095D01*
X141374857Y-127325476D01*
X141565333Y-127277857D01*
X141803429Y-127277857D01*
X141993905Y-127325476D01*
X142089143Y-127373095D01*
X142136762Y-127420714D01*
X142184381Y-127515952D01*
X142184381Y-127611191D01*
X142136762Y-127706429D01*
X142089143Y-127754048D01*
X141993905Y-127801667D01*
X141803429Y-127849286D01*
X141565333Y-127849286D01*
X141374857Y-127801667D01*
X141279619Y-127754048D01*
X141232000Y-127706429D01*
X141184381Y-127611191D01*
X142184381Y-126849286D02*
X141184381Y-126849286D01*
X141803429Y-126754048D02*
X142184381Y-126468333D01*
X141517714Y-126468333D02*
X141898667Y-126849286D01*
X135294762Y-114947381D02*
X134723333Y-114947381D01*
X135009047Y-114947381D02*
X135009047Y-113947381D01*
X134913809Y-114090238D01*
X134818571Y-114185476D01*
X134723333Y-114233095D01*
X135913809Y-113947381D02*
X136009048Y-113947381D01*
X136104286Y-113995000D01*
X136151905Y-114042619D01*
X136199524Y-114137857D01*
X136247143Y-114328333D01*
X136247143Y-114566429D01*
X136199524Y-114756905D01*
X136151905Y-114852143D01*
X136104286Y-114899762D01*
X136009048Y-114947381D01*
X135913809Y-114947381D01*
X135818571Y-114899762D01*
X135770952Y-114852143D01*
X135723333Y-114756905D01*
X135675714Y-114566429D01*
X135675714Y-114328333D01*
X135723333Y-114137857D01*
X135770952Y-114042619D01*
X135818571Y-113995000D01*
X135913809Y-113947381D01*
X136675714Y-114947381D02*
X136675714Y-113947381D01*
X136770952Y-114566429D02*
X137056667Y-114947381D01*
X137056667Y-114280714D02*
X136675714Y-114661667D01*
X135294762Y-117487381D02*
X134723333Y-117487381D01*
X135009047Y-117487381D02*
X135009047Y-116487381D01*
X134913809Y-116630238D01*
X134818571Y-116725476D01*
X134723333Y-116773095D01*
X135913809Y-116487381D02*
X136009048Y-116487381D01*
X136104286Y-116535000D01*
X136151905Y-116582619D01*
X136199524Y-116677857D01*
X136247143Y-116868333D01*
X136247143Y-117106429D01*
X136199524Y-117296905D01*
X136151905Y-117392143D01*
X136104286Y-117439762D01*
X136009048Y-117487381D01*
X135913809Y-117487381D01*
X135818571Y-117439762D01*
X135770952Y-117392143D01*
X135723333Y-117296905D01*
X135675714Y-117106429D01*
X135675714Y-116868333D01*
X135723333Y-116677857D01*
X135770952Y-116582619D01*
X135818571Y-116535000D01*
X135913809Y-116487381D01*
X136675714Y-117487381D02*
X136675714Y-116487381D01*
X136770952Y-117106429D02*
X137056667Y-117487381D01*
X137056667Y-116820714D02*
X136675714Y-117201667D01*
X135294762Y-120027381D02*
X134723333Y-120027381D01*
X135009047Y-120027381D02*
X135009047Y-119027381D01*
X134913809Y-119170238D01*
X134818571Y-119265476D01*
X134723333Y-119313095D01*
X135913809Y-119027381D02*
X136009048Y-119027381D01*
X136104286Y-119075000D01*
X136151905Y-119122619D01*
X136199524Y-119217857D01*
X136247143Y-119408333D01*
X136247143Y-119646429D01*
X136199524Y-119836905D01*
X136151905Y-119932143D01*
X136104286Y-119979762D01*
X136009048Y-120027381D01*
X135913809Y-120027381D01*
X135818571Y-119979762D01*
X135770952Y-119932143D01*
X135723333Y-119836905D01*
X135675714Y-119646429D01*
X135675714Y-119408333D01*
X135723333Y-119217857D01*
X135770952Y-119122619D01*
X135818571Y-119075000D01*
X135913809Y-119027381D01*
X136675714Y-120027381D02*
X136675714Y-119027381D01*
X136770952Y-119646429D02*
X137056667Y-120027381D01*
X137056667Y-119360714D02*
X136675714Y-119741667D01*
X149117381Y-89550714D02*
X149117381Y-88931666D01*
X149498333Y-89265000D01*
X149498333Y-89122142D01*
X149545952Y-89026904D01*
X149593571Y-88979285D01*
X149688810Y-88931666D01*
X149926905Y-88931666D01*
X150022143Y-88979285D01*
X150069762Y-89026904D01*
X150117381Y-89122142D01*
X150117381Y-89407857D01*
X150069762Y-89503095D01*
X150022143Y-89550714D01*
X149117381Y-88598333D02*
X149117381Y-87979285D01*
X149498333Y-88312619D01*
X149498333Y-88169761D01*
X149545952Y-88074523D01*
X149593571Y-88026904D01*
X149688810Y-87979285D01*
X149926905Y-87979285D01*
X150022143Y-88026904D01*
X150069762Y-88074523D01*
X150117381Y-88169761D01*
X150117381Y-88455476D01*
X150069762Y-88550714D01*
X150022143Y-88598333D01*
X149117381Y-87360238D02*
X149117381Y-87264999D01*
X149165000Y-87169761D01*
X149212619Y-87122142D01*
X149307857Y-87074523D01*
X149498333Y-87026904D01*
X149736429Y-87026904D01*
X149926905Y-87074523D01*
X150022143Y-87122142D01*
X150069762Y-87169761D01*
X150117381Y-87264999D01*
X150117381Y-87360238D01*
X150069762Y-87455476D01*
X150022143Y-87503095D01*
X149926905Y-87550714D01*
X149736429Y-87598333D01*
X149498333Y-87598333D01*
X149307857Y-87550714D01*
X149212619Y-87503095D01*
X149165000Y-87455476D01*
X149117381Y-87360238D01*
X134604286Y-88987381D02*
X135223334Y-88987381D01*
X134890000Y-89368333D01*
X135032858Y-89368333D01*
X135128096Y-89415952D01*
X135175715Y-89463571D01*
X135223334Y-89558810D01*
X135223334Y-89796905D01*
X135175715Y-89892143D01*
X135128096Y-89939762D01*
X135032858Y-89987381D01*
X134747143Y-89987381D01*
X134651905Y-89939762D01*
X134604286Y-89892143D01*
X135556667Y-88987381D02*
X136175715Y-88987381D01*
X135842381Y-89368333D01*
X135985239Y-89368333D01*
X136080477Y-89415952D01*
X136128096Y-89463571D01*
X136175715Y-89558810D01*
X136175715Y-89796905D01*
X136128096Y-89892143D01*
X136080477Y-89939762D01*
X135985239Y-89987381D01*
X135699524Y-89987381D01*
X135604286Y-89939762D01*
X135556667Y-89892143D01*
X136794762Y-88987381D02*
X136890001Y-88987381D01*
X136985239Y-89035000D01*
X137032858Y-89082619D01*
X137080477Y-89177857D01*
X137128096Y-89368333D01*
X137128096Y-89606429D01*
X137080477Y-89796905D01*
X137032858Y-89892143D01*
X136985239Y-89939762D01*
X136890001Y-89987381D01*
X136794762Y-89987381D01*
X136699524Y-89939762D01*
X136651905Y-89892143D01*
X136604286Y-89796905D01*
X136556667Y-89606429D01*
X136556667Y-89368333D01*
X136604286Y-89177857D01*
X136651905Y-89082619D01*
X136699524Y-89035000D01*
X136794762Y-88987381D01*
X134604286Y-91527381D02*
X135223334Y-91527381D01*
X134890000Y-91908333D01*
X135032858Y-91908333D01*
X135128096Y-91955952D01*
X135175715Y-92003571D01*
X135223334Y-92098810D01*
X135223334Y-92336905D01*
X135175715Y-92432143D01*
X135128096Y-92479762D01*
X135032858Y-92527381D01*
X134747143Y-92527381D01*
X134651905Y-92479762D01*
X134604286Y-92432143D01*
X135556667Y-91527381D02*
X136175715Y-91527381D01*
X135842381Y-91908333D01*
X135985239Y-91908333D01*
X136080477Y-91955952D01*
X136128096Y-92003571D01*
X136175715Y-92098810D01*
X136175715Y-92336905D01*
X136128096Y-92432143D01*
X136080477Y-92479762D01*
X135985239Y-92527381D01*
X135699524Y-92527381D01*
X135604286Y-92479762D01*
X135556667Y-92432143D01*
X136794762Y-91527381D02*
X136890001Y-91527381D01*
X136985239Y-91575000D01*
X137032858Y-91622619D01*
X137080477Y-91717857D01*
X137128096Y-91908333D01*
X137128096Y-92146429D01*
X137080477Y-92336905D01*
X137032858Y-92432143D01*
X136985239Y-92479762D01*
X136890001Y-92527381D01*
X136794762Y-92527381D01*
X136699524Y-92479762D01*
X136651905Y-92432143D01*
X136604286Y-92336905D01*
X136556667Y-92146429D01*
X136556667Y-91908333D01*
X136604286Y-91717857D01*
X136651905Y-91622619D01*
X136699524Y-91575000D01*
X136794762Y-91527381D01*
X134604286Y-94067381D02*
X135223334Y-94067381D01*
X134890000Y-94448333D01*
X135032858Y-94448333D01*
X135128096Y-94495952D01*
X135175715Y-94543571D01*
X135223334Y-94638810D01*
X135223334Y-94876905D01*
X135175715Y-94972143D01*
X135128096Y-95019762D01*
X135032858Y-95067381D01*
X134747143Y-95067381D01*
X134651905Y-95019762D01*
X134604286Y-94972143D01*
X135556667Y-94067381D02*
X136175715Y-94067381D01*
X135842381Y-94448333D01*
X135985239Y-94448333D01*
X136080477Y-94495952D01*
X136128096Y-94543571D01*
X136175715Y-94638810D01*
X136175715Y-94876905D01*
X136128096Y-94972143D01*
X136080477Y-95019762D01*
X135985239Y-95067381D01*
X135699524Y-95067381D01*
X135604286Y-95019762D01*
X135556667Y-94972143D01*
X136794762Y-94067381D02*
X136890001Y-94067381D01*
X136985239Y-94115000D01*
X137032858Y-94162619D01*
X137080477Y-94257857D01*
X137128096Y-94448333D01*
X137128096Y-94686429D01*
X137080477Y-94876905D01*
X137032858Y-94972143D01*
X136985239Y-95019762D01*
X136890001Y-95067381D01*
X136794762Y-95067381D01*
X136699524Y-95019762D01*
X136651905Y-94972143D01*
X136604286Y-94876905D01*
X136556667Y-94686429D01*
X136556667Y-94448333D01*
X136604286Y-94257857D01*
X136651905Y-94162619D01*
X136699524Y-94115000D01*
X136794762Y-94067381D01*
X134604286Y-96607381D02*
X135223334Y-96607381D01*
X134890000Y-96988333D01*
X135032858Y-96988333D01*
X135128096Y-97035952D01*
X135175715Y-97083571D01*
X135223334Y-97178810D01*
X135223334Y-97416905D01*
X135175715Y-97512143D01*
X135128096Y-97559762D01*
X135032858Y-97607381D01*
X134747143Y-97607381D01*
X134651905Y-97559762D01*
X134604286Y-97512143D01*
X135556667Y-96607381D02*
X136175715Y-96607381D01*
X135842381Y-96988333D01*
X135985239Y-96988333D01*
X136080477Y-97035952D01*
X136128096Y-97083571D01*
X136175715Y-97178810D01*
X136175715Y-97416905D01*
X136128096Y-97512143D01*
X136080477Y-97559762D01*
X135985239Y-97607381D01*
X135699524Y-97607381D01*
X135604286Y-97559762D01*
X135556667Y-97512143D01*
X136794762Y-96607381D02*
X136890001Y-96607381D01*
X136985239Y-96655000D01*
X137032858Y-96702619D01*
X137080477Y-96797857D01*
X137128096Y-96988333D01*
X137128096Y-97226429D01*
X137080477Y-97416905D01*
X137032858Y-97512143D01*
X136985239Y-97559762D01*
X136890001Y-97607381D01*
X136794762Y-97607381D01*
X136699524Y-97559762D01*
X136651905Y-97512143D01*
X136604286Y-97416905D01*
X136556667Y-97226429D01*
X136556667Y-96988333D01*
X136604286Y-96797857D01*
X136651905Y-96702619D01*
X136699524Y-96655000D01*
X136794762Y-96607381D01*
X134604286Y-99147381D02*
X135223334Y-99147381D01*
X134890000Y-99528333D01*
X135032858Y-99528333D01*
X135128096Y-99575952D01*
X135175715Y-99623571D01*
X135223334Y-99718810D01*
X135223334Y-99956905D01*
X135175715Y-100052143D01*
X135128096Y-100099762D01*
X135032858Y-100147381D01*
X134747143Y-100147381D01*
X134651905Y-100099762D01*
X134604286Y-100052143D01*
X135556667Y-99147381D02*
X136175715Y-99147381D01*
X135842381Y-99528333D01*
X135985239Y-99528333D01*
X136080477Y-99575952D01*
X136128096Y-99623571D01*
X136175715Y-99718810D01*
X136175715Y-99956905D01*
X136128096Y-100052143D01*
X136080477Y-100099762D01*
X135985239Y-100147381D01*
X135699524Y-100147381D01*
X135604286Y-100099762D01*
X135556667Y-100052143D01*
X136794762Y-99147381D02*
X136890001Y-99147381D01*
X136985239Y-99195000D01*
X137032858Y-99242619D01*
X137080477Y-99337857D01*
X137128096Y-99528333D01*
X137128096Y-99766429D01*
X137080477Y-99956905D01*
X137032858Y-100052143D01*
X136985239Y-100099762D01*
X136890001Y-100147381D01*
X136794762Y-100147381D01*
X136699524Y-100099762D01*
X136651905Y-100052143D01*
X136604286Y-99956905D01*
X136556667Y-99766429D01*
X136556667Y-99528333D01*
X136604286Y-99337857D01*
X136651905Y-99242619D01*
X136699524Y-99195000D01*
X136794762Y-99147381D01*
X117228953Y-123896381D02*
X116657524Y-123896381D01*
X116943238Y-123896381D02*
X116943238Y-122896381D01*
X116848000Y-123039238D01*
X116752762Y-123134476D01*
X116657524Y-123182095D01*
X117657524Y-123896381D02*
X117657524Y-122896381D01*
X117752762Y-123515429D02*
X118038477Y-123896381D01*
X118038477Y-123229714D02*
X117657524Y-123610667D01*
X116784381Y-120451428D02*
X116784381Y-121022857D01*
X116784381Y-120737143D02*
X115784381Y-120737143D01*
X115927238Y-120832381D01*
X116022476Y-120927619D01*
X116070095Y-121022857D01*
X115784381Y-119832381D02*
X115784381Y-119737142D01*
X115832000Y-119641904D01*
X115879619Y-119594285D01*
X115974857Y-119546666D01*
X116165333Y-119499047D01*
X116403429Y-119499047D01*
X116593905Y-119546666D01*
X116689143Y-119594285D01*
X116736762Y-119641904D01*
X116784381Y-119737142D01*
X116784381Y-119832381D01*
X116736762Y-119927619D01*
X116689143Y-119975238D01*
X116593905Y-120022857D01*
X116403429Y-120070476D01*
X116165333Y-120070476D01*
X115974857Y-120022857D01*
X115879619Y-119975238D01*
X115832000Y-119927619D01*
X115784381Y-119832381D01*
X115784381Y-118880000D02*
X115784381Y-118784761D01*
X115832000Y-118689523D01*
X115879619Y-118641904D01*
X115974857Y-118594285D01*
X116165333Y-118546666D01*
X116403429Y-118546666D01*
X116593905Y-118594285D01*
X116689143Y-118641904D01*
X116736762Y-118689523D01*
X116784381Y-118784761D01*
X116784381Y-118880000D01*
X116736762Y-118975238D01*
X116689143Y-119022857D01*
X116593905Y-119070476D01*
X116403429Y-119118095D01*
X116165333Y-119118095D01*
X115974857Y-119070476D01*
X115879619Y-119022857D01*
X115832000Y-118975238D01*
X115784381Y-118880000D01*
X116784381Y-118118095D02*
X115784381Y-118118095D01*
X116403429Y-118022857D02*
X116784381Y-117737142D01*
X116117714Y-117737142D02*
X116498667Y-118118095D01*
X110688572Y-128976381D02*
X110117143Y-128976381D01*
X110402857Y-128976381D02*
X110402857Y-127976381D01*
X110307619Y-128119238D01*
X110212381Y-128214476D01*
X110117143Y-128262095D01*
X111307619Y-127976381D02*
X111402858Y-127976381D01*
X111498096Y-128024000D01*
X111545715Y-128071619D01*
X111593334Y-128166857D01*
X111640953Y-128357333D01*
X111640953Y-128595429D01*
X111593334Y-128785905D01*
X111545715Y-128881143D01*
X111498096Y-128928762D01*
X111402858Y-128976381D01*
X111307619Y-128976381D01*
X111212381Y-128928762D01*
X111164762Y-128881143D01*
X111117143Y-128785905D01*
X111069524Y-128595429D01*
X111069524Y-128357333D01*
X111117143Y-128166857D01*
X111164762Y-128071619D01*
X111212381Y-128024000D01*
X111307619Y-127976381D01*
X112260000Y-127976381D02*
X112355239Y-127976381D01*
X112450477Y-128024000D01*
X112498096Y-128071619D01*
X112545715Y-128166857D01*
X112593334Y-128357333D01*
X112593334Y-128595429D01*
X112545715Y-128785905D01*
X112498096Y-128881143D01*
X112450477Y-128928762D01*
X112355239Y-128976381D01*
X112260000Y-128976381D01*
X112164762Y-128928762D01*
X112117143Y-128881143D01*
X112069524Y-128785905D01*
X112021905Y-128595429D01*
X112021905Y-128357333D01*
X112069524Y-128166857D01*
X112117143Y-128071619D01*
X112164762Y-128024000D01*
X112260000Y-127976381D01*
X113021905Y-128976381D02*
X113021905Y-127976381D01*
X113117143Y-128595429D02*
X113402858Y-128976381D01*
X113402858Y-128309714D02*
X113021905Y-128690667D01*
X116895619Y-131206476D02*
X116848000Y-131158857D01*
X116800381Y-131063619D01*
X116800381Y-130825523D01*
X116848000Y-130730285D01*
X116895619Y-130682666D01*
X116990857Y-130635047D01*
X117086095Y-130635047D01*
X117228952Y-130682666D01*
X117800381Y-131254095D01*
X117800381Y-130635047D01*
X117228952Y-130063619D02*
X117181333Y-130158857D01*
X117133714Y-130206476D01*
X117038476Y-130254095D01*
X116990857Y-130254095D01*
X116895619Y-130206476D01*
X116848000Y-130158857D01*
X116800381Y-130063619D01*
X116800381Y-129873142D01*
X116848000Y-129777904D01*
X116895619Y-129730285D01*
X116990857Y-129682666D01*
X117038476Y-129682666D01*
X117133714Y-129730285D01*
X117181333Y-129777904D01*
X117228952Y-129873142D01*
X117228952Y-130063619D01*
X117276571Y-130158857D01*
X117324190Y-130206476D01*
X117419429Y-130254095D01*
X117609905Y-130254095D01*
X117705143Y-130206476D01*
X117752762Y-130158857D01*
X117800381Y-130063619D01*
X117800381Y-129873142D01*
X117752762Y-129777904D01*
X117705143Y-129730285D01*
X117609905Y-129682666D01*
X117419429Y-129682666D01*
X117324190Y-129730285D01*
X117276571Y-129777904D01*
X117228952Y-129873142D01*
X116800381Y-129063619D02*
X116800381Y-128968380D01*
X116848000Y-128873142D01*
X116895619Y-128825523D01*
X116990857Y-128777904D01*
X117181333Y-128730285D01*
X117419429Y-128730285D01*
X117609905Y-128777904D01*
X117705143Y-128825523D01*
X117752762Y-128873142D01*
X117800381Y-128968380D01*
X117800381Y-129063619D01*
X117752762Y-129158857D01*
X117705143Y-129206476D01*
X117609905Y-129254095D01*
X117419429Y-129301714D01*
X117181333Y-129301714D01*
X116990857Y-129254095D01*
X116895619Y-129206476D01*
X116848000Y-129158857D01*
X116800381Y-129063619D01*
X116752762Y-127587428D02*
X118038476Y-128444571D01*
X116800381Y-127349333D02*
X116800381Y-126730285D01*
X117181333Y-127063619D01*
X117181333Y-126920761D01*
X117228952Y-126825523D01*
X117276571Y-126777904D01*
X117371810Y-126730285D01*
X117609905Y-126730285D01*
X117705143Y-126777904D01*
X117752762Y-126825523D01*
X117800381Y-126920761D01*
X117800381Y-127206476D01*
X117752762Y-127301714D01*
X117705143Y-127349333D01*
X116800381Y-126396952D02*
X116800381Y-125730285D01*
X117800381Y-126158857D01*
X117133714Y-124920761D02*
X117800381Y-124920761D01*
X116752762Y-125158857D02*
X117467048Y-125396952D01*
X117467048Y-124777904D01*
X164552381Y-94757714D02*
X164552381Y-94138666D01*
X164933333Y-94472000D01*
X164933333Y-94329142D01*
X164980952Y-94233904D01*
X165028571Y-94186285D01*
X165123810Y-94138666D01*
X165361905Y-94138666D01*
X165457143Y-94186285D01*
X165504762Y-94233904D01*
X165552381Y-94329142D01*
X165552381Y-94614857D01*
X165504762Y-94710095D01*
X165457143Y-94757714D01*
X164552381Y-93805333D02*
X164552381Y-93186285D01*
X164933333Y-93519619D01*
X164933333Y-93376761D01*
X164980952Y-93281523D01*
X165028571Y-93233904D01*
X165123810Y-93186285D01*
X165361905Y-93186285D01*
X165457143Y-93233904D01*
X165504762Y-93281523D01*
X165552381Y-93376761D01*
X165552381Y-93662476D01*
X165504762Y-93757714D01*
X165457143Y-93805333D01*
X164552381Y-92567238D02*
X164552381Y-92471999D01*
X164600000Y-92376761D01*
X164647619Y-92329142D01*
X164742857Y-92281523D01*
X164933333Y-92233904D01*
X165171429Y-92233904D01*
X165361905Y-92281523D01*
X165457143Y-92329142D01*
X165504762Y-92376761D01*
X165552381Y-92471999D01*
X165552381Y-92567238D01*
X165504762Y-92662476D01*
X165457143Y-92710095D01*
X165361905Y-92757714D01*
X165171429Y-92805333D01*
X164933333Y-92805333D01*
X164742857Y-92757714D01*
X164647619Y-92710095D01*
X164600000Y-92662476D01*
X164552381Y-92567238D01*
X167092381Y-94757714D02*
X167092381Y-94138666D01*
X167473333Y-94472000D01*
X167473333Y-94329142D01*
X167520952Y-94233904D01*
X167568571Y-94186285D01*
X167663810Y-94138666D01*
X167901905Y-94138666D01*
X167997143Y-94186285D01*
X168044762Y-94233904D01*
X168092381Y-94329142D01*
X168092381Y-94614857D01*
X168044762Y-94710095D01*
X167997143Y-94757714D01*
X167092381Y-93805333D02*
X167092381Y-93186285D01*
X167473333Y-93519619D01*
X167473333Y-93376761D01*
X167520952Y-93281523D01*
X167568571Y-93233904D01*
X167663810Y-93186285D01*
X167901905Y-93186285D01*
X167997143Y-93233904D01*
X168044762Y-93281523D01*
X168092381Y-93376761D01*
X168092381Y-93662476D01*
X168044762Y-93757714D01*
X167997143Y-93805333D01*
X167092381Y-92567238D02*
X167092381Y-92471999D01*
X167140000Y-92376761D01*
X167187619Y-92329142D01*
X167282857Y-92281523D01*
X167473333Y-92233904D01*
X167711429Y-92233904D01*
X167901905Y-92281523D01*
X167997143Y-92329142D01*
X168044762Y-92376761D01*
X168092381Y-92471999D01*
X168092381Y-92567238D01*
X168044762Y-92662476D01*
X167997143Y-92710095D01*
X167901905Y-92757714D01*
X167711429Y-92805333D01*
X167473333Y-92805333D01*
X167282857Y-92757714D01*
X167187619Y-92710095D01*
X167140000Y-92662476D01*
X167092381Y-92567238D01*
X169632381Y-94757714D02*
X169632381Y-94138666D01*
X170013333Y-94472000D01*
X170013333Y-94329142D01*
X170060952Y-94233904D01*
X170108571Y-94186285D01*
X170203810Y-94138666D01*
X170441905Y-94138666D01*
X170537143Y-94186285D01*
X170584762Y-94233904D01*
X170632381Y-94329142D01*
X170632381Y-94614857D01*
X170584762Y-94710095D01*
X170537143Y-94757714D01*
X169632381Y-93805333D02*
X169632381Y-93186285D01*
X170013333Y-93519619D01*
X170013333Y-93376761D01*
X170060952Y-93281523D01*
X170108571Y-93233904D01*
X170203810Y-93186285D01*
X170441905Y-93186285D01*
X170537143Y-93233904D01*
X170584762Y-93281523D01*
X170632381Y-93376761D01*
X170632381Y-93662476D01*
X170584762Y-93757714D01*
X170537143Y-93805333D01*
X169632381Y-92567238D02*
X169632381Y-92471999D01*
X169680000Y-92376761D01*
X169727619Y-92329142D01*
X169822857Y-92281523D01*
X170013333Y-92233904D01*
X170251429Y-92233904D01*
X170441905Y-92281523D01*
X170537143Y-92329142D01*
X170584762Y-92376761D01*
X170632381Y-92471999D01*
X170632381Y-92567238D01*
X170584762Y-92662476D01*
X170537143Y-92710095D01*
X170441905Y-92757714D01*
X170251429Y-92805333D01*
X170013333Y-92805333D01*
X169822857Y-92757714D01*
X169727619Y-92710095D01*
X169680000Y-92662476D01*
X169632381Y-92567238D01*
X172172381Y-94757714D02*
X172172381Y-94138666D01*
X172553333Y-94472000D01*
X172553333Y-94329142D01*
X172600952Y-94233904D01*
X172648571Y-94186285D01*
X172743810Y-94138666D01*
X172981905Y-94138666D01*
X173077143Y-94186285D01*
X173124762Y-94233904D01*
X173172381Y-94329142D01*
X173172381Y-94614857D01*
X173124762Y-94710095D01*
X173077143Y-94757714D01*
X172172381Y-93805333D02*
X172172381Y-93186285D01*
X172553333Y-93519619D01*
X172553333Y-93376761D01*
X172600952Y-93281523D01*
X172648571Y-93233904D01*
X172743810Y-93186285D01*
X172981905Y-93186285D01*
X173077143Y-93233904D01*
X173124762Y-93281523D01*
X173172381Y-93376761D01*
X173172381Y-93662476D01*
X173124762Y-93757714D01*
X173077143Y-93805333D01*
X172172381Y-92567238D02*
X172172381Y-92471999D01*
X172220000Y-92376761D01*
X172267619Y-92329142D01*
X172362857Y-92281523D01*
X172553333Y-92233904D01*
X172791429Y-92233904D01*
X172981905Y-92281523D01*
X173077143Y-92329142D01*
X173124762Y-92376761D01*
X173172381Y-92471999D01*
X173172381Y-92567238D01*
X173124762Y-92662476D01*
X173077143Y-92710095D01*
X172981905Y-92757714D01*
X172791429Y-92805333D01*
X172553333Y-92805333D01*
X172362857Y-92757714D01*
X172267619Y-92710095D01*
X172220000Y-92662476D01*
X172172381Y-92567238D01*
X174712381Y-94757714D02*
X174712381Y-94138666D01*
X175093333Y-94472000D01*
X175093333Y-94329142D01*
X175140952Y-94233904D01*
X175188571Y-94186285D01*
X175283810Y-94138666D01*
X175521905Y-94138666D01*
X175617143Y-94186285D01*
X175664762Y-94233904D01*
X175712381Y-94329142D01*
X175712381Y-94614857D01*
X175664762Y-94710095D01*
X175617143Y-94757714D01*
X174712381Y-93805333D02*
X174712381Y-93186285D01*
X175093333Y-93519619D01*
X175093333Y-93376761D01*
X175140952Y-93281523D01*
X175188571Y-93233904D01*
X175283810Y-93186285D01*
X175521905Y-93186285D01*
X175617143Y-93233904D01*
X175664762Y-93281523D01*
X175712381Y-93376761D01*
X175712381Y-93662476D01*
X175664762Y-93757714D01*
X175617143Y-93805333D01*
X174712381Y-92567238D02*
X174712381Y-92471999D01*
X174760000Y-92376761D01*
X174807619Y-92329142D01*
X174902857Y-92281523D01*
X175093333Y-92233904D01*
X175331429Y-92233904D01*
X175521905Y-92281523D01*
X175617143Y-92329142D01*
X175664762Y-92376761D01*
X175712381Y-92471999D01*
X175712381Y-92567238D01*
X175664762Y-92662476D01*
X175617143Y-92710095D01*
X175521905Y-92757714D01*
X175331429Y-92805333D01*
X175093333Y-92805333D01*
X174902857Y-92757714D01*
X174807619Y-92710095D01*
X174760000Y-92662476D01*
X174712381Y-92567238D01*
X177252381Y-94757714D02*
X177252381Y-94138666D01*
X177633333Y-94472000D01*
X177633333Y-94329142D01*
X177680952Y-94233904D01*
X177728571Y-94186285D01*
X177823810Y-94138666D01*
X178061905Y-94138666D01*
X178157143Y-94186285D01*
X178204762Y-94233904D01*
X178252381Y-94329142D01*
X178252381Y-94614857D01*
X178204762Y-94710095D01*
X178157143Y-94757714D01*
X177252381Y-93805333D02*
X177252381Y-93186285D01*
X177633333Y-93519619D01*
X177633333Y-93376761D01*
X177680952Y-93281523D01*
X177728571Y-93233904D01*
X177823810Y-93186285D01*
X178061905Y-93186285D01*
X178157143Y-93233904D01*
X178204762Y-93281523D01*
X178252381Y-93376761D01*
X178252381Y-93662476D01*
X178204762Y-93757714D01*
X178157143Y-93805333D01*
X177252381Y-92567238D02*
X177252381Y-92471999D01*
X177300000Y-92376761D01*
X177347619Y-92329142D01*
X177442857Y-92281523D01*
X177633333Y-92233904D01*
X177871429Y-92233904D01*
X178061905Y-92281523D01*
X178157143Y-92329142D01*
X178204762Y-92376761D01*
X178252381Y-92471999D01*
X178252381Y-92567238D01*
X178204762Y-92662476D01*
X178157143Y-92710095D01*
X178061905Y-92757714D01*
X177871429Y-92805333D01*
X177633333Y-92805333D01*
X177442857Y-92757714D01*
X177347619Y-92710095D01*
X177300000Y-92662476D01*
X177252381Y-92567238D01*
X179792381Y-94757714D02*
X179792381Y-94138666D01*
X180173333Y-94472000D01*
X180173333Y-94329142D01*
X180220952Y-94233904D01*
X180268571Y-94186285D01*
X180363810Y-94138666D01*
X180601905Y-94138666D01*
X180697143Y-94186285D01*
X180744762Y-94233904D01*
X180792381Y-94329142D01*
X180792381Y-94614857D01*
X180744762Y-94710095D01*
X180697143Y-94757714D01*
X179792381Y-93805333D02*
X179792381Y-93186285D01*
X180173333Y-93519619D01*
X180173333Y-93376761D01*
X180220952Y-93281523D01*
X180268571Y-93233904D01*
X180363810Y-93186285D01*
X180601905Y-93186285D01*
X180697143Y-93233904D01*
X180744762Y-93281523D01*
X180792381Y-93376761D01*
X180792381Y-93662476D01*
X180744762Y-93757714D01*
X180697143Y-93805333D01*
X179792381Y-92567238D02*
X179792381Y-92471999D01*
X179840000Y-92376761D01*
X179887619Y-92329142D01*
X179982857Y-92281523D01*
X180173333Y-92233904D01*
X180411429Y-92233904D01*
X180601905Y-92281523D01*
X180697143Y-92329142D01*
X180744762Y-92376761D01*
X180792381Y-92471999D01*
X180792381Y-92567238D01*
X180744762Y-92662476D01*
X180697143Y-92710095D01*
X180601905Y-92757714D01*
X180411429Y-92805333D01*
X180173333Y-92805333D01*
X179982857Y-92757714D01*
X179887619Y-92710095D01*
X179840000Y-92662476D01*
X179792381Y-92567238D01*
X182332381Y-94757714D02*
X182332381Y-94138666D01*
X182713333Y-94472000D01*
X182713333Y-94329142D01*
X182760952Y-94233904D01*
X182808571Y-94186285D01*
X182903810Y-94138666D01*
X183141905Y-94138666D01*
X183237143Y-94186285D01*
X183284762Y-94233904D01*
X183332381Y-94329142D01*
X183332381Y-94614857D01*
X183284762Y-94710095D01*
X183237143Y-94757714D01*
X182332381Y-93805333D02*
X182332381Y-93186285D01*
X182713333Y-93519619D01*
X182713333Y-93376761D01*
X182760952Y-93281523D01*
X182808571Y-93233904D01*
X182903810Y-93186285D01*
X183141905Y-93186285D01*
X183237143Y-93233904D01*
X183284762Y-93281523D01*
X183332381Y-93376761D01*
X183332381Y-93662476D01*
X183284762Y-93757714D01*
X183237143Y-93805333D01*
X182332381Y-92567238D02*
X182332381Y-92471999D01*
X182380000Y-92376761D01*
X182427619Y-92329142D01*
X182522857Y-92281523D01*
X182713333Y-92233904D01*
X182951429Y-92233904D01*
X183141905Y-92281523D01*
X183237143Y-92329142D01*
X183284762Y-92376761D01*
X183332381Y-92471999D01*
X183332381Y-92567238D01*
X183284762Y-92662476D01*
X183237143Y-92710095D01*
X183141905Y-92757714D01*
X182951429Y-92805333D01*
X182713333Y-92805333D01*
X182522857Y-92757714D01*
X182427619Y-92710095D01*
X182380000Y-92662476D01*
X182332381Y-92567238D01*
X184872381Y-94757714D02*
X184872381Y-94138666D01*
X185253333Y-94472000D01*
X185253333Y-94329142D01*
X185300952Y-94233904D01*
X185348571Y-94186285D01*
X185443810Y-94138666D01*
X185681905Y-94138666D01*
X185777143Y-94186285D01*
X185824762Y-94233904D01*
X185872381Y-94329142D01*
X185872381Y-94614857D01*
X185824762Y-94710095D01*
X185777143Y-94757714D01*
X184872381Y-93805333D02*
X184872381Y-93186285D01*
X185253333Y-93519619D01*
X185253333Y-93376761D01*
X185300952Y-93281523D01*
X185348571Y-93233904D01*
X185443810Y-93186285D01*
X185681905Y-93186285D01*
X185777143Y-93233904D01*
X185824762Y-93281523D01*
X185872381Y-93376761D01*
X185872381Y-93662476D01*
X185824762Y-93757714D01*
X185777143Y-93805333D01*
X184872381Y-92567238D02*
X184872381Y-92471999D01*
X184920000Y-92376761D01*
X184967619Y-92329142D01*
X185062857Y-92281523D01*
X185253333Y-92233904D01*
X185491429Y-92233904D01*
X185681905Y-92281523D01*
X185777143Y-92329142D01*
X185824762Y-92376761D01*
X185872381Y-92471999D01*
X185872381Y-92567238D01*
X185824762Y-92662476D01*
X185777143Y-92710095D01*
X185681905Y-92757714D01*
X185491429Y-92805333D01*
X185253333Y-92805333D01*
X185062857Y-92757714D01*
X184967619Y-92710095D01*
X184920000Y-92662476D01*
X184872381Y-92567238D01*
X187412381Y-94757714D02*
X187412381Y-94138666D01*
X187793333Y-94472000D01*
X187793333Y-94329142D01*
X187840952Y-94233904D01*
X187888571Y-94186285D01*
X187983810Y-94138666D01*
X188221905Y-94138666D01*
X188317143Y-94186285D01*
X188364762Y-94233904D01*
X188412381Y-94329142D01*
X188412381Y-94614857D01*
X188364762Y-94710095D01*
X188317143Y-94757714D01*
X187412381Y-93805333D02*
X187412381Y-93186285D01*
X187793333Y-93519619D01*
X187793333Y-93376761D01*
X187840952Y-93281523D01*
X187888571Y-93233904D01*
X187983810Y-93186285D01*
X188221905Y-93186285D01*
X188317143Y-93233904D01*
X188364762Y-93281523D01*
X188412381Y-93376761D01*
X188412381Y-93662476D01*
X188364762Y-93757714D01*
X188317143Y-93805333D01*
X187412381Y-92567238D02*
X187412381Y-92471999D01*
X187460000Y-92376761D01*
X187507619Y-92329142D01*
X187602857Y-92281523D01*
X187793333Y-92233904D01*
X188031429Y-92233904D01*
X188221905Y-92281523D01*
X188317143Y-92329142D01*
X188364762Y-92376761D01*
X188412381Y-92471999D01*
X188412381Y-92567238D01*
X188364762Y-92662476D01*
X188317143Y-92710095D01*
X188221905Y-92757714D01*
X188031429Y-92805333D01*
X187793333Y-92805333D01*
X187602857Y-92757714D01*
X187507619Y-92710095D01*
X187460000Y-92662476D01*
X187412381Y-92567238D01*
X189952381Y-94757714D02*
X189952381Y-94138666D01*
X190333333Y-94472000D01*
X190333333Y-94329142D01*
X190380952Y-94233904D01*
X190428571Y-94186285D01*
X190523810Y-94138666D01*
X190761905Y-94138666D01*
X190857143Y-94186285D01*
X190904762Y-94233904D01*
X190952381Y-94329142D01*
X190952381Y-94614857D01*
X190904762Y-94710095D01*
X190857143Y-94757714D01*
X189952381Y-93805333D02*
X189952381Y-93186285D01*
X190333333Y-93519619D01*
X190333333Y-93376761D01*
X190380952Y-93281523D01*
X190428571Y-93233904D01*
X190523810Y-93186285D01*
X190761905Y-93186285D01*
X190857143Y-93233904D01*
X190904762Y-93281523D01*
X190952381Y-93376761D01*
X190952381Y-93662476D01*
X190904762Y-93757714D01*
X190857143Y-93805333D01*
X189952381Y-92567238D02*
X189952381Y-92471999D01*
X190000000Y-92376761D01*
X190047619Y-92329142D01*
X190142857Y-92281523D01*
X190333333Y-92233904D01*
X190571429Y-92233904D01*
X190761905Y-92281523D01*
X190857143Y-92329142D01*
X190904762Y-92376761D01*
X190952381Y-92471999D01*
X190952381Y-92567238D01*
X190904762Y-92662476D01*
X190857143Y-92710095D01*
X190761905Y-92757714D01*
X190571429Y-92805333D01*
X190333333Y-92805333D01*
X190142857Y-92757714D01*
X190047619Y-92710095D01*
X190000000Y-92662476D01*
X189952381Y-92567238D01*
X105449714Y-82041904D02*
X106116381Y-82041904D01*
X105068762Y-82280000D02*
X105783048Y-82518095D01*
X105783048Y-81899047D01*
X105116381Y-81613333D02*
X105116381Y-80946666D01*
X106116381Y-81375238D01*
X105116381Y-80375238D02*
X105116381Y-80279999D01*
X105164000Y-80184761D01*
X105211619Y-80137142D01*
X105306857Y-80089523D01*
X105497333Y-80041904D01*
X105735429Y-80041904D01*
X105925905Y-80089523D01*
X106021143Y-80137142D01*
X106068762Y-80184761D01*
X106116381Y-80279999D01*
X106116381Y-80375238D01*
X106068762Y-80470476D01*
X106021143Y-80518095D01*
X105925905Y-80565714D01*
X105735429Y-80613333D01*
X105497333Y-80613333D01*
X105306857Y-80565714D01*
X105211619Y-80518095D01*
X105164000Y-80470476D01*
X105116381Y-80375238D01*
X108529524Y-81843619D02*
X108577143Y-81796000D01*
X108672381Y-81748381D01*
X108910477Y-81748381D01*
X109005715Y-81796000D01*
X109053334Y-81843619D01*
X109100953Y-81938857D01*
X109100953Y-82034095D01*
X109053334Y-82176952D01*
X108481905Y-82748381D01*
X109100953Y-82748381D01*
X109529524Y-82748381D02*
X109529524Y-81748381D01*
X109624762Y-82367429D02*
X109910477Y-82748381D01*
X109910477Y-82081714D02*
X109529524Y-82462667D01*
X108529524Y-90987619D02*
X108577143Y-90940000D01*
X108672381Y-90892381D01*
X108910477Y-90892381D01*
X109005715Y-90940000D01*
X109053334Y-90987619D01*
X109100953Y-91082857D01*
X109100953Y-91178095D01*
X109053334Y-91320952D01*
X108481905Y-91892381D01*
X109100953Y-91892381D01*
X109529524Y-91892381D02*
X109529524Y-90892381D01*
X109624762Y-91511429D02*
X109910477Y-91892381D01*
X109910477Y-91225714D02*
X109529524Y-91606667D01*
X96067619Y-108759428D02*
X96020000Y-108711809D01*
X95972381Y-108616571D01*
X95972381Y-108378475D01*
X96020000Y-108283237D01*
X96067619Y-108235618D01*
X96162857Y-108187999D01*
X96258095Y-108187999D01*
X96400952Y-108235618D01*
X96972381Y-108807047D01*
X96972381Y-108187999D01*
X96877143Y-107759428D02*
X96924762Y-107711809D01*
X96972381Y-107759428D01*
X96924762Y-107807047D01*
X96877143Y-107759428D01*
X96972381Y-107759428D01*
X96305714Y-106854666D02*
X96972381Y-106854666D01*
X95924762Y-107092762D02*
X96639048Y-107330857D01*
X96639048Y-106711809D01*
X96972381Y-106330857D02*
X95972381Y-106330857D01*
X96686667Y-105997523D01*
X95972381Y-105664190D01*
X96972381Y-105664190D01*
X96401143Y-111307619D02*
X96448762Y-111260000D01*
X96544000Y-111212381D01*
X96782096Y-111212381D01*
X96877334Y-111260000D01*
X96924953Y-111307619D01*
X96972572Y-111402857D01*
X96972572Y-111498095D01*
X96924953Y-111640952D01*
X96353524Y-112212381D01*
X96972572Y-112212381D01*
X97353524Y-111307619D02*
X97401143Y-111260000D01*
X97496381Y-111212381D01*
X97734477Y-111212381D01*
X97829715Y-111260000D01*
X97877334Y-111307619D01*
X97924953Y-111402857D01*
X97924953Y-111498095D01*
X97877334Y-111640952D01*
X97305905Y-112212381D01*
X97924953Y-112212381D01*
X98544000Y-111212381D02*
X98639239Y-111212381D01*
X98734477Y-111260000D01*
X98782096Y-111307619D01*
X98829715Y-111402857D01*
X98877334Y-111593333D01*
X98877334Y-111831429D01*
X98829715Y-112021905D01*
X98782096Y-112117143D01*
X98734477Y-112164762D01*
X98639239Y-112212381D01*
X98544000Y-112212381D01*
X98448762Y-112164762D01*
X98401143Y-112117143D01*
X98353524Y-112021905D01*
X98305905Y-111831429D01*
X98305905Y-111593333D01*
X98353524Y-111402857D01*
X98401143Y-111307619D01*
X98448762Y-111260000D01*
X98544000Y-111212381D01*
X99305905Y-112212381D02*
X99305905Y-111212381D01*
X99401143Y-111831429D02*
X99686858Y-112212381D01*
X99686858Y-111545714D02*
X99305905Y-111926667D01*
X105719619Y-113839428D02*
X105672000Y-113791809D01*
X105624381Y-113696571D01*
X105624381Y-113458475D01*
X105672000Y-113363237D01*
X105719619Y-113315618D01*
X105814857Y-113267999D01*
X105910095Y-113267999D01*
X106052952Y-113315618D01*
X106624381Y-113887047D01*
X106624381Y-113267999D01*
X106529143Y-112839428D02*
X106576762Y-112791809D01*
X106624381Y-112839428D01*
X106576762Y-112887047D01*
X106529143Y-112839428D01*
X106624381Y-112839428D01*
X105957714Y-111934666D02*
X106624381Y-111934666D01*
X105576762Y-112172762D02*
X106291048Y-112410857D01*
X106291048Y-111791809D01*
X106624381Y-111410857D02*
X105624381Y-111410857D01*
X106338667Y-111077523D01*
X105624381Y-110744190D01*
X106624381Y-110744190D01*
X103179619Y-115942857D02*
X103132000Y-115895238D01*
X103084381Y-115800000D01*
X103084381Y-115561904D01*
X103132000Y-115466666D01*
X103179619Y-115419047D01*
X103274857Y-115371428D01*
X103370095Y-115371428D01*
X103512952Y-115419047D01*
X104084381Y-115990476D01*
X104084381Y-115371428D01*
X103084381Y-114514285D02*
X103084381Y-114704762D01*
X103132000Y-114800000D01*
X103179619Y-114847619D01*
X103322476Y-114942857D01*
X103512952Y-114990476D01*
X103893905Y-114990476D01*
X103989143Y-114942857D01*
X104036762Y-114895238D01*
X104084381Y-114800000D01*
X104084381Y-114609523D01*
X104036762Y-114514285D01*
X103989143Y-114466666D01*
X103893905Y-114419047D01*
X103655810Y-114419047D01*
X103560571Y-114466666D01*
X103512952Y-114514285D01*
X103465333Y-114609523D01*
X103465333Y-114800000D01*
X103512952Y-114895238D01*
X103560571Y-114942857D01*
X103655810Y-114990476D01*
X103084381Y-114085714D02*
X103084381Y-113419047D01*
X104084381Y-113847619D01*
X104084381Y-113038095D02*
X103084381Y-113038095D01*
X103703429Y-112942857D02*
X104084381Y-112657142D01*
X103417714Y-112657142D02*
X103798667Y-113038095D01*
X102068381Y-111338857D02*
X102068381Y-110767428D01*
X103068381Y-111053143D02*
X102068381Y-111053143D01*
X103068381Y-110434095D02*
X102068381Y-110434095D01*
X102068381Y-110053142D01*
X102116000Y-109957904D01*
X102163619Y-109910285D01*
X102258857Y-109862666D01*
X102401714Y-109862666D01*
X102496952Y-109910285D01*
X102544571Y-109957904D01*
X102592190Y-110053142D01*
X102592190Y-110434095D01*
X103020762Y-109481714D02*
X103068381Y-109338857D01*
X103068381Y-109100761D01*
X103020762Y-109005523D01*
X102973143Y-108957904D01*
X102877905Y-108910285D01*
X102782667Y-108910285D01*
X102687429Y-108957904D01*
X102639810Y-109005523D01*
X102592190Y-109100761D01*
X102544571Y-109291238D01*
X102496952Y-109386476D01*
X102449333Y-109434095D01*
X102354095Y-109481714D01*
X102258857Y-109481714D01*
X102163619Y-109434095D01*
X102116000Y-109386476D01*
X102068381Y-109291238D01*
X102068381Y-109053142D01*
X102116000Y-108910285D01*
X102068381Y-108053142D02*
X102068381Y-108243619D01*
X102116000Y-108338857D01*
X102163619Y-108386476D01*
X102306476Y-108481714D01*
X102496952Y-108529333D01*
X102877905Y-108529333D01*
X102973143Y-108481714D01*
X103020762Y-108434095D01*
X103068381Y-108338857D01*
X103068381Y-108148380D01*
X103020762Y-108053142D01*
X102973143Y-108005523D01*
X102877905Y-107957904D01*
X102639810Y-107957904D01*
X102544571Y-108005523D01*
X102496952Y-108053142D01*
X102449333Y-108148380D01*
X102449333Y-108338857D01*
X102496952Y-108434095D01*
X102544571Y-108481714D01*
X102639810Y-108529333D01*
X103068381Y-107005523D02*
X103068381Y-107576952D01*
X103068381Y-107291238D02*
X102068381Y-107291238D01*
X102211238Y-107386476D01*
X102306476Y-107481714D01*
X102354095Y-107576952D01*
X102163619Y-106624571D02*
X102116000Y-106576952D01*
X102068381Y-106481714D01*
X102068381Y-106243618D01*
X102116000Y-106148380D01*
X102163619Y-106100761D01*
X102258857Y-106053142D01*
X102354095Y-106053142D01*
X102496952Y-106100761D01*
X103068381Y-106672190D01*
X103068381Y-106053142D01*
X102068381Y-105434095D02*
X102068381Y-105338856D01*
X102116000Y-105243618D01*
X102163619Y-105195999D01*
X102258857Y-105148380D01*
X102449333Y-105100761D01*
X102687429Y-105100761D01*
X102877905Y-105148380D01*
X102973143Y-105195999D01*
X103020762Y-105243618D01*
X103068381Y-105338856D01*
X103068381Y-105434095D01*
X103020762Y-105529333D01*
X102973143Y-105576952D01*
X102877905Y-105624571D01*
X102687429Y-105672190D01*
X102449333Y-105672190D01*
X102258857Y-105624571D01*
X102163619Y-105576952D01*
X102116000Y-105529333D01*
X102068381Y-105434095D01*
X102068381Y-104481714D02*
X102068381Y-104386475D01*
X102116000Y-104291237D01*
X102163619Y-104243618D01*
X102258857Y-104195999D01*
X102449333Y-104148380D01*
X102687429Y-104148380D01*
X102877905Y-104195999D01*
X102973143Y-104243618D01*
X103020762Y-104291237D01*
X103068381Y-104386475D01*
X103068381Y-104481714D01*
X103020762Y-104576952D01*
X102973143Y-104624571D01*
X102877905Y-104672190D01*
X102687429Y-104719809D01*
X102449333Y-104719809D01*
X102258857Y-104672190D01*
X102163619Y-104624571D01*
X102116000Y-104576952D01*
X102068381Y-104481714D01*
X171180476Y-84383571D02*
X171323333Y-84431190D01*
X171370952Y-84478810D01*
X171418571Y-84574048D01*
X171418571Y-84716905D01*
X171370952Y-84812143D01*
X171323333Y-84859762D01*
X171228095Y-84907381D01*
X170847142Y-84907381D01*
X170847142Y-83907381D01*
X171180476Y-83907381D01*
X171275714Y-83955000D01*
X171323333Y-84002619D01*
X171370952Y-84097857D01*
X171370952Y-84193095D01*
X171323333Y-84288333D01*
X171275714Y-84335952D01*
X171180476Y-84383571D01*
X170847142Y-84383571D01*
X172275714Y-84907381D02*
X172275714Y-84383571D01*
X172228095Y-84288333D01*
X172132857Y-84240714D01*
X171942380Y-84240714D01*
X171847142Y-84288333D01*
X172275714Y-84859762D02*
X172180476Y-84907381D01*
X171942380Y-84907381D01*
X171847142Y-84859762D01*
X171799523Y-84764524D01*
X171799523Y-84669286D01*
X171847142Y-84574048D01*
X171942380Y-84526429D01*
X172180476Y-84526429D01*
X172275714Y-84478810D01*
X172751904Y-84907381D02*
X172751904Y-84240714D01*
X172751904Y-84431190D02*
X172799523Y-84335952D01*
X172847142Y-84288333D01*
X172942380Y-84240714D01*
X173037619Y-84240714D01*
X173799524Y-84240714D02*
X173799524Y-85050238D01*
X173751905Y-85145476D01*
X173704286Y-85193095D01*
X173609047Y-85240714D01*
X173466190Y-85240714D01*
X173370952Y-85193095D01*
X173799524Y-84859762D02*
X173704286Y-84907381D01*
X173513809Y-84907381D01*
X173418571Y-84859762D01*
X173370952Y-84812143D01*
X173323333Y-84716905D01*
X173323333Y-84431190D01*
X173370952Y-84335952D01*
X173418571Y-84288333D01*
X173513809Y-84240714D01*
X173704286Y-84240714D01*
X173799524Y-84288333D01*
X174275714Y-84907381D02*
X174275714Y-84240714D01*
X174275714Y-84431190D02*
X174323333Y-84335952D01*
X174370952Y-84288333D01*
X174466190Y-84240714D01*
X174561429Y-84240714D01*
X175323334Y-84907381D02*
X175323334Y-84383571D01*
X175275715Y-84288333D01*
X175180477Y-84240714D01*
X174990000Y-84240714D01*
X174894762Y-84288333D01*
X175323334Y-84859762D02*
X175228096Y-84907381D01*
X174990000Y-84907381D01*
X174894762Y-84859762D01*
X174847143Y-84764524D01*
X174847143Y-84669286D01*
X174894762Y-84574048D01*
X174990000Y-84526429D01*
X175228096Y-84526429D01*
X175323334Y-84478810D01*
X175799524Y-84240714D02*
X175799524Y-85240714D01*
X175799524Y-84288333D02*
X175894762Y-84240714D01*
X176085239Y-84240714D01*
X176180477Y-84288333D01*
X176228096Y-84335952D01*
X176275715Y-84431190D01*
X176275715Y-84716905D01*
X176228096Y-84812143D01*
X176180477Y-84859762D01*
X176085239Y-84907381D01*
X175894762Y-84907381D01*
X175799524Y-84859762D01*
X176704286Y-84907381D02*
X176704286Y-83907381D01*
X177132858Y-84907381D02*
X177132858Y-84383571D01*
X177085239Y-84288333D01*
X176990001Y-84240714D01*
X176847143Y-84240714D01*
X176751905Y-84288333D01*
X176704286Y-84335952D01*
X165044381Y-100639428D02*
X165044381Y-101210857D01*
X165044381Y-100925143D02*
X164044381Y-100925143D01*
X164187238Y-101020381D01*
X164282476Y-101115619D01*
X164330095Y-101210857D01*
X164139619Y-100258476D02*
X164092000Y-100210857D01*
X164044381Y-100115619D01*
X164044381Y-99877523D01*
X164092000Y-99782285D01*
X164139619Y-99734666D01*
X164234857Y-99687047D01*
X164330095Y-99687047D01*
X164472952Y-99734666D01*
X165044381Y-100306095D01*
X165044381Y-99687047D01*
X164044381Y-98782285D02*
X164044381Y-99258476D01*
X164520571Y-99306095D01*
X164472952Y-99258476D01*
X164425333Y-99163238D01*
X164425333Y-98925142D01*
X164472952Y-98829904D01*
X164520571Y-98782285D01*
X164615810Y-98734666D01*
X164853905Y-98734666D01*
X164949143Y-98782285D01*
X164996762Y-98829904D01*
X165044381Y-98925142D01*
X165044381Y-99163238D01*
X164996762Y-99258476D01*
X164949143Y-99306095D01*
X165044381Y-98306095D02*
X164044381Y-98306095D01*
X164663429Y-98210857D02*
X165044381Y-97925142D01*
X164377714Y-97925142D02*
X164758667Y-98306095D01*
X166500381Y-107497428D02*
X166500381Y-108068857D01*
X166500381Y-107783143D02*
X165500381Y-107783143D01*
X165643238Y-107878381D01*
X165738476Y-107973619D01*
X165786095Y-108068857D01*
X165595619Y-107116476D02*
X165548000Y-107068857D01*
X165500381Y-106973619D01*
X165500381Y-106735523D01*
X165548000Y-106640285D01*
X165595619Y-106592666D01*
X165690857Y-106545047D01*
X165786095Y-106545047D01*
X165928952Y-106592666D01*
X166500381Y-107164095D01*
X166500381Y-106545047D01*
X165500381Y-105640285D02*
X165500381Y-106116476D01*
X165976571Y-106164095D01*
X165928952Y-106116476D01*
X165881333Y-106021238D01*
X165881333Y-105783142D01*
X165928952Y-105687904D01*
X165976571Y-105640285D01*
X166071810Y-105592666D01*
X166309905Y-105592666D01*
X166405143Y-105640285D01*
X166452762Y-105687904D01*
X166500381Y-105783142D01*
X166500381Y-106021238D01*
X166452762Y-106116476D01*
X166405143Y-106164095D01*
X166500381Y-105164095D02*
X165500381Y-105164095D01*
X166119429Y-105068857D02*
X166500381Y-104783142D01*
X165833714Y-104783142D02*
X166214667Y-105164095D01*
X172156381Y-100639428D02*
X172156381Y-101210857D01*
X172156381Y-100925143D02*
X171156381Y-100925143D01*
X171299238Y-101020381D01*
X171394476Y-101115619D01*
X171442095Y-101210857D01*
X171251619Y-100258476D02*
X171204000Y-100210857D01*
X171156381Y-100115619D01*
X171156381Y-99877523D01*
X171204000Y-99782285D01*
X171251619Y-99734666D01*
X171346857Y-99687047D01*
X171442095Y-99687047D01*
X171584952Y-99734666D01*
X172156381Y-100306095D01*
X172156381Y-99687047D01*
X171156381Y-98782285D02*
X171156381Y-99258476D01*
X171632571Y-99306095D01*
X171584952Y-99258476D01*
X171537333Y-99163238D01*
X171537333Y-98925142D01*
X171584952Y-98829904D01*
X171632571Y-98782285D01*
X171727810Y-98734666D01*
X171965905Y-98734666D01*
X172061143Y-98782285D01*
X172108762Y-98829904D01*
X172156381Y-98925142D01*
X172156381Y-99163238D01*
X172108762Y-99258476D01*
X172061143Y-99306095D01*
X172156381Y-98306095D02*
X171156381Y-98306095D01*
X171775429Y-98210857D02*
X172156381Y-97925142D01*
X171489714Y-97925142D02*
X171870667Y-98306095D01*
X173612381Y-107497428D02*
X173612381Y-108068857D01*
X173612381Y-107783143D02*
X172612381Y-107783143D01*
X172755238Y-107878381D01*
X172850476Y-107973619D01*
X172898095Y-108068857D01*
X172707619Y-107116476D02*
X172660000Y-107068857D01*
X172612381Y-106973619D01*
X172612381Y-106735523D01*
X172660000Y-106640285D01*
X172707619Y-106592666D01*
X172802857Y-106545047D01*
X172898095Y-106545047D01*
X173040952Y-106592666D01*
X173612381Y-107164095D01*
X173612381Y-106545047D01*
X172612381Y-105640285D02*
X172612381Y-106116476D01*
X173088571Y-106164095D01*
X173040952Y-106116476D01*
X172993333Y-106021238D01*
X172993333Y-105783142D01*
X173040952Y-105687904D01*
X173088571Y-105640285D01*
X173183810Y-105592666D01*
X173421905Y-105592666D01*
X173517143Y-105640285D01*
X173564762Y-105687904D01*
X173612381Y-105783142D01*
X173612381Y-106021238D01*
X173564762Y-106116476D01*
X173517143Y-106164095D01*
X173612381Y-105164095D02*
X172612381Y-105164095D01*
X173231429Y-105068857D02*
X173612381Y-104783142D01*
X172945714Y-104783142D02*
X173326667Y-105164095D01*
X179268381Y-100639428D02*
X179268381Y-101210857D01*
X179268381Y-100925143D02*
X178268381Y-100925143D01*
X178411238Y-101020381D01*
X178506476Y-101115619D01*
X178554095Y-101210857D01*
X178363619Y-100258476D02*
X178316000Y-100210857D01*
X178268381Y-100115619D01*
X178268381Y-99877523D01*
X178316000Y-99782285D01*
X178363619Y-99734666D01*
X178458857Y-99687047D01*
X178554095Y-99687047D01*
X178696952Y-99734666D01*
X179268381Y-100306095D01*
X179268381Y-99687047D01*
X178268381Y-98782285D02*
X178268381Y-99258476D01*
X178744571Y-99306095D01*
X178696952Y-99258476D01*
X178649333Y-99163238D01*
X178649333Y-98925142D01*
X178696952Y-98829904D01*
X178744571Y-98782285D01*
X178839810Y-98734666D01*
X179077905Y-98734666D01*
X179173143Y-98782285D01*
X179220762Y-98829904D01*
X179268381Y-98925142D01*
X179268381Y-99163238D01*
X179220762Y-99258476D01*
X179173143Y-99306095D01*
X179268381Y-98306095D02*
X178268381Y-98306095D01*
X178887429Y-98210857D02*
X179268381Y-97925142D01*
X178601714Y-97925142D02*
X178982667Y-98306095D01*
X180724381Y-107497428D02*
X180724381Y-108068857D01*
X180724381Y-107783143D02*
X179724381Y-107783143D01*
X179867238Y-107878381D01*
X179962476Y-107973619D01*
X180010095Y-108068857D01*
X179819619Y-107116476D02*
X179772000Y-107068857D01*
X179724381Y-106973619D01*
X179724381Y-106735523D01*
X179772000Y-106640285D01*
X179819619Y-106592666D01*
X179914857Y-106545047D01*
X180010095Y-106545047D01*
X180152952Y-106592666D01*
X180724381Y-107164095D01*
X180724381Y-106545047D01*
X179724381Y-105640285D02*
X179724381Y-106116476D01*
X180200571Y-106164095D01*
X180152952Y-106116476D01*
X180105333Y-106021238D01*
X180105333Y-105783142D01*
X180152952Y-105687904D01*
X180200571Y-105640285D01*
X180295810Y-105592666D01*
X180533905Y-105592666D01*
X180629143Y-105640285D01*
X180676762Y-105687904D01*
X180724381Y-105783142D01*
X180724381Y-106021238D01*
X180676762Y-106116476D01*
X180629143Y-106164095D01*
X180724381Y-105164095D02*
X179724381Y-105164095D01*
X180343429Y-105068857D02*
X180724381Y-104783142D01*
X180057714Y-104783142D02*
X180438667Y-105164095D01*
X186380381Y-100639428D02*
X186380381Y-101210857D01*
X186380381Y-100925143D02*
X185380381Y-100925143D01*
X185523238Y-101020381D01*
X185618476Y-101115619D01*
X185666095Y-101210857D01*
X185475619Y-100258476D02*
X185428000Y-100210857D01*
X185380381Y-100115619D01*
X185380381Y-99877523D01*
X185428000Y-99782285D01*
X185475619Y-99734666D01*
X185570857Y-99687047D01*
X185666095Y-99687047D01*
X185808952Y-99734666D01*
X186380381Y-100306095D01*
X186380381Y-99687047D01*
X185380381Y-98782285D02*
X185380381Y-99258476D01*
X185856571Y-99306095D01*
X185808952Y-99258476D01*
X185761333Y-99163238D01*
X185761333Y-98925142D01*
X185808952Y-98829904D01*
X185856571Y-98782285D01*
X185951810Y-98734666D01*
X186189905Y-98734666D01*
X186285143Y-98782285D01*
X186332762Y-98829904D01*
X186380381Y-98925142D01*
X186380381Y-99163238D01*
X186332762Y-99258476D01*
X186285143Y-99306095D01*
X186380381Y-98306095D02*
X185380381Y-98306095D01*
X185999429Y-98210857D02*
X186380381Y-97925142D01*
X185713714Y-97925142D02*
X186094667Y-98306095D01*
X187836381Y-107497428D02*
X187836381Y-108068857D01*
X187836381Y-107783143D02*
X186836381Y-107783143D01*
X186979238Y-107878381D01*
X187074476Y-107973619D01*
X187122095Y-108068857D01*
X186931619Y-107116476D02*
X186884000Y-107068857D01*
X186836381Y-106973619D01*
X186836381Y-106735523D01*
X186884000Y-106640285D01*
X186931619Y-106592666D01*
X187026857Y-106545047D01*
X187122095Y-106545047D01*
X187264952Y-106592666D01*
X187836381Y-107164095D01*
X187836381Y-106545047D01*
X186836381Y-105640285D02*
X186836381Y-106116476D01*
X187312571Y-106164095D01*
X187264952Y-106116476D01*
X187217333Y-106021238D01*
X187217333Y-105783142D01*
X187264952Y-105687904D01*
X187312571Y-105640285D01*
X187407810Y-105592666D01*
X187645905Y-105592666D01*
X187741143Y-105640285D01*
X187788762Y-105687904D01*
X187836381Y-105783142D01*
X187836381Y-106021238D01*
X187788762Y-106116476D01*
X187741143Y-106164095D01*
X187836381Y-105164095D02*
X186836381Y-105164095D01*
X187455429Y-105068857D02*
X187836381Y-104783142D01*
X187169714Y-104783142D02*
X187550667Y-105164095D01*
X193492381Y-100639428D02*
X193492381Y-101210857D01*
X193492381Y-100925143D02*
X192492381Y-100925143D01*
X192635238Y-101020381D01*
X192730476Y-101115619D01*
X192778095Y-101210857D01*
X192587619Y-100258476D02*
X192540000Y-100210857D01*
X192492381Y-100115619D01*
X192492381Y-99877523D01*
X192540000Y-99782285D01*
X192587619Y-99734666D01*
X192682857Y-99687047D01*
X192778095Y-99687047D01*
X192920952Y-99734666D01*
X193492381Y-100306095D01*
X193492381Y-99687047D01*
X192492381Y-98782285D02*
X192492381Y-99258476D01*
X192968571Y-99306095D01*
X192920952Y-99258476D01*
X192873333Y-99163238D01*
X192873333Y-98925142D01*
X192920952Y-98829904D01*
X192968571Y-98782285D01*
X193063810Y-98734666D01*
X193301905Y-98734666D01*
X193397143Y-98782285D01*
X193444762Y-98829904D01*
X193492381Y-98925142D01*
X193492381Y-99163238D01*
X193444762Y-99258476D01*
X193397143Y-99306095D01*
X193492381Y-98306095D02*
X192492381Y-98306095D01*
X193111429Y-98210857D02*
X193492381Y-97925142D01*
X192825714Y-97925142D02*
X193206667Y-98306095D01*
X194508381Y-114355428D02*
X194508381Y-114926857D01*
X194508381Y-114641143D02*
X193508381Y-114641143D01*
X193651238Y-114736381D01*
X193746476Y-114831619D01*
X193794095Y-114926857D01*
X193603619Y-113974476D02*
X193556000Y-113926857D01*
X193508381Y-113831619D01*
X193508381Y-113593523D01*
X193556000Y-113498285D01*
X193603619Y-113450666D01*
X193698857Y-113403047D01*
X193794095Y-113403047D01*
X193936952Y-113450666D01*
X194508381Y-114022095D01*
X194508381Y-113403047D01*
X193508381Y-112498285D02*
X193508381Y-112974476D01*
X193984571Y-113022095D01*
X193936952Y-112974476D01*
X193889333Y-112879238D01*
X193889333Y-112641142D01*
X193936952Y-112545904D01*
X193984571Y-112498285D01*
X194079810Y-112450666D01*
X194317905Y-112450666D01*
X194413143Y-112498285D01*
X194460762Y-112545904D01*
X194508381Y-112641142D01*
X194508381Y-112879238D01*
X194460762Y-112974476D01*
X194413143Y-113022095D01*
X194508381Y-112022095D02*
X193508381Y-112022095D01*
X194127429Y-111926857D02*
X194508381Y-111641142D01*
X193841714Y-111641142D02*
X194222667Y-112022095D01*
X93757858Y-127277381D02*
X93186429Y-127277381D01*
X93472143Y-127277381D02*
X93472143Y-126277381D01*
X93376905Y-126420238D01*
X93281667Y-126515476D01*
X93186429Y-126563095D01*
X94186429Y-126610714D02*
X94186429Y-127610714D01*
X94186429Y-126658333D02*
X94281667Y-126610714D01*
X94472144Y-126610714D01*
X94567382Y-126658333D01*
X94615001Y-126705952D01*
X94662620Y-126801190D01*
X94662620Y-127086905D01*
X94615001Y-127182143D01*
X94567382Y-127229762D01*
X94472144Y-127277381D01*
X94281667Y-127277381D01*
X94186429Y-127229762D01*
X95091191Y-127277381D02*
X95091191Y-126610714D01*
X95091191Y-126277381D02*
X95043572Y-126325000D01*
X95091191Y-126372619D01*
X95138810Y-126325000D01*
X95091191Y-126277381D01*
X95091191Y-126372619D01*
X95567381Y-126610714D02*
X95567381Y-127277381D01*
X95567381Y-126705952D02*
X95615000Y-126658333D01*
X95710238Y-126610714D01*
X95853096Y-126610714D01*
X95948334Y-126658333D01*
X95995953Y-126753571D01*
X95995953Y-127277381D01*
X103743619Y-96051619D02*
X103648381Y-96004000D01*
X103553143Y-95908762D01*
X103410286Y-95765905D01*
X103315047Y-95718286D01*
X103219809Y-95718286D01*
X103267428Y-95956381D02*
X103172190Y-95908762D01*
X103076952Y-95813524D01*
X103029333Y-95623048D01*
X103029333Y-95289714D01*
X103076952Y-95099238D01*
X103172190Y-95004000D01*
X103267428Y-94956381D01*
X103457905Y-94956381D01*
X103553143Y-95004000D01*
X103648381Y-95099238D01*
X103696000Y-95289714D01*
X103696000Y-95623048D01*
X103648381Y-95813524D01*
X103553143Y-95908762D01*
X103457905Y-95956381D01*
X103267428Y-95956381D01*
X103886476Y-96051619D02*
X104648381Y-96051619D01*
X104886476Y-95956381D02*
X104886476Y-94956381D01*
X105457905Y-95956381D01*
X105457905Y-94956381D01*
X105934095Y-95956381D02*
X105934095Y-94956381D01*
X106267429Y-95670667D01*
X106600762Y-94956381D01*
X106600762Y-95956381D01*
X107267428Y-94956381D02*
X107457905Y-94956381D01*
X107553143Y-95004000D01*
X107648381Y-95099238D01*
X107696000Y-95289714D01*
X107696000Y-95623048D01*
X107648381Y-95813524D01*
X107553143Y-95908762D01*
X107457905Y-95956381D01*
X107267428Y-95956381D01*
X107172190Y-95908762D01*
X107076952Y-95813524D01*
X107029333Y-95623048D01*
X107029333Y-95289714D01*
X107076952Y-95099238D01*
X107172190Y-95004000D01*
X107267428Y-94956381D01*
X108076952Y-95908762D02*
X108219809Y-95956381D01*
X108457905Y-95956381D01*
X108553143Y-95908762D01*
X108600762Y-95861143D01*
X108648381Y-95765905D01*
X108648381Y-95670667D01*
X108600762Y-95575429D01*
X108553143Y-95527810D01*
X108457905Y-95480190D01*
X108267428Y-95432571D01*
X108172190Y-95384952D01*
X108124571Y-95337333D01*
X108076952Y-95242095D01*
X108076952Y-95146857D01*
X108124571Y-95051619D01*
X108172190Y-95004000D01*
X108267428Y-94956381D01*
X108505524Y-94956381D01*
X108648381Y-95004000D01*
X108838857Y-96051619D02*
X109600762Y-96051619D01*
X109838857Y-95956381D02*
X109838857Y-94956381D01*
X110076952Y-94956381D01*
X110219810Y-95004000D01*
X110315048Y-95099238D01*
X110362667Y-95194476D01*
X110410286Y-95384952D01*
X110410286Y-95527810D01*
X110362667Y-95718286D01*
X110315048Y-95813524D01*
X110219810Y-95908762D01*
X110076952Y-95956381D01*
X109838857Y-95956381D01*
X111362667Y-95004000D02*
X111267429Y-94956381D01*
X111124572Y-94956381D01*
X110981714Y-95004000D01*
X110886476Y-95099238D01*
X110838857Y-95194476D01*
X110791238Y-95384952D01*
X110791238Y-95527810D01*
X110838857Y-95718286D01*
X110886476Y-95813524D01*
X110981714Y-95908762D01*
X111124572Y-95956381D01*
X111219810Y-95956381D01*
X111362667Y-95908762D01*
X111410286Y-95861143D01*
X111410286Y-95527810D01*
X111219810Y-95527810D01*
X111791238Y-95908762D02*
X111934095Y-95956381D01*
X112172191Y-95956381D01*
X112267429Y-95908762D01*
X112315048Y-95861143D01*
X112362667Y-95765905D01*
X112362667Y-95670667D01*
X112315048Y-95575429D01*
X112267429Y-95527810D01*
X112172191Y-95480190D01*
X111981714Y-95432571D01*
X111886476Y-95384952D01*
X111838857Y-95337333D01*
X111791238Y-95242095D01*
X111791238Y-95146857D01*
X111838857Y-95051619D01*
X111886476Y-95004000D01*
X111981714Y-94956381D01*
X112219810Y-94956381D01*
X112362667Y-95004000D01*
X137422143Y-82319762D02*
X137565000Y-82367381D01*
X137803096Y-82367381D01*
X137898334Y-82319762D01*
X137945953Y-82272143D01*
X137993572Y-82176905D01*
X137993572Y-82081667D01*
X137945953Y-81986429D01*
X137898334Y-81938810D01*
X137803096Y-81891190D01*
X137612619Y-81843571D01*
X137517381Y-81795952D01*
X137469762Y-81748333D01*
X137422143Y-81653095D01*
X137422143Y-81557857D01*
X137469762Y-81462619D01*
X137517381Y-81415000D01*
X137612619Y-81367381D01*
X137850715Y-81367381D01*
X137993572Y-81415000D01*
X138422143Y-82367381D02*
X138422143Y-81367381D01*
X138803096Y-81367381D01*
X138898334Y-81415000D01*
X138945953Y-81462619D01*
X138993572Y-81557857D01*
X138993572Y-81700714D01*
X138945953Y-81795952D01*
X138898334Y-81843571D01*
X138803096Y-81891190D01*
X138422143Y-81891190D01*
X139326905Y-81367381D02*
X139945953Y-81367381D01*
X139612619Y-81748333D01*
X139755477Y-81748333D01*
X139850715Y-81795952D01*
X139898334Y-81843571D01*
X139945953Y-81938810D01*
X139945953Y-82176905D01*
X139898334Y-82272143D01*
X139850715Y-82319762D01*
X139755477Y-82367381D01*
X139469762Y-82367381D01*
X139374524Y-82319762D01*
X139326905Y-82272143D01*
X140231667Y-81367381D02*
X140803096Y-81367381D01*
X140517381Y-82367381D02*
X140517381Y-81367381D01*
X120800762Y-116958857D02*
X120848381Y-116816000D01*
X120848381Y-116577904D01*
X120800762Y-116482666D01*
X120753143Y-116435047D01*
X120657905Y-116387428D01*
X120562667Y-116387428D01*
X120467429Y-116435047D01*
X120419810Y-116482666D01*
X120372190Y-116577904D01*
X120324571Y-116768381D01*
X120276952Y-116863619D01*
X120229333Y-116911238D01*
X120134095Y-116958857D01*
X120038857Y-116958857D01*
X119943619Y-116911238D01*
X119896000Y-116863619D01*
X119848381Y-116768381D01*
X119848381Y-116530285D01*
X119896000Y-116387428D01*
X120848381Y-115958857D02*
X119848381Y-115958857D01*
X119848381Y-115577904D01*
X119896000Y-115482666D01*
X119943619Y-115435047D01*
X120038857Y-115387428D01*
X120181714Y-115387428D01*
X120276952Y-115435047D01*
X120324571Y-115482666D01*
X120372190Y-115577904D01*
X120372190Y-115958857D01*
X119848381Y-115054095D02*
X119848381Y-114435047D01*
X120229333Y-114768381D01*
X120229333Y-114625523D01*
X120276952Y-114530285D01*
X120324571Y-114482666D01*
X120419810Y-114435047D01*
X120657905Y-114435047D01*
X120753143Y-114482666D01*
X120800762Y-114530285D01*
X120848381Y-114625523D01*
X120848381Y-114911238D01*
X120800762Y-115006476D01*
X120753143Y-115054095D01*
X119848381Y-114149333D02*
X119848381Y-113577904D01*
X120848381Y-113863619D02*
X119848381Y-113863619D01*
X157932381Y-102655476D02*
X157932381Y-103226905D01*
X157932381Y-102941191D02*
X156932381Y-102941191D01*
X157075238Y-103036429D01*
X157170476Y-103131667D01*
X157218095Y-103226905D01*
X156932381Y-101798333D02*
X156932381Y-101988810D01*
X156980000Y-102084048D01*
X157027619Y-102131667D01*
X157170476Y-102226905D01*
X157360952Y-102274524D01*
X157741905Y-102274524D01*
X157837143Y-102226905D01*
X157884762Y-102179286D01*
X157932381Y-102084048D01*
X157932381Y-101893571D01*
X157884762Y-101798333D01*
X157837143Y-101750714D01*
X157741905Y-101703095D01*
X157503810Y-101703095D01*
X157408571Y-101750714D01*
X157360952Y-101798333D01*
X157313333Y-101893571D01*
X157313333Y-102084048D01*
X157360952Y-102179286D01*
X157408571Y-102226905D01*
X157503810Y-102274524D01*
X157932381Y-101274524D02*
X156932381Y-101274524D01*
X157646667Y-100941190D01*
X156932381Y-100607857D01*
X157932381Y-100607857D01*
X157932381Y-100131667D02*
X156932381Y-100131667D01*
X157408571Y-100131667D02*
X157408571Y-99560238D01*
X157932381Y-99560238D02*
X156932381Y-99560238D01*
X157265714Y-99179286D02*
X157265714Y-98655476D01*
X157932381Y-99179286D01*
X157932381Y-98655476D01*
X102965714Y-89204381D02*
X102965714Y-88204381D01*
X103299048Y-88918667D01*
X103632381Y-88204381D01*
X103632381Y-89204381D01*
X104680000Y-89109143D02*
X104632381Y-89156762D01*
X104489524Y-89204381D01*
X104394286Y-89204381D01*
X104251428Y-89156762D01*
X104156190Y-89061524D01*
X104108571Y-88966286D01*
X104060952Y-88775810D01*
X104060952Y-88632952D01*
X104108571Y-88442476D01*
X104156190Y-88347238D01*
X104251428Y-88252000D01*
X104394286Y-88204381D01*
X104489524Y-88204381D01*
X104632381Y-88252000D01*
X104680000Y-88299619D01*
X105108571Y-89204381D02*
X105108571Y-88204381D01*
X105489524Y-88204381D01*
X105584762Y-88252000D01*
X105632381Y-88299619D01*
X105680000Y-88394857D01*
X105680000Y-88537714D01*
X105632381Y-88632952D01*
X105584762Y-88680571D01*
X105489524Y-88728190D01*
X105108571Y-88728190D01*
X106013333Y-88204381D02*
X106680000Y-88204381D01*
X106251428Y-89204381D01*
X106965714Y-88204381D02*
X107584762Y-88204381D01*
X107251428Y-88585333D01*
X107394286Y-88585333D01*
X107489524Y-88632952D01*
X107537143Y-88680571D01*
X107584762Y-88775810D01*
X107584762Y-89013905D01*
X107537143Y-89109143D01*
X107489524Y-89156762D01*
X107394286Y-89204381D01*
X107108571Y-89204381D01*
X107013333Y-89156762D01*
X106965714Y-89109143D01*
X108156190Y-88632952D02*
X108060952Y-88585333D01*
X108013333Y-88537714D01*
X107965714Y-88442476D01*
X107965714Y-88394857D01*
X108013333Y-88299619D01*
X108060952Y-88252000D01*
X108156190Y-88204381D01*
X108346667Y-88204381D01*
X108441905Y-88252000D01*
X108489524Y-88299619D01*
X108537143Y-88394857D01*
X108537143Y-88442476D01*
X108489524Y-88537714D01*
X108441905Y-88585333D01*
X108346667Y-88632952D01*
X108156190Y-88632952D01*
X108060952Y-88680571D01*
X108013333Y-88728190D01*
X107965714Y-88823429D01*
X107965714Y-89013905D01*
X108013333Y-89109143D01*
X108060952Y-89156762D01*
X108156190Y-89204381D01*
X108346667Y-89204381D01*
X108441905Y-89156762D01*
X108489524Y-89109143D01*
X108537143Y-89013905D01*
X108537143Y-88823429D01*
X108489524Y-88728190D01*
X108441905Y-88680571D01*
X108346667Y-88632952D01*
X108870476Y-88204381D02*
X109489524Y-88204381D01*
X109156190Y-88585333D01*
X109299048Y-88585333D01*
X109394286Y-88632952D01*
X109441905Y-88680571D01*
X109489524Y-88775810D01*
X109489524Y-89013905D01*
X109441905Y-89109143D01*
X109394286Y-89156762D01*
X109299048Y-89204381D01*
X109013333Y-89204381D01*
X108918095Y-89156762D01*
X108870476Y-89109143D01*
X110441905Y-89204381D02*
X109870476Y-89204381D01*
X110156190Y-89204381D02*
X110156190Y-88204381D01*
X110060952Y-88347238D01*
X109965714Y-88442476D01*
X109870476Y-88490095D01*
D13*
X106299048Y-85578190D02*
X106299048Y-85982952D01*
X106322857Y-86030571D01*
X106346667Y-86054381D01*
X106394286Y-86078190D01*
X106489524Y-86078190D01*
X106537143Y-86054381D01*
X106560952Y-86030571D01*
X106584762Y-85982952D01*
X106584762Y-85578190D01*
X106799048Y-85625810D02*
X106822858Y-85602000D01*
X106870477Y-85578190D01*
X106989524Y-85578190D01*
X107037143Y-85602000D01*
X107060953Y-85625810D01*
X107084762Y-85673429D01*
X107084762Y-85721048D01*
X107060953Y-85792476D01*
X106775239Y-86078190D01*
X107084762Y-86078190D01*
D11*
X91305143Y-97988381D02*
X90828952Y-97988381D01*
X90828952Y-96988381D01*
X91638476Y-97464571D02*
X91971810Y-97464571D01*
X92114667Y-97988381D02*
X91638476Y-97988381D01*
X91638476Y-96988381D01*
X92114667Y-96988381D01*
X92543238Y-97988381D02*
X92543238Y-96988381D01*
X92781333Y-96988381D01*
X92924191Y-97036000D01*
X93019429Y-97131238D01*
X93067048Y-97226476D01*
X93114667Y-97416952D01*
X93114667Y-97559810D01*
X93067048Y-97750286D01*
X93019429Y-97845524D01*
X92924191Y-97940762D01*
X92781333Y-97988381D01*
X92543238Y-97988381D01*
X89368381Y-92963619D02*
X90177905Y-92963619D01*
X90273143Y-92916000D01*
X90320762Y-92868381D01*
X90368381Y-92773143D01*
X90368381Y-92582666D01*
X90320762Y-92487428D01*
X90273143Y-92439809D01*
X90177905Y-92392190D01*
X89368381Y-92392190D01*
X90320762Y-91963619D02*
X90368381Y-91820762D01*
X90368381Y-91582666D01*
X90320762Y-91487428D01*
X90273143Y-91439809D01*
X90177905Y-91392190D01*
X90082667Y-91392190D01*
X89987429Y-91439809D01*
X89939810Y-91487428D01*
X89892190Y-91582666D01*
X89844571Y-91773143D01*
X89796952Y-91868381D01*
X89749333Y-91916000D01*
X89654095Y-91963619D01*
X89558857Y-91963619D01*
X89463619Y-91916000D01*
X89416000Y-91868381D01*
X89368381Y-91773143D01*
X89368381Y-91535047D01*
X89416000Y-91392190D01*
X89844571Y-90630285D02*
X89892190Y-90487428D01*
X89939810Y-90439809D01*
X90035048Y-90392190D01*
X90177905Y-90392190D01*
X90273143Y-90439809D01*
X90320762Y-90487428D01*
X90368381Y-90582666D01*
X90368381Y-90963619D01*
X89368381Y-90963619D01*
X89368381Y-90630285D01*
X89416000Y-90535047D01*
X89463619Y-90487428D01*
X89558857Y-90439809D01*
X89654095Y-90439809D01*
X89749333Y-90487428D01*
X89796952Y-90535047D01*
X89844571Y-90630285D01*
X89844571Y-90963619D01*
X90463619Y-90201714D02*
X90463619Y-89439809D01*
X89368381Y-89011238D02*
X89368381Y-88820761D01*
X89416000Y-88725523D01*
X89511238Y-88630285D01*
X89701714Y-88582666D01*
X90035048Y-88582666D01*
X90225524Y-88630285D01*
X90320762Y-88725523D01*
X90368381Y-88820761D01*
X90368381Y-89011238D01*
X90320762Y-89106476D01*
X90225524Y-89201714D01*
X90035048Y-89249333D01*
X89701714Y-89249333D01*
X89511238Y-89201714D01*
X89416000Y-89106476D01*
X89368381Y-89011238D01*
X89368381Y-88296952D02*
X89368381Y-87725523D01*
X90368381Y-88011238D02*
X89368381Y-88011238D01*
X89416000Y-86868380D02*
X89368381Y-86963618D01*
X89368381Y-87106475D01*
X89416000Y-87249333D01*
X89511238Y-87344571D01*
X89606476Y-87392190D01*
X89796952Y-87439809D01*
X89939810Y-87439809D01*
X90130286Y-87392190D01*
X90225524Y-87344571D01*
X90320762Y-87249333D01*
X90368381Y-87106475D01*
X90368381Y-87011237D01*
X90320762Y-86868380D01*
X90273143Y-86820761D01*
X89939810Y-86820761D01*
X89939810Y-87011237D01*
M02*
